sporting_grotesque_XX_gras.ufo
<glyph name="exclam" format="1">
  <advance width="344"/>
  <unicode hex="0021"/>
  <note>
    exclam
  </note>
  <outline>
    <contour>
      <point x="75" y="777" type="line"/>
      <point x="115" y="261" type="line"/>
      <point x="234" y="261" type="line"/>
      <point x="274" y="777" type="line"/>
    </contour>
    <contour>
      <point x="75" y="173" type="line"/>
      <point x="75" y="0" type="line"/>
      <point x="276" y="0" type="line"/>
      <point x="276" y="173" type="line"/>
    </contour>
  </outline>
</glyph>
<glyph name="quotedbl" format="1">
  <advance width="524"/>
  <unicode hex="0022"/>
  <note>
    quotedbl
  </note>
  <outline>
    <contour>
      <point x="55" y="777" type="line"/>
      <point x="55" y="628" type="line"/>
      <point x="114" y="429" type="line"/>
      <point x="169" y="429" type="line"/>
      <point x="228" y="628" type="line"/>
      <point x="228" y="777" type="line"/>
    </contour>
    <contour>
      <point x="296" y="777" type="line"/>
      <point x="296" y="628" type="line"/>
      <point x="355" y="429" type="line"/>
      <point x="410" y="429" type="line"/>
      <point x="470" y="628" type="line"/>
      <point x="470" y="777" type="line"/>
    </contour>
  </outline>
</glyph>
<glyph name="numbersign" format="1">
  <advance width="682"/>
  <unicode hex="0023"/>
  <note>
    numbersign
  </note>
  <outline>
    <contour>
      <point x="88" y="545" type="line"/>
      <point x="88" y="501" type="line"/>
      <point x="227" y="501" type="line"/>
      <point x="176" y="314" type="line"/>
      <point x="30" y="314" type="line"/>
      <point x="30" y="270" type="line"/>
      <point x="164" y="270" type="line"/>
      <point x="92" y="0" type="line"/>
      <point x="137" y="0" type="line"/>
      <point x="209" y="270" type="line"/>
      <point x="396" y="270" type="line"/>
      <point x="323" y="0" type="line"/>
      <point x="368" y="0" type="line"/>
      <point x="440" y="270" type="line"/>
      <point x="596" y="270" type="line"/>
      <point x="596" y="314" type="line"/>
      <point x="452" y="314" type="line"/>
      <point x="503" y="501" type="line"/>
      <point x="654" y="501" type="line"/>
      <point x="654" y="545" type="line"/>
      <point x="514" y="545" type="line"/>
      <point x="581" y="788" type="line"/>
      <point x="536" y="788" type="line"/>
      <point x="469" y="545" type="line"/>
      <point x="283" y="545" type="line"/>
      <point x="349" y="788" type="line"/>
      <point x="305" y="788" type="line"/>
      <point x="238" y="545" type="line"/>
    </contour>
    <contour>
      <point x="271" y="501" type="line"/>
      <point x="458" y="501" type="line"/>
      <point x="407" y="314" type="line"/>
      <point x="221" y="314" type="line"/>
    </contour>
  </outline>
</glyph>
<glyph name="dollar" format="1">
  <advance width="819"/>
  <unicode hex="0024"/>
  <note>
    dollar
  </note>
  <outline>
    <contour>
      <point x="424" y="-223" type="line"/>
      <point x="424" y="-12" type="line"/>
      <point x="433" y="-13"/>
      <point x="443" y="-13"/>
      <point x="453" y="-13" type="curve" smooth="yes"/>
      <point x="623" y="-13"/>
      <point x="791" y="69"/>
      <point x="791" y="223" type="curve" smooth="yes"/>
      <point x="791" y="413"/>
      <point x="579" y="434"/>
      <point x="424" y="464" type="curve"/>
      <point x="424" y="629" type="line"/>
      <point x="553" y="606"/>
      <point x="589" y="489"/>
      <point x="589" y="489" type="curve"/>
      <point x="734" y="574" type="line"/>
      <point x="734" y="574"/>
      <point x="659" y="764"/>
      <point x="424" y="786" type="curve"/>
      <point x="424" y="992" type="line"/>
      <point x="381" y="992" type="line"/>
      <point x="381" y="788" type="line"/>
      <point x="380" y="788" type="line" smooth="yes"/>
      <point x="231" y="788"/>
      <point x="87" y="698"/>
      <point x="87" y="559" type="curve" smooth="yes"/>
      <point x="87" y="404"/>
      <point x="240" y="369"/>
      <point x="381" y="342" type="curve"/>
      <point x="381" y="150" type="line"/>
      <point x="225" y="181"/>
      <point x="179" y="313"/>
      <point x="179" y="313" type="curve"/>
      <point x="27" y="242" type="line"/>
      <point x="27" y="242"/>
      <point x="96" y="23"/>
      <point x="381" y="-9" type="curve"/>
      <point x="381" y="-223" type="line"/>
    </contour>
    <contour>
      <point x="612" y="171"/>
      <point x="538" y="144"/>
      <point x="448" y="144" type="curve" smooth="yes"/>
      <point x="440" y="144"/>
      <point x="432" y="144"/>
      <point x="424" y="145" type="curve"/>
      <point x="424" y="334" type="line"/>
      <point x="526" y="315"/>
      <point x="612" y="293"/>
      <point x="612" y="225" type="curve" smooth="yes"/>
    </contour>
    <contour>
      <point x="264" y="604"/>
      <point x="308" y="633"/>
      <point x="378" y="633" type="curve" smooth="yes"/>
      <point x="381" y="633" type="line"/>
      <point x="381" y="473" type="line"/>
      <point x="313" y="489"/>
      <point x="264" y="512"/>
      <point x="264" y="560" type="curve" smooth="yes"/>
    </contour>
  </outline>
</glyph>
<glyph name="percent" format="1">
  <advance width="1023"/>
  <unicode hex="0025"/>
  <note>
    percent
  </note>
  <outline>
    <contour>
      <point x="355" y="-13" type="line"/>
      <point x="709" y="806" type="line"/>
      <point x="660" y="806" type="line"/>
      <point x="304" y="-13" type="line"/>
    </contour>
    <contour>
      <point x="15" y="423"/>
      <point x="120" y="326"/>
      <point x="255" y="326" type="curve" smooth="yes"/>
      <point x="390" y="326"/>
      <point x="494" y="423"/>
      <point x="494" y="567" type="curve" smooth="yes"/>
      <point x="494" y="709"/>
      <point x="390" y="808"/>
      <point x="255" y="808" type="curve" smooth="yes"/>
      <point x="110" y="808"/>
      <point x="15" y="709"/>
      <point x="15" y="567" type="curve" smooth="yes"/>
    </contour>
    <contour>
      <point x="185" y="639"/>
      <point x="210" y="674"/>
      <point x="255" y="674" type="curve" smooth="yes"/>
      <point x="299" y="674"/>
      <point x="325" y="639"/>
      <point x="325" y="567" type="curve" smooth="yes"/>
      <point x="325" y="495"/>
      <point x="299" y="457"/>
      <point x="255" y="457" type="curve" smooth="yes"/>
      <point x="210" y="457"/>
      <point x="185" y="495"/>
      <point x="185" y="567" type="curve" smooth="yes"/>
    </contour>
    <contour>
      <point x="529" y="84"/>
      <point x="634" y="-13"/>
      <point x="769" y="-13" type="curve" smooth="yes"/>
      <point x="904" y="-13"/>
      <point x="1008" y="84"/>
      <point x="1008" y="228" type="curve" smooth="yes"/>
      <point x="1008" y="370"/>
      <point x="904" y="469"/>
      <point x="769" y="469" type="curve" smooth="yes"/>
      <point x="624" y="469"/>
      <point x="529" y="370"/>
      <point x="529" y="228" type="curve" smooth="yes"/>
    </contour>
    <contour>
      <point x="699" y="300"/>
      <point x="724" y="335"/>
      <point x="769" y="335" type="curve" smooth="yes"/>
      <point x="813" y="335"/>
      <point x="839" y="300"/>
      <point x="839" y="228" type="curve" smooth="yes"/>
      <point x="839" y="156"/>
      <point x="813" y="118"/>
      <point x="769" y="118" type="curve" smooth="yes"/>
      <point x="724" y="118"/>
      <point x="699" y="156"/>
      <point x="699" y="228" type="curve" smooth="yes"/>
    </contour>
  </outline>
</glyph>
<glyph name="ampersand" format="1">
  <advance width="888"/>
  <unicode hex="0026"/>
  <note>
    ampersand
  </note>
  <outline>
    <contour>
      <point x="734" y="222"/>
      <point x="494" y="30"/>
      <point x="295" y="30" type="curve" smooth="yes"/>
      <point x="139" y="30"/>
      <point x="59" y="84"/>
      <point x="59" y="188" type="curve" smooth="yes"/>
      <point x="59" y="427"/>
      <point x="569" y="427"/>
      <point x="569" y="632" type="curve" smooth="yes"/>
      <point x="569" y="732"/>
      <point x="473" y="788"/>
      <point x="359" y="788" type="curve" smooth="yes"/>
      <point x="253" y="788"/>
      <point x="158" y="722"/>
      <point x="158" y="595" type="curve" smooth="yes"/>
      <point x="157" y="337"/>
      <point x="542" y="2"/>
      <point x="835" y="0" type="curve"/>
      <point x="835" y="44" type="line"/>
      <point x="567" y="46"/>
      <point x="201" y="361"/>
      <point x="202" y="595" type="curve" smooth="yes"/>
      <point x="202" y="696"/>
      <point x="277" y="744"/>
      <point x="359" y="744" type="curve" smooth="yes"/>
      <point x="449" y="744"/>
      <point x="525" y="705"/>
      <point x="525" y="632" type="curve" smooth="yes"/>
      <point x="525" y="474"/>
      <point x="15" y="466"/>
      <point x="15" y="188" type="curve" smooth="yes"/>
      <point x="15" y="57"/>
      <point x="115" y="-14"/>
      <point x="295" y="-14" type="curve" smooth="yes"/>
      <point x="519" y="-14"/>
      <point x="778" y="198"/>
      <point x="774" y="381" type="curve"/>
      <point x="730" y="379" type="line"/>
    </contour>
  </outline>
</glyph>
<glyph name="quotesingle" format="1">
  <advance width="267"/>
  <unicode hex="0027"/>
  <note>
    quotesingle
  </note>
  <outline>
    <contour>
      <point x="47" y="777" type="line"/>
      <point x="47" y="628" type="line"/>
      <point x="106" y="429" type="line"/>
      <point x="161" y="429" type="line"/>
      <point x="221" y="628" type="line"/>
      <point x="221" y="777" type="line"/>
    </contour>
  </outline>
</glyph>
<glyph name="parenleft" format="1">
  <advance width="400"/>
  <unicode hex="0028"/>
  <note>
    parenleft
  </note>
  <outline>
    <contour>
      <point x="357" y="-154" type="line"/>
      <point x="357" y="-154"/>
      <point x="74" y="9"/>
      <point x="74" y="374" type="curve" smooth="yes"/>
      <point x="74" y="736"/>
      <point x="357" y="900"/>
      <point x="357" y="900" type="curve"/>
      <point x="328" y="932" type="line"/>
      <point x="328" y="932"/>
      <point x="31" y="765"/>
      <point x="31" y="374" type="curve" smooth="yes"/>
      <point x="31" y="-7"/>
      <point x="328" y="-183"/>
      <point x="328" y="-183" type="curve"/>
    </contour>
  </outline>
</glyph>
<glyph name="parenright" format="1">
  <advance width="400"/>
  <unicode hex="0029"/>
  <note>
    parenright
  </note>
  <outline>
    <contour>
      <point x="72" y="-183"/>
      <point x="369" y="-7"/>
      <point x="369" y="374" type="curve" smooth="yes"/>
      <point x="369" y="765"/>
      <point x="72" y="932"/>
      <point x="72" y="932" type="curve"/>
      <point x="43" y="900" type="line"/>
      <point x="43" y="900"/>
      <point x="326" y="736"/>
      <point x="326" y="374" type="curve" smooth="yes"/>
      <point x="326" y="9"/>
      <point x="43" y="-154"/>
      <point x="43" y="-154" type="curve"/>
      <point x="72" y="-183" type="line"/>
    </contour>
  </outline>
</glyph>
<glyph name="asterisk" format="1">
  <advance width="366"/>
  <unicode hex="002A"/>
  <note>
    asterisk
  </note>
  <outline>
    <contour>
      <point x="205" y="639" type="line"/>
      <point x="200" y="751" type="line"/>
      <point x="273" y="668" type="line"/>
      <point x="304" y="698" type="line"/>
      <point x="218" y="772" type="line"/>
      <point x="331" y="764" type="line"/>
      <point x="331" y="808" type="line"/>
      <point x="220" y="799" type="line"/>
      <point x="304" y="876" type="line"/>
      <point x="273" y="906" type="line"/>
      <point x="200" y="819" type="line"/>
      <point x="205" y="935" type="line"/>
      <point x="162" y="935" type="line"/>
      <point x="168" y="819" type="line"/>
      <point x="94" y="908" type="line"/>
      <point x="64" y="877" type="line"/>
      <point x="148" y="798" type="line"/>
      <point x="35" y="808" type="line"/>
      <point x="35" y="764" type="line"/>
      <point x="148" y="766" type="line"/>
      <point x="64" y="697" type="line"/>
      <point x="94" y="666" type="line"/>
      <point x="171" y="750" type="line"/>
      <point x="162" y="639" type="line"/>
    </contour>
  </outline>
</glyph>
<glyph name="plus" format="1">
  <advance width="813"/>
  <unicode hex="002B"/>
  <note>
    plus
  </note>
  <outline>
    <contour>
      <point x="428" y="-2" type="line"/>
      <point x="428" y="777" type="line"/>
      <point x="385" y="777" type="line"/>
      <point x="385" y="-2" type="line"/>
    </contour>
    <contour>
      <point x="17" y="366" type="line"/>
      <point x="796" y="366" type="line"/>
      <point x="796" y="409" type="line"/>
      <point x="17" y="409" type="line"/>
    </contour>
  </outline>
</glyph>
<glyph name="comma" format="1">
  <advance width="310"/>
  <unicode hex="002C"/>
  <note>
    comma
  </note>
  <outline>
    <contour>
      <point x="60" y="173" type="line"/>
      <point x="60" y="0" type="line"/>
      <point x="180" y="0" type="line"/>
      <point x="180" y="-82"/>
      <point x="122" y="-94"/>
      <point x="63" y="-94" type="curve"/>
      <point x="63" y="-154" type="line"/>
      <point x="169" y="-154"/>
      <point x="261" y="-131"/>
      <point x="261" y="28" type="curve" smooth="yes"/>
      <point x="261" y="173" type="line"/>
    </contour>
  </outline>
</glyph>
<glyph name="hyphen" format="1">
  <advance width="585"/>
  <unicode hex="002D"/>
  <note>
    hyphen
  </note>
  <outline>
    <contour>
      <point x="61" y="233" type="line"/>
      <point x="524" y="233" type="line"/>
      <point x="524" y="328" type="line"/>
      <point x="61" y="328" type="line"/>
    </contour>
  </outline>
</glyph>
<glyph name="period" format="1">
  <advance width="322"/>
  <unicode hex="002E"/>
  <note>
    period
  </note>
  <outline>
    <contour>
      <point x="61" y="173" type="line"/>
      <point x="61" y="0" type="line"/>
      <point x="262" y="0" type="line"/>
      <point x="262" y="173" type="line"/>
    </contour>
  </outline>
</glyph>
<glyph name="slash" format="1">
  <advance width="396"/>
  <unicode hex="002F"/>
  <note>
    slash
  </note>
  <outline>
    <contour>
      <point x="60" y="-207" type="line"/>
      <point x="379" y="986" type="line"/>
      <point x="337" y="996" type="line"/>
      <point x="18" y="-197" type="line"/>
    </contour>
  </outline>
</glyph>
<glyph name="zero" format="1">
  <advance width="833"/>
  <unicode hex="0030"/>
  <note>
    zero
  </note>
  <outline>
    <contour>
      <point x="48" y="165"/>
      <point x="183" y="-13"/>
      <point x="416" y="-13" type="curve" smooth="yes"/>
      <point x="650" y="-13"/>
      <point x="785" y="165"/>
      <point x="785" y="387" type="curve" smooth="yes"/>
      <point x="785" y="610"/>
      <point x="650" y="787"/>
      <point x="416" y="787" type="curve" smooth="yes"/>
      <point x="183" y="787"/>
      <point x="48" y="610"/>
      <point x="48" y="387" type="curve" smooth="yes"/>
    </contour>
    <contour>
      <point x="232" y="530"/>
      <point x="284" y="643"/>
      <point x="416" y="643" type="curve" smooth="yes"/>
      <point x="549" y="643"/>
      <point x="601" y="530"/>
      <point x="601" y="387" type="curve" smooth="yes"/>
      <point x="601" y="245"/>
      <point x="549" y="134"/>
      <point x="416" y="134" type="curve" smooth="yes"/>
      <point x="284" y="134"/>
      <point x="232" y="245"/>
      <point x="232" y="387" type="curve" smooth="yes"/>
    </contour>
  </outline>
</glyph>
<glyph name="one" format="1">
  <advance width="574"/>
  <unicode hex="0031"/>
  <note>
    one
  </note>
  <outline>
    <contour>
      <point x="513" y="0" type="line"/>
      <point x="513" y="777" type="line"/>
      <point x="371" y="777" type="line"/>
      <point x="311" y="628"/>
      <point x="184" y="592"/>
      <point x="15" y="592" type="curve"/>
      <point x="15" y="444" type="line"/>
      <point x="257" y="444"/>
      <point x="343" y="575"/>
      <point x="343" y="575" type="curve"/>
      <point x="343" y="0" type="line"/>
    </contour>
  </outline>
</glyph>
<glyph name="two" format="1">
  <advance width="796"/>
  <unicode hex="0032"/>
  <note>
    two
  </note>
  <outline>
    <contour>
      <point x="735" y="673"/>
      <point x="624" y="788"/>
      <point x="434" y="788" type="curve" smooth="yes"/>
      <point x="95" y="788"/>
      <point x="59" y="521"/>
      <point x="59" y="521" type="curve"/>
      <point x="204" y="433" type="line"/>
      <point x="204" y="433"/>
      <point x="220" y="633"/>
      <point x="422" y="633" type="curve" smooth="yes"/>
      <point x="505" y="633"/>
      <point x="558" y="584"/>
      <point x="558" y="517" type="curve" smooth="yes"/>
      <point x="558" y="362"/>
      <point x="263" y="228"/>
      <point x="49" y="134" type="curve"/>
      <point x="49" y="0" type="line"/>
      <point x="743" y="0" type="line"/>
      <point x="743" y="144" type="line"/>
      <point x="293" y="144" type="line"/>
      <point x="538" y="235"/>
      <point x="735" y="356"/>
      <point x="735" y="537" type="curve" smooth="yes"/>
    </contour>
  </outline>
</glyph>
<glyph name="three" format="1">
  <advance width="790"/>
  <unicode hex="0033"/>
  <note>
    three
  </note>
  <outline>
    <contour>
      <point x="316" y="334" type="line"/>
      <point x="493" y="353"/>
      <point x="560" y="318"/>
      <point x="560" y="239" type="curve" smooth="yes"/>
      <point x="560" y="182"/>
      <point x="507" y="134"/>
      <point x="399" y="134" type="curve" smooth="yes"/>
      <point x="261" y="134"/>
      <point x="207" y="214"/>
      <point x="207" y="300" type="curve"/>
      <point x="39" y="300" type="line"/>
      <point x="39" y="148"/>
      <point x="139" y="-14"/>
      <point x="408" y="-14" type="curve" smooth="yes"/>
      <point x="609" y="-14"/>
      <point x="743" y="110"/>
      <point x="743" y="240" type="curve" smooth="yes"/>
      <point x="743" y="368"/>
      <point x="657" y="432"/>
      <point x="529" y="422" type="curve"/>
      <point x="537" y="424"/>
      <point x="699" y="469"/>
      <point x="699" y="599" type="curve" smooth="yes"/>
      <point x="699" y="704"/>
      <point x="572" y="788"/>
      <point x="427" y="788" type="curve" smooth="yes"/>
      <point x="129" y="788"/>
      <point x="104" y="559"/>
      <point x="104" y="559" type="curve"/>
      <point x="249" y="471" type="line"/>
      <point x="249" y="471"/>
      <point x="258" y="643"/>
      <point x="408" y="643" type="curve" smooth="yes"/>
      <point x="480" y="643"/>
      <point x="515" y="603"/>
      <point x="515" y="556" type="curve" smooth="yes"/>
      <point x="515" y="499"/>
      <point x="470" y="444"/>
      <point x="373" y="444" type="curve" smooth="yes"/>
      <point x="316" y="444" type="line"/>
    </contour>
  </outline>
</glyph>
<glyph name="four" format="1">
  <advance width="821"/>
  <unicode hex="0034"/>
  <note>
    four
  </note>
  <outline>
    <contour>
      <point x="22" y="221" type="line"/>
      <point x="478" y="221" type="line"/>
      <point x="478" y="0" type="line"/>
      <point x="651" y="0" type="line"/>
      <point x="651" y="221" type="line"/>
      <point x="780" y="221" type="line"/>
      <point x="780" y="364" type="line"/>
      <point x="651" y="364" type="line"/>
      <point x="651" y="777" type="line"/>
      <point x="456" y="777" type="line"/>
      <point x="22" y="311" type="line"/>
    </contour>
    <contour>
      <point x="478" y="633" type="line"/>
      <point x="478" y="364" type="line"/>
      <point x="238" y="364" type="line"/>
    </contour>
  </outline>
</glyph>
<glyph name="five" format="1">
  <advance width="797"/>
  <unicode hex="0035"/>
  <note>
    five
  </note>
  <outline>
    <contour>
      <point x="749" y="438"/>
      <point x="629" y="531"/>
      <point x="478" y="531" type="curve" smooth="yes"/>
      <point x="324" y="531"/>
      <point x="248" y="444"/>
      <point x="248" y="444" type="curve"/>
      <point x="301" y="633" type="line"/>
      <point x="671" y="633" type="line"/>
      <point x="671" y="777" type="line"/>
      <point x="168" y="777" type="line"/>
      <point x="79" y="367" type="line"/>
      <point x="242" y="367" type="line"/>
      <point x="242" y="367"/>
      <point x="298" y="420"/>
      <point x="391" y="420" type="curve" smooth="yes"/>
      <point x="508" y="420"/>
      <point x="566" y="354"/>
      <point x="566" y="278" type="curve" smooth="yes"/>
      <point x="566" y="201"/>
      <point x="508" y="134"/>
      <point x="391" y="134" type="curve" smooth="yes"/>
      <point x="267" y="134"/>
      <point x="213" y="214"/>
      <point x="213" y="300" type="curve"/>
      <point x="45" y="300" type="line"/>
      <point x="45" y="148"/>
      <point x="145" y="-14"/>
      <point x="414" y="-14" type="curve" smooth="yes"/>
      <point x="615" y="-14"/>
      <point x="749" y="110"/>
      <point x="749" y="276" type="curve" smooth="yes"/>
    </contour>
  </outline>
</glyph>
<glyph name="six" format="1">
  <advance width="798"/>
  <unicode hex="0036"/>
  <note>
    six
  </note>
  <outline>
    <contour>
      <point x="546" y="643"/>
      <point x="587" y="548"/>
      <point x="587" y="548" type="curve"/>
      <point x="732" y="636" type="line"/>
      <point x="732" y="636"/>
      <point x="661" y="787"/>
      <point x="442" y="787" type="curve" smooth="yes"/>
      <point x="187" y="787"/>
      <point x="46" y="594"/>
      <point x="46" y="387" type="curve" smooth="yes"/>
      <point x="46" y="160"/>
      <point x="193" y="-14"/>
      <point x="411" y="-14" type="curve" smooth="yes"/>
      <point x="608" y="-14"/>
      <point x="751" y="116"/>
      <point x="751" y="277" type="curve" smooth="yes"/>
      <point x="751" y="409"/>
      <point x="659" y="511"/>
      <point x="484" y="511" type="curve" smooth="yes"/>
      <point x="330" y="511"/>
      <point x="231" y="424"/>
      <point x="231" y="424" type="curve" smooth="yes"/>
      <point x="231" y="424"/>
      <point x="250" y="643"/>
      <point x="433" y="643" type="curve" smooth="yes"/>
    </contour>
    <contour>
      <point x="529" y="400"/>
      <point x="568" y="336"/>
      <point x="568" y="271" type="curve" smooth="yes"/>
      <point x="568" y="196"/>
      <point x="507" y="134"/>
      <point x="412" y="134" type="curve" smooth="yes"/>
      <point x="236" y="134"/>
      <point x="231" y="346"/>
      <point x="231" y="346" type="curve" smooth="yes"/>
      <point x="231" y="346"/>
      <point x="304" y="400"/>
      <point x="408" y="400" type="curve" smooth="yes"/>
    </contour>
  </outline>
</glyph>
<glyph name="seven" format="1">
  <advance width="785"/>
  <unicode hex="0037"/>
  <note>
    seven
  </note>
  <outline>
    <contour>
      <point x="761" y="777" type="line"/>
      <point x="52" y="777" type="line"/>
      <point x="52" y="633" type="line"/>
      <point x="573" y="633" type="line"/>
      <point x="573" y="633"/>
      <point x="203" y="436"/>
      <point x="110" y="0" type="curve"/>
      <point x="299" y="0" type="line"/>
      <point x="391" y="404"/>
      <point x="761" y="661"/>
      <point x="761" y="661" type="curve"/>
    </contour>
  </outline>
</glyph>
<glyph name="eight" format="1">
  <advance width="824"/>
  <unicode hex="0038"/>
  <note>
    eight
  </note>
  <outline>
    <contour>
      <point x="755" y="703"/>
      <point x="609" y="788"/>
      <point x="412" y="788" type="curve" smooth="yes"/>
      <point x="215" y="788"/>
      <point x="69" y="704"/>
      <point x="69" y="578" type="curve" smooth="yes"/>
      <point x="69" y="447"/>
      <point x="248" y="404"/>
      <point x="257" y="402" type="curve"/>
      <point x="251" y="401"/>
      <point x="49" y="379"/>
      <point x="49" y="215" type="curve" smooth="yes"/>
      <point x="49" y="62"/>
      <point x="221" y="-14"/>
      <point x="412" y="-14" type="curve" smooth="yes"/>
      <point x="603" y="-14"/>
      <point x="775" y="62"/>
      <point x="775" y="215" type="curve" smooth="yes"/>
      <point x="775" y="379"/>
      <point x="582" y="401"/>
      <point x="575" y="402" type="curve"/>
      <point x="584" y="404"/>
      <point x="755" y="446"/>
      <point x="755" y="578" type="curve" smooth="yes"/>
    </contour>
    <contour>
      <point x="593" y="166"/>
      <point x="513" y="133"/>
      <point x="412" y="133" type="curve" smooth="yes"/>
      <point x="311" y="133"/>
      <point x="231" y="166"/>
      <point x="231" y="238" type="curve" smooth="yes"/>
      <point x="231" y="315"/>
      <point x="322" y="340"/>
      <point x="412" y="340" type="curve" smooth="yes"/>
      <point x="502" y="340"/>
      <point x="593" y="315"/>
      <point x="593" y="238" type="curve" smooth="yes"/>
    </contour>
    <contour>
      <point x="252" y="603"/>
      <point x="305" y="643"/>
      <point x="412" y="643" type="curve" smooth="yes"/>
      <point x="519" y="643"/>
      <point x="572" y="603"/>
      <point x="572" y="551" type="curve" smooth="yes"/>
      <point x="572" y="491"/>
      <point x="498" y="463"/>
      <point x="412" y="463" type="curve" smooth="yes"/>
      <point x="326" y="463"/>
      <point x="252" y="491"/>
      <point x="252" y="551" type="curve" smooth="yes"/>
    </contour>
  </outline>
</glyph>
<glyph name="nine" format="1">
  <advance width="798"/>
  <unicode hex="0039"/>
  <note>
    nine
  </note>
  <outline>
    <contour>
      <point x="50" y="235" type="line"/>
      <point x="60" y="162"/>
      <point x="127" y="-14"/>
      <point x="378" y="-14" type="curve" smooth="yes"/>
      <point x="631" y="-14"/>
      <point x="752" y="179"/>
      <point x="752" y="386" type="curve" smooth="yes"/>
      <point x="752" y="613"/>
      <point x="605" y="787"/>
      <point x="387" y="787" type="curve" smooth="yes"/>
      <point x="190" y="787"/>
      <point x="47" y="657"/>
      <point x="47" y="496" type="curve" smooth="yes"/>
      <point x="47" y="364"/>
      <point x="139" y="262"/>
      <point x="314" y="262" type="curve" smooth="yes"/>
      <point x="468" y="262"/>
      <point x="567" y="349"/>
      <point x="567" y="349" type="curve"/>
      <point x="567" y="238"/>
      <point x="519" y="130"/>
      <point x="376" y="130" type="curve" smooth="yes"/>
      <point x="249" y="130"/>
      <point x="221" y="235"/>
      <point x="221" y="235" type="curve" smooth="yes"/>
    </contour>
    <contour>
      <point x="269" y="373"/>
      <point x="230" y="437"/>
      <point x="230" y="502" type="curve" smooth="yes"/>
      <point x="230" y="577"/>
      <point x="291" y="639"/>
      <point x="386" y="639" type="curve" smooth="yes"/>
      <point x="562" y="639"/>
      <point x="567" y="427"/>
      <point x="567" y="427" type="curve" smooth="yes"/>
      <point x="567" y="427"/>
      <point x="494" y="373"/>
      <point x="390" y="373" type="curve" smooth="yes"/>
    </contour>
  </outline>
</glyph>
<glyph name="colon" format="1">
  <advance width="322"/>
  <unicode hex="003A"/>
  <note>
    colon
  </note>
  <outline>
    <contour>
      <point x="61" y="173" type="line"/>
      <point x="61" y="0" type="line"/>
      <point x="262" y="0" type="line"/>
      <point x="262" y="173" type="line"/>
    </contour>
    <contour>
      <point x="61" y="571" type="line"/>
      <point x="61" y="398" type="line"/>
      <point x="262" y="398" type="line"/>
      <point x="262" y="571" type="line"/>
    </contour>
  </outline>
</glyph>
<glyph name="semicolon" format="1">
  <advance width="306"/>
  <unicode hex="003B"/>
  <note>
    semicolon
  </note>
  <outline>
    <contour>
      <point x="53" y="571" type="line"/>
      <point x="53" y="398" type="line"/>
      <point x="254" y="398" type="line"/>
      <point x="254" y="571" type="line"/>
    </contour>
    <contour>
      <point x="53" y="173" type="line"/>
      <point x="53" y="0" type="line"/>
      <point x="173" y="0" type="line"/>
      <point x="173" y="-82"/>
      <point x="115" y="-94"/>
      <point x="56" y="-94" type="curve"/>
      <point x="56" y="-154" type="line"/>
      <point x="162" y="-154"/>
      <point x="254" y="-131"/>
      <point x="254" y="28" type="curve" smooth="yes"/>
      <point x="254" y="173" type="line"/>
    </contour>
  </outline>
</glyph>
<glyph name="less" format="1">
  <advance width="894"/>
  <unicode hex="003C"/>
  <note>
    less
  </note>
  <outline>
    <contour>
      <point x="66" y="258" type="line"/>
      <point x="109" y="258" type="line"/>
      <point x="109" y="704" type="line"/>
      <point x="813" y="0" type="line"/>
      <point x="843" y="30" type="line"/>
      <point x="139" y="734" type="line"/>
      <point x="585" y="734" type="line"/>
      <point x="585" y="777" type="line"/>
      <point x="66" y="777" type="line"/>
    </contour>
  </outline>
</glyph>
<glyph name="equal" format="1">
  <advance width="805"/>
  <unicode hex="003D"/>
  <note>
    equal
  </note>
  <outline>
    <contour>
      <point x="61" y="400" type="line"/>
      <point x="61" y="357" type="line"/>
      <point x="628" y="357" type="line"/>
      <point x="628" y="400" type="line"/>
    </contour>
    <contour>
      <point x="61" y="198" type="line"/>
      <point x="61" y="155" type="line"/>
      <point x="628" y="155" type="line"/>
      <point x="628" y="198" type="line"/>
    </contour>
  </outline>
</glyph>
<glyph name="question" format="1">
  <advance width="733"/>
  <unicode hex="003F"/>
  <note>
    question
  </note>
  <outline>
    <contour>
      <point x="701" y="679"/>
      <point x="611" y="788"/>
      <point x="399" y="788" type="curve" smooth="yes"/>
      <point x="119" y="788"/>
      <point x="35" y="574"/>
      <point x="35" y="574" type="curve"/>
      <point x="180" y="489" type="line"/>
      <point x="180" y="489"/>
      <point x="231" y="633"/>
      <point x="385" y="633" type="curve" smooth="yes"/>
      <point x="481" y="633"/>
      <point x="525" y="586"/>
      <point x="525" y="530" type="curve" smooth="yes"/>
      <point x="525" y="398"/>
      <point x="283" y="453"/>
      <point x="283" y="321" type="curve" smooth="yes"/>
      <point x="283" y="261" type="line"/>
      <point x="402" y="261" type="line"/>
      <point x="402" y="303" type="line" smooth="yes"/>
      <point x="402" y="381"/>
      <point x="701" y="353"/>
      <point x="701" y="579" type="curve" smooth="yes"/>
    </contour>
    <contour>
      <point x="243" y="173" type="line"/>
      <point x="243" y="0" type="line"/>
      <point x="444" y="0" type="line"/>
      <point x="444" y="173" type="line"/>
    </contour>
  </outline>
</glyph>
<glyph name="at" format="1">
  <advance width="1154"/>
  <unicode hex="0040"/>
  <note>
    at
  </note>
  <outline>
    <contour>
      <point x="829" y="651"/>
      <point x="1056" y="531"/>
      <point x="1056" y="271" type="curve" smooth="yes"/>
      <point x="1056" y="79"/>
      <point x="909" y="38"/>
      <point x="871" y="38" type="curve" smooth="yes"/>
      <point x="811" y="38"/>
      <point x="799" y="72"/>
      <point x="813" y="141" type="curve" smooth="yes"/>
      <point x="881" y="487" type="line"/>
      <point x="803" y="487" type="line"/>
      <point x="740" y="383" type="line"/>
      <point x="740" y="383"/>
      <point x="691" y="509"/>
      <point x="542" y="509" type="curve" smooth="yes"/>
      <point x="409" y="509"/>
      <point x="266" y="394"/>
      <point x="266" y="215" type="curve" smooth="yes"/>
      <point x="266" y="82"/>
      <point x="359" y="-14"/>
      <point x="488" y="-14" type="curve" smooth="yes"/>
      <point x="623" y="-14"/>
      <point x="682" y="102"/>
      <point x="682" y="102" type="curve"/>
      <point x="707" y="102" type="line"/>
      <point x="707" y="102"/>
      <point x="713" y="-14"/>
      <point x="849" y="-14" type="curve" smooth="yes"/>
      <point x="968" y="-14"/>
      <point x="1117" y="94"/>
      <point x="1117" y="273" type="curve" smooth="yes"/>
      <point x="1117" y="505"/>
      <point x="911" y="693"/>
      <point x="584" y="693" type="curve" smooth="yes"/>
      <point x="309" y="693"/>
      <point x="47" y="530"/>
      <point x="47" y="250" type="curve" smooth="yes"/>
      <point x="47" y="-156"/>
      <point x="532" y="-174"/>
      <point x="532" y="-174" type="curve"/>
      <point x="549" y="-128" type="line"/>
      <point x="549" y="-128"/>
      <point x="107" y="-121"/>
      <point x="107" y="252" type="curve" smooth="yes"/>
      <point x="107" y="491"/>
      <point x="329" y="651"/>
      <point x="584" y="651" type="curve" smooth="yes"/>
    </contour>
    <contour>
      <point x="675" y="374"/>
      <point x="708" y="314"/>
      <point x="708" y="314" type="curve"/>
      <point x="668" y="164" type="line"/>
      <point x="668" y="164"/>
      <point x="633" y="118"/>
      <point x="560" y="118" type="curve" smooth="yes"/>
      <point x="492" y="118"/>
      <point x="436" y="161"/>
      <point x="436" y="229" type="curve" smooth="yes"/>
      <point x="436" y="312"/>
      <point x="492" y="374"/>
      <point x="588" y="374" type="curve" smooth="yes"/>
    </contour>
  </outline>
</glyph>
<glyph name="B" format="1">
  <advance width="950"/>
  <unicode hex="0042"/>
  <note>
    B
  </note>
  <outline>
    <contour>
      <point x="78" y="777" type="line"/>
      <point x="78" y="0" type="line"/>
      <point x="561" y="0" type="line" smooth="yes"/>
      <point x="721" y="0"/>
      <point x="884" y="68"/>
      <point x="884" y="237" type="curve" smooth="yes"/>
      <point x="884" y="371"/>
      <point x="767" y="434"/>
      <point x="697" y="439" type="curve"/>
      <point x="705" y="441"/>
      <point x="857" y="482"/>
      <point x="857" y="600" type="curve" smooth="yes"/>
      <point x="857" y="706"/>
      <point x="758" y="777"/>
      <point x="555" y="777" type="curve" smooth="yes"/>
    </contour>
    <contour>
      <point x="252" y="144" type="line"/>
      <point x="252" y="329" type="line"/>
      <point x="542" y="329" type="line" smooth="yes"/>
      <point x="630" y="329"/>
      <point x="710" y="309"/>
      <point x="710" y="244" type="curve" smooth="yes"/>
      <point x="710" y="167"/>
      <point x="635" y="144"/>
      <point x="544" y="144" type="curve" smooth="yes"/>
    </contour>
    <contour>
      <point x="253" y="633" type="line"/>
      <point x="537" y="633" type="line" smooth="yes"/>
      <point x="625" y="633"/>
      <point x="683" y="614"/>
      <point x="683" y="554" type="curve" smooth="yes"/>
      <point x="683" y="491"/>
      <point x="628" y="471"/>
      <point x="578" y="471" type="curve" smooth="yes"/>
      <point x="253" y="471" type="line"/>
    </contour>
  </outline>
</glyph>
<glyph name="D" format="1">
  <advance width="922"/>
  <unicode hex="0044"/>
  <note>
    D
  </note>
  <outline>
    <contour>
      <point x="78" y="777" type="line"/>
      <point x="78" y="0" type="line"/>
      <point x="422" y="0" type="line" smooth="yes"/>
      <point x="685" y="0"/>
      <point x="860" y="163"/>
      <point x="860" y="387" type="curve" smooth="yes"/>
      <point x="860" y="611"/>
      <point x="685" y="777"/>
      <point x="422" y="777" type="curve" smooth="yes"/>
    </contour>
    <contour>
      <point x="251" y="148" type="line"/>
      <point x="251" y="633" type="line"/>
      <point x="422" y="632" type="line" smooth="yes"/>
      <point x="556" y="631"/>
      <point x="677" y="549"/>
      <point x="677" y="387" type="curve" smooth="yes"/>
      <point x="677" y="225"/>
      <point x="554" y="148"/>
      <point x="422" y="148" type="curve" smooth="yes"/>
    </contour>
  </outline>
</glyph>
<glyph name="E" format="1">
  <advance width="834"/>
  <unicode hex="0045"/>
  <note>
    E
  </note>
  <outline>
    <contour>
      <point x="78" y="0" type="line"/>
      <point x="760" y="0" type="line"/>
      <point x="760" y="144" type="line"/>
      <point x="251" y="144" type="line"/>
      <point x="251" y="328" type="line"/>
      <point x="679" y="328" type="line"/>
      <point x="679" y="471" type="line"/>
      <point x="251" y="471" type="line"/>
      <point x="251" y="633" type="line"/>
      <point x="733" y="633" type="line"/>
      <point x="733" y="777" type="line"/>
      <point x="78" y="777" type="line"/>
    </contour>
  </outline>
</glyph>
<glyph name="F" format="1">
  <advance width="760"/>
  <unicode hex="0046"/>
  <note>
    F
  </note>
  <outline>
    <contour>
      <point x="78" y="0" type="line"/>
      <point x="252" y="0" type="line"/>
      <point x="252" y="329" type="line"/>
      <point x="680" y="329" type="line"/>
      <point x="680" y="471" type="line"/>
      <point x="252" y="471" type="line"/>
      <point x="252" y="633" type="line"/>
      <point x="733" y="633" type="line"/>
      <point x="733" y="777" type="line"/>
      <point x="78" y="777" type="line"/>
    </contour>
  </outline>
</glyph>
<glyph name="G" format="1">
  <advance width="956"/>
  <unicode hex="0047"/>
  <note>
    G
  </note>
  <outline>
    <contour>
      <point x="448" y="235" type="line"/>
      <point x="688" y="235" type="line"/>
      <point x="688" y="235"/>
      <point x="638" y="134"/>
      <point x="487" y="134" type="curve" smooth="yes"/>
      <point x="357" y="134"/>
      <point x="243" y="225"/>
      <point x="243" y="387" type="curve" smooth="yes"/>
      <point x="243" y="539"/>
      <point x="341" y="633"/>
      <point x="489" y="633" type="curve" smooth="yes"/>
      <point x="701" y="633"/>
      <point x="715" y="433"/>
      <point x="715" y="433" type="curve"/>
      <point x="860" y="521" type="line"/>
      <point x="860" y="521"/>
      <point x="820" y="788"/>
      <point x="492" y="788" type="curve" smooth="yes"/>
      <point x="236" y="788"/>
      <point x="60" y="621"/>
      <point x="60" y="387" type="curve" smooth="yes"/>
      <point x="60" y="119"/>
      <point x="246" y="-14"/>
      <point x="434" y="-14" type="curve" smooth="yes"/>
      <point x="662" y="-14"/>
      <point x="735" y="170"/>
      <point x="739" y="179" type="curve"/>
      <point x="739" y="0" type="line"/>
      <point x="892" y="0" type="line"/>
      <point x="892" y="379" type="line"/>
      <point x="448" y="379" type="line"/>
    </contour>
  </outline>
</glyph>
<glyph name="H" format="1">
  <advance width="999"/>
  <unicode hex="0048"/>
  <note>
    H
  </note>
  <outline>
    <contour>
      <point x="747" y="0" type="line"/>
      <point x="921" y="0" type="line"/>
      <point x="921" y="777" type="line"/>
      <point x="747" y="777" type="line"/>
      <point x="747" y="471" type="line"/>
      <point x="251" y="471" type="line"/>
      <point x="251" y="777" type="line"/>
      <point x="78" y="777" type="line"/>
      <point x="78" y="0" type="line"/>
      <point x="251" y="0" type="line"/>
      <point x="251" y="329" type="line"/>
      <point x="747" y="329" type="line"/>
    </contour>
  </outline>
</glyph>
<glyph name="I" format="1">
  <advance width="328"/>
  <unicode hex="0049"/>
  <note>
    I
  </note>
  <outline>
    <contour>
      <point x="78" y="777" type="line"/>
      <point x="78" y="0" type="line"/>
      <point x="251" y="0" type="line"/>
      <point x="251" y="777" type="line"/>
    </contour>
  </outline>
</glyph>
<glyph name="J" format="1">
  <advance width="727"/>
  <unicode hex="004A"/>
  <note>
    J
  </note>
  <outline>
    <contour>
      <point x="23" y="329" type="line"/>
      <point x="23" y="103"/>
      <point x="119" y="-14"/>
      <point x="336" y="-14" type="curve" smooth="yes"/>
      <point x="557" y="-14"/>
      <point x="656" y="103"/>
      <point x="656" y="329" type="curve" smooth="yes"/>
      <point x="656" y="777" type="line"/>
      <point x="483" y="777" type="line"/>
      <point x="483" y="329" type="line" smooth="yes"/>
      <point x="483" y="212"/>
      <point x="441" y="144"/>
      <point x="336" y="144" type="curve" smooth="yes"/>
      <point x="234" y="144"/>
      <point x="194" y="212"/>
      <point x="194" y="329" type="curve"/>
    </contour>
  </outline>
</glyph>
<glyph name="K" format="1">
  <advance width="913"/>
  <unicode hex="004B"/>
  <note>
    K
  </note>
  <outline>
    <contour>
      <point x="609" y="777" type="line"/>
      <point x="254" y="426" type="line"/>
      <point x="254" y="777" type="line"/>
      <point x="78" y="777" type="line"/>
      <point x="78" y="0" type="line"/>
      <point x="252" y="0" type="line"/>
      <point x="252" y="240" type="line"/>
      <point x="342" y="325" type="line"/>
      <point x="643" y="0" type="line"/>
      <point x="856" y="0" type="line"/>
      <point x="460" y="428" type="line"/>
      <point x="815" y="777" type="line"/>
    </contour>
  </outline>
</glyph>
<glyph name="L" format="1">
  <advance width="730"/>
  <unicode hex="004C"/>
  <note>
    L
  </note>
  <outline>
    <contour>
      <point x="78" y="0" type="line"/>
      <point x="706" y="0" type="line"/>
      <point x="706" y="144" type="line"/>
      <point x="251" y="144" type="line"/>
      <point x="251" y="777" type="line"/>
      <point x="78" y="777" type="line"/>
    </contour>
  </outline>
</glyph>
<glyph name="M" format="1">
  <advance width="1094"/>
  <unicode hex="004D"/>
  <note>
    M
  </note>
  <outline>
    <contour>
      <point x="1016" y="0" type="line"/>
      <point x="849" y="0" type="line"/>
      <point x="849" y="368" type="line"/>
      <point x="546" y="58" type="line"/>
      <point x="246" y="364" type="line"/>
      <point x="246" y="0" type="line"/>
      <point x="78" y="0" type="line"/>
      <point x="78" y="788" type="line"/>
      <point x="546" y="299" type="line"/>
      <point x="1016" y="788" type="line"/>
    </contour>
  </outline>
</glyph>
<glyph name="N" format="1">
  <advance width="936"/>
  <unicode hex="004E"/>
  <note>
    N
  </note>
  <outline>
    <contour>
      <point x="776" y="264" type="line"/>
      <point x="78" y="792" type="line"/>
      <point x="110" y="546" type="line"/>
      <point x="858" y="-8" type="line"/>
    </contour>
    <contour>
      <point x="251" y="0" type="line"/>
      <point x="251" y="506" type="line"/>
      <point x="78" y="792" type="line"/>
      <point x="78" y="0" type="line"/>
    </contour>
    <contour>
      <point x="858" y="777" type="line"/>
      <point x="684" y="777" type="line"/>
      <point x="684" y="183" type="line"/>
      <point x="858" y="-8" type="line"/>
    </contour>
  </outline>
</glyph>
<glyph name="O" format="1">
  <advance width="996"/>
  <unicode hex="004F"/>
  <note>
    O
  </note>
  <outline>
    <contour>
      <point x="59" y="163"/>
      <point x="236" y="-14"/>
      <point x="499" y="-14" type="curve" smooth="yes"/>
      <point x="762" y="-14"/>
      <point x="937" y="163"/>
      <point x="937" y="387" type="curve" smooth="yes"/>
      <point x="937" y="611"/>
      <point x="762" y="788"/>
      <point x="499" y="788" type="curve" smooth="yes"/>
      <point x="236" y="788"/>
      <point x="59" y="611"/>
      <point x="59" y="387" type="curve" smooth="yes"/>
    </contour>
    <contour>
      <point x="242" y="549"/>
      <point x="363" y="643"/>
      <point x="499" y="643" type="curve" smooth="yes"/>
      <point x="633" y="643"/>
      <point x="754" y="549"/>
      <point x="754" y="387" type="curve" smooth="yes"/>
      <point x="754" y="225"/>
      <point x="631" y="134"/>
      <point x="499" y="134" type="curve" smooth="yes"/>
      <point x="363" y="134"/>
      <point x="242" y="225"/>
      <point x="242" y="387" type="curve" smooth="yes"/>
    </contour>
  </outline>
</glyph>
<glyph name="Q" format="1">
  <advance width="999"/>
  <unicode hex="0051"/>
  <note>
    Q
  </note>
  <outline>
    <contour>
      <point x="539" y="-3" type="line"/>
      <point x="539" y="-3"/>
      <point x="533" y="-6"/>
      <point x="527" y="-13" type="curve"/>
      <point x="777" y="2"/>
      <point x="936" y="164"/>
      <point x="936" y="387" type="curve" smooth="yes"/>
      <point x="936" y="621"/>
      <point x="761" y="788"/>
      <point x="488" y="788" type="curve" smooth="yes"/>
      <point x="215" y="788"/>
      <point x="38" y="621"/>
      <point x="38" y="387" type="curve" smooth="yes"/>
      <point x="38" y="153"/>
      <point x="215" y="-14"/>
      <point x="488" y="-14" type="curve" smooth="yes"/>
      <point x="501" y="-14"/>
      <point x="514" y="-14"/>
      <point x="527" y="-13" type="curve"/>
      <point x="517" y="-24"/>
      <point x="505" y="-46"/>
      <point x="505" y="-83" type="curve" smooth="yes"/>
      <point x="505" y="-161"/>
      <point x="573" y="-222"/>
      <point x="691" y="-222" type="curve" smooth="yes"/>
      <point x="788" y="-222"/>
      <point x="833" y="-204"/>
      <point x="833" y="-204" type="curve"/>
      <point x="833" y="-57" type="line"/>
      <point x="833" y="-57"/>
      <point x="784" y="-73"/>
      <point x="712" y="-73" type="curve" smooth="yes"/>
      <point x="652" y="-73"/>
      <point x="600" y="-62"/>
      <point x="600" y="-29" type="curve" smooth="yes"/>
      <point x="600" y="-4"/>
      <point x="626" y="2"/>
      <point x="629" y="3" type="curve"/>
    </contour>
    <contour>
      <point x="221" y="539"/>
      <point x="332" y="633"/>
      <point x="488" y="633" type="curve" smooth="yes"/>
      <point x="642" y="633"/>
      <point x="753" y="539"/>
      <point x="753" y="387" type="curve" smooth="yes"/>
      <point x="753" y="235"/>
      <point x="640" y="144"/>
      <point x="488" y="144" type="curve" smooth="yes"/>
      <point x="332" y="144"/>
      <point x="221" y="235"/>
      <point x="221" y="387" type="curve" smooth="yes"/>
    </contour>
  </outline>
</glyph>
<glyph name="R" format="1">
  <advance width="955"/>
  <unicode hex="0052"/>
  <note>
    R
  </note>
  <outline>
    <contour>
      <point x="252" y="0" type="line"/>
      <point x="252" y="308" type="line"/>
      <point x="515" y="308" type="line" smooth="yes"/>
      <point x="727" y="308"/>
      <point x="857" y="398"/>
      <point x="857" y="540" type="curve" smooth="yes"/>
      <point x="857" y="686"/>
      <point x="726" y="777"/>
      <point x="515" y="777" type="curve"/>
      <point x="78" y="777" type="line"/>
      <point x="78" y="0" type="line"/>
    </contour>
    <contour>
      <point x="895" y="0" type="line"/>
      <point x="819" y="27"/>
      <point x="752" y="312"/>
      <point x="574" y="312" type="curve"/>
      <point x="351" y="308" type="line"/>
      <point x="578" y="308"/>
      <point x="595" y="25"/>
      <point x="671" y="0" type="curve"/>
    </contour>
    <contour>
      <point x="253" y="633" type="line"/>
      <point x="515" y="633" type="line" smooth="yes"/>
      <point x="611" y="633"/>
      <point x="684" y="603"/>
      <point x="684" y="542" type="curve" smooth="yes"/>
      <point x="684" y="481"/>
      <point x="611" y="451"/>
      <point x="514" y="451" type="curve" smooth="yes"/>
      <point x="253" y="451" type="line"/>
    </contour>
  </outline>
</glyph>
<glyph name="S" format="1">
  <advance width="869"/>
  <unicode hex="0053"/>
  <note>
    S
  </note>
  <outline>
    <contour>
      <point x="288" y="604"/>
      <point x="332" y="633"/>
      <point x="402" y="633" type="curve" smooth="yes"/>
      <point x="569" y="633"/>
      <point x="613" y="489"/>
      <point x="613" y="489" type="curve"/>
      <point x="758" y="574" type="line"/>
      <point x="758" y="574"/>
      <point x="674" y="788"/>
      <point x="404" y="788" type="curve" smooth="yes"/>
      <point x="255" y="788"/>
      <point x="111" y="698"/>
      <point x="111" y="559" type="curve" smooth="yes"/>
      <point x="111" y="273"/>
      <point x="636" y="395"/>
      <point x="636" y="225" type="curve" smooth="yes"/>
      <point x="636" y="171"/>
      <point x="562" y="144"/>
      <point x="472" y="144" type="curve" smooth="yes"/>
      <point x="262" y="144"/>
      <point x="203" y="313"/>
      <point x="203" y="313" type="curve"/>
      <point x="51" y="242" type="line"/>
      <point x="51" y="242"/>
      <point x="132" y="-13"/>
      <point x="477" y="-13" type="curve" smooth="yes"/>
      <point x="647" y="-13"/>
      <point x="815" y="69"/>
      <point x="815" y="223" type="curve" smooth="yes"/>
      <point x="815" y="523"/>
      <point x="288" y="402"/>
      <point x="288" y="560" type="curve" smooth="yes"/>
    </contour>
  </outline>
</glyph>
<glyph name="T" format="1">
  <advance width="924"/>
  <unicode hex="0054"/>
  <note>
    T
  </note>
  <outline>
    <contour>
      <point x="883" y="777" type="line"/>
      <point x="41" y="777" type="line"/>
      <point x="41" y="633" type="line"/>
      <point x="375" y="633" type="line"/>
      <point x="375" y="0" type="line"/>
      <point x="549" y="0" type="line"/>
      <point x="549" y="633" type="line"/>
      <point x="883" y="633" type="line"/>
    </contour>
  </outline>
</glyph>
<glyph name="U" format="1">
  <advance width="911"/>
  <unicode hex="0055"/>
  <note>
    U
  </note>
  <outline>
    <contour>
      <point x="73" y="777" type="line"/>
      <point x="73" y="400" type="line" smooth="yes"/>
      <point x="73" y="163"/>
      <point x="161" y="-14"/>
      <point x="456" y="-14" type="curve" smooth="yes"/>
      <point x="751" y="-14"/>
      <point x="839" y="163"/>
      <point x="839" y="400" type="curve" smooth="yes"/>
      <point x="839" y="777" type="line"/>
      <point x="665" y="777" type="line"/>
      <point x="665" y="400" type="line" smooth="yes"/>
      <point x="665" y="272"/>
      <point x="617" y="144"/>
      <point x="456" y="144" type="curve" smooth="yes"/>
      <point x="295" y="144"/>
      <point x="247" y="272"/>
      <point x="247" y="400" type="curve" smooth="yes"/>
      <point x="247" y="777" type="line"/>
    </contour>
  </outline>
</glyph>
<glyph name="V" format="1">
  <advance width="984"/>
  <unicode hex="0056"/>
  <note>
    V
  </note>
  <outline>
    <contour>
      <point x="492" y="-15" type="line"/>
      <point x="969" y="777" type="line"/>
      <point x="767" y="777" type="line"/>
      <point x="492" y="283" type="line"/>
      <point x="217" y="777" type="line"/>
      <point x="15" y="777" type="line"/>
    </contour>
  </outline>
</glyph>
<glyph name="W" format="1">
  <advance width="1316"/>
  <unicode hex="0057"/>
  <note>
    W
  </note>
  <outline>
    <contour>
      <point x="440" y="-15" type="line"/>
      <point x="715" y="494" type="line"/>
      <point x="658" y="704" type="line"/>
      <point x="440" y="320" type="line"/>
      <point x="213" y="777" type="line"/>
      <point x="15" y="777" type="line"/>
    </contour>
    <contour>
      <point x="1103" y="777" type="line"/>
      <point x="876" y="320" type="line"/>
      <point x="658" y="704" type="line"/>
      <point x="601" y="494" type="line"/>
      <point x="876" y="-15" type="line"/>
      <point x="1301" y="777" type="line"/>
    </contour>
  </outline>
</glyph>
<glyph name="X" format="1">
  <advance width="942"/>
  <unicode hex="0058"/>
  <note>
    X
  </note>
  <outline>
    <contour>
      <point x="708" y="0" type="line"/>
      <point x="927" y="0" type="line"/>
      <point x="580" y="394" type="line"/>
      <point x="912" y="777" type="line"/>
      <point x="681" y="777" type="line"/>
      <point x="473" y="508" type="line"/>
      <point x="260" y="777" type="line"/>
      <point x="29" y="777" type="line"/>
      <point x="368" y="399" type="line"/>
      <point x="15" y="0" type="line"/>
      <point x="234" y="0" type="line"/>
      <point x="474" y="285" type="line"/>
    </contour>
  </outline>
</glyph>
<glyph name="Y" format="1">
  <advance width="873"/>
  <unicode hex="0059"/>
  <note>
    Y
  </note>
  <outline>
    <contour>
      <point x="848" y="777" type="line"/>
      <point x="622" y="777" type="line"/>
      <point x="437" y="470" type="line"/>
      <point x="250" y="777" type="line"/>
      <point x="25" y="777" type="line"/>
      <point x="350" y="329" type="line"/>
      <point x="350" y="0" type="line"/>
      <point x="524" y="0" type="line"/>
      <point x="524" y="329" type="line"/>
    </contour>
  </outline>
</glyph>
<glyph name="Z" format="1">
  <advance width="858"/>
  <unicode hex="005A"/>
  <note>
    Z
  </note>
  <outline>
    <contour>
      <point x="781" y="144" type="line"/>
      <point x="346" y="144" type="line"/>
      <point x="781" y="777" type="line"/>
      <point x="113" y="777" type="line"/>
      <point x="113" y="633" type="line"/>
      <point x="494" y="633" type="line"/>
      <point x="72" y="0" type="line"/>
      <point x="781" y="0" type="line"/>
    </contour>
  </outline>
</glyph>
<glyph name="bracketleft" format="1">
  <advance width="316"/>
  <unicode hex="005B"/>
  <note>
    bracketleft
  </note>
  <outline>
    <contour>
      <point x="301" y="-143" type="line"/>
      <point x="104" y="-143" type="line"/>
      <point x="104" y="895" type="line"/>
      <point x="301" y="895" type="line"/>
      <point x="301" y="938" type="line"/>
      <point x="61" y="938" type="line"/>
      <point x="61" y="-186" type="line"/>
      <point x="301" y="-186" type="line"/>
    </contour>
  </outline>
</glyph>
<glyph name="backslash" format="1">
  <advance width="396"/>
  <unicode hex="005C"/>
  <note>
    backslash
  </note>
  <outline>
    <contour>
      <point x="378" y="-197" type="line"/>
      <point x="59" y="996" type="line"/>
      <point x="17" y="986" type="line"/>
      <point x="336" y="-207" type="line"/>
    </contour>
  </outline>
</glyph>
<glyph name="bracketright" format="1">
  <advance width="315"/>
  <unicode hex="005D"/>
  <note>
    bracketright
  </note>
  <outline>
    <contour>
      <point x="15" y="-186" type="line"/>
      <point x="255" y="-186" type="line"/>
      <point x="255" y="938" type="line"/>
      <point x="15" y="938" type="line"/>
      <point x="15" y="895" type="line"/>
      <point x="211" y="895" type="line"/>
      <point x="211" y="-143" type="line"/>
      <point x="15" y="-143" type="line"/>
    </contour>
  </outline>
</glyph>
<glyph name="underscore" format="1">
  <advance width="1138"/>
  <unicode hex="005F"/>
  <note>
    underscore
  </note>
  <outline>
    <contour>
      <point x="61" y="-136" type="line"/>
      <point x="1077" y="-136" type="line"/>
      <point x="1077" y="-92" type="line"/>
      <point x="61" y="-92" type="line"/>
    </contour>
  </outline>
</glyph>
<glyph name="grave" format="1">
  <advance width="351"/>
  <unicode hex="0060"/>
  <note>
    grave
  </note>
  <outline>
    <contour>
      <point x="23" y="779" type="line"/>
      <point x="294" y="603" type="line"/>
      <point x="325" y="635" type="line"/>
      <point x="111" y="874" type="line"/>
    </contour>
  </outline>
</glyph>
<glyph name="a" format="1">
  <advance width="728"/>
  <unicode hex="0061"/>
  <note>
    a
  </note>
  <outline>
    <contour>
      <point x="579" y="355" type="line" smooth="yes"/>
      <point x="579" y="464"/>
      <point x="514" y="578"/>
      <point x="354" y="578" type="curve" smooth="yes"/>
      <point x="163" y="578"/>
      <point x="91" y="421"/>
      <point x="91" y="421" type="curve"/>
      <point x="206" y="342" type="line"/>
      <point x="206" y="342"/>
      <point x="239" y="444"/>
      <point x="339" y="444" type="curve" smooth="yes"/>
      <point x="409" y="444"/>
      <point x="423" y="399"/>
      <point x="425" y="370" type="curve" smooth="yes"/>
      <point x="427" y="345" type="line"/>
      <point x="158" y="337"/>
      <point x="75" y="205"/>
      <point x="75" y="115" type="curve" smooth="yes"/>
      <point x="75" y="37"/>
      <point x="124" y="-14"/>
      <point x="205" y="-14" type="curve" smooth="yes"/>
      <point x="366" y="-14"/>
      <point x="440" y="188"/>
      <point x="444" y="198" type="curve"/>
      <point x="442" y="111" type="line" smooth="yes"/>
      <point x="440" y="23"/>
      <point x="498" y="-14"/>
      <point x="568" y="-14" type="curve" smooth="yes"/>
      <point x="669" y="-14"/>
      <point x="712" y="68"/>
      <point x="712" y="68" type="curve"/>
      <point x="675" y="177" type="line"/>
      <point x="675" y="177"/>
      <point x="648" y="117"/>
      <point x="611" y="117" type="curve" smooth="yes"/>
      <point x="584" y="117"/>
      <point x="579" y="141"/>
      <point x="579" y="165" type="curve" smooth="yes"/>
    </contour>
    <contour>
      <point x="234" y="198"/>
      <point x="254" y="265"/>
      <point x="432" y="295" type="curve"/>
      <point x="432" y="277" type="line"/>
      <point x="432" y="277"/>
      <point x="376" y="117"/>
      <point x="282" y="117" type="curve" smooth="yes"/>
      <point x="247" y="117"/>
      <point x="234" y="138"/>
      <point x="234" y="163" type="curve" smooth="yes"/>
    </contour>
  </outline>
</glyph>
<glyph name="b" format="1">
  <advance width="710"/>
  <unicode hex="0062"/>
  <note>
    b
  </note>
  <outline>
    <contour>
      <point x="78" y="0" type="line"/>
      <point x="150" y="0" type="line"/>
      <point x="229" y="148" type="line"/>
      <point x="229" y="148"/>
      <point x="273" y="-14"/>
      <point x="435" y="-14" type="curve" smooth="yes"/>
      <point x="582" y="-14"/>
      <point x="671" y="107"/>
      <point x="671" y="282" type="curve" smooth="yes"/>
      <point x="671" y="456"/>
      <point x="575" y="578"/>
      <point x="433" y="578" type="curve" smooth="yes"/>
      <point x="285" y="578"/>
      <point x="241" y="444"/>
      <point x="241" y="444" type="curve"/>
      <point x="241" y="777" type="line"/>
      <point x="241" y="777"/>
      <point x="161" y="761"/>
      <point x="78" y="761" type="curve"/>
    </contour>
    <contour>
      <point x="241" y="331" type="line"/>
      <point x="241" y="331"/>
      <point x="262" y="444"/>
      <point x="363" y="444" type="curve" smooth="yes"/>
      <point x="454" y="444"/>
      <point x="501" y="381"/>
      <point x="501" y="282" type="curve" smooth="yes"/>
      <point x="501" y="167"/>
      <point x="443" y="117"/>
      <point x="366" y="117" type="curve" smooth="yes"/>
      <point x="267" y="117"/>
      <point x="241" y="221"/>
      <point x="241" y="221" type="curve"/>
    </contour>
  </outline>
</glyph>
<glyph name="c" format="1">
  <advance width="691"/>
  <unicode hex="0063"/>
  <note>
    c
  </note>
  <outline>
    <contour>
      <point x="496" y="218" type="line" smooth="yes"/>
      <point x="496" y="218"/>
      <point x="478" y="117"/>
      <point x="361" y="117" type="curve" smooth="yes"/>
      <point x="277" y="117"/>
      <point x="222" y="182"/>
      <point x="222" y="282" type="curve" smooth="yes"/>
      <point x="222" y="375"/>
      <point x="275" y="444"/>
      <point x="361" y="444" type="curve" smooth="yes"/>
      <point x="461" y="444"/>
      <point x="470" y="341"/>
      <point x="470" y="341" type="curve"/>
      <point x="602" y="421" type="line"/>
      <point x="602" y="421"/>
      <point x="563" y="578"/>
      <point x="364" y="578" type="curve" smooth="yes"/>
      <point x="157" y="578"/>
      <point x="59" y="417"/>
      <point x="59" y="280" type="curve" smooth="yes"/>
      <point x="59" y="103"/>
      <point x="184" y="-14"/>
      <point x="358" y="-14" type="curve" smooth="yes"/>
      <point x="577" y="-14"/>
      <point x="640" y="147"/>
      <point x="640" y="218" type="curve"/>
    </contour>
  </outline>
</glyph>
<glyph name="d" format="1">
  <advance width="709"/>
  <unicode hex="0064"/>
  <note>
    d
  </note>
  <outline>
    <contour>
      <point x="632" y="777" type="line"/>
      <point x="553" y="761"/>
      <point x="469" y="761"/>
      <point x="469" y="761" type="curve"/>
      <point x="469" y="444" type="line"/>
      <point x="469" y="444"/>
      <point x="425" y="578"/>
      <point x="277" y="578" type="curve" smooth="yes"/>
      <point x="135" y="578"/>
      <point x="39" y="456"/>
      <point x="39" y="282" type="curve" smooth="yes"/>
      <point x="39" y="107"/>
      <point x="128" y="-14"/>
      <point x="275" y="-14" type="curve" smooth="yes"/>
      <point x="437" y="-14"/>
      <point x="481" y="148"/>
      <point x="481" y="148" type="curve"/>
      <point x="560" y="0" type="line"/>
      <point x="632" y="0" type="line"/>
    </contour>
    <contour>
      <point x="469" y="221" type="line"/>
      <point x="469" y="221"/>
      <point x="443" y="117"/>
      <point x="344" y="117" type="curve" smooth="yes"/>
      <point x="267" y="117"/>
      <point x="209" y="167"/>
      <point x="209" y="282" type="curve" smooth="yes"/>
      <point x="209" y="381"/>
      <point x="256" y="444"/>
      <point x="347" y="444" type="curve" smooth="yes"/>
      <point x="448" y="444"/>
      <point x="469" y="331"/>
      <point x="469" y="331" type="curve"/>
    </contour>
  </outline>
</glyph>
<glyph name="f" format="1">
  <advance width="493"/>
  <unicode hex="0066"/>
  <note>
    f
  </note>
  <outline>
    <contour>
      <point x="459" y="555" type="line"/>
      <point x="253" y="555" type="line" smooth="yes"/>
      <point x="253" y="555"/>
      <point x="233" y="573"/>
      <point x="233" y="602" type="curve" smooth="yes"/>
      <point x="233" y="629"/>
      <point x="254" y="654"/>
      <point x="299" y="654" type="curve" smooth="yes"/>
      <point x="372" y="654"/>
      <point x="421" y="593"/>
      <point x="421" y="593" type="curve"/>
      <point x="553" y="672" type="line"/>
      <point x="553" y="672"/>
      <point x="471" y="788"/>
      <point x="305" y="788" type="curve" smooth="yes"/>
      <point x="203" y="788"/>
      <point x="112" y="740"/>
      <point x="112" y="650" type="curve" smooth="yes"/>
      <point x="112" y="590"/>
      <point x="163" y="555"/>
      <point x="163" y="555" type="curve" smooth="yes"/>
      <point x="48" y="555" type="line"/>
      <point x="48" y="444" type="line"/>
      <point x="140" y="444" type="line"/>
      <point x="140" y="0" type="line"/>
      <point x="303" y="0" type="line"/>
      <point x="303" y="444" type="line"/>
      <point x="459" y="444" type="line"/>
    </contour>
  </outline>
</glyph>
<glyph name="g" format="1">
  <advance width="725"/>
  <unicode hex="0067"/>
  <note>
    g
  </note>
  <outline>
    <contour>
      <point x="491" y="555"/>
      <point x="430" y="578"/>
      <point x="356" y="578" type="curve" smooth="yes"/>
      <point x="151" y="578"/>
      <point x="71" y="469"/>
      <point x="71" y="367" type="curve" smooth="yes"/>
      <point x="71" y="248"/>
      <point x="162" y="213"/>
      <point x="162" y="213" type="curve" smooth="yes"/>
      <point x="162" y="213"/>
      <point x="59" y="201"/>
      <point x="59" y="109" type="curve" smooth="yes"/>
      <point x="59" y="35"/>
      <point x="128" y="11"/>
      <point x="184" y="-1" type="curve"/>
      <point x="184" y="-1"/>
      <point x="45" y="-18"/>
      <point x="45" y="-106" type="curve" smooth="yes"/>
      <point x="45" y="-157"/>
      <point x="84" y="-233"/>
      <point x="274" y="-233" type="curve" smooth="yes"/>
      <point x="391" y="-233" type="line" smooth="yes"/>
      <point x="599" y="-233"/>
      <point x="673" y="-148"/>
      <point x="673" y="-63" type="curve" smooth="yes"/>
      <point x="673" y="16"/>
      <point x="612" y="94"/>
      <point x="464" y="94" type="curve" smooth="yes"/>
      <point x="279" y="94" type="line" smooth="yes"/>
      <point x="216" y="94"/>
      <point x="173" y="102"/>
      <point x="173" y="138" type="curve" smooth="yes"/>
      <point x="173" y="180"/>
      <point x="220" y="186"/>
      <point x="220" y="186" type="curve" smooth="yes"/>
      <point x="220" y="186"/>
      <point x="262" y="164"/>
      <point x="359" y="164" type="curve" smooth="yes"/>
      <point x="531" y="164"/>
      <point x="641" y="238"/>
      <point x="641" y="366" type="curve" smooth="yes"/>
      <point x="641" y="421"/>
      <point x="598" y="496"/>
      <point x="542" y="530" type="curve"/>
      <point x="542" y="530"/>
      <point x="565" y="545"/>
      <point x="603" y="545" type="curve" smooth="yes"/>
      <point x="647" y="545"/>
      <point x="680" y="524"/>
      <point x="680" y="524" type="curve"/>
      <point x="680" y="645" type="line"/>
      <point x="680" y="645"/>
      <point x="655" y="660"/>
      <point x="615" y="660" type="curve" smooth="yes"/>
      <point x="513" y="660"/>
      <point x="491" y="555"/>
      <point x="491" y="555" type="curve" smooth="yes"/>
    </contour>
    <contour>
      <point x="477" y="-30"/>
      <point x="504" y="-51"/>
      <point x="504" y="-86" type="curve" smooth="yes"/>
      <point x="504" y="-126"/>
      <point x="467" y="-154"/>
      <point x="353" y="-154" type="curve" smooth="yes"/>
      <point x="243" y="-154"/>
      <point x="206" y="-122"/>
      <point x="206" y="-72" type="curve" smooth="yes"/>
      <point x="206" y="-23"/>
      <point x="254" y="-16"/>
      <point x="254" y="-16" type="curve"/>
      <point x="269" y="-26"/>
      <point x="328" y="-30"/>
      <point x="423" y="-30" type="curve" smooth="yes"/>
    </contour>
    <contour>
      <point x="240" y="422"/>
      <point x="271" y="479"/>
      <point x="356" y="479" type="curve" smooth="yes"/>
      <point x="441" y="479"/>
      <point x="471" y="422"/>
      <point x="471" y="369" type="curve" smooth="yes"/>
      <point x="471" y="318"/>
      <point x="441" y="261"/>
      <point x="356" y="261" type="curve" smooth="yes"/>
      <point x="271" y="261"/>
      <point x="240" y="318"/>
      <point x="240" y="369" type="curve" smooth="yes"/>
    </contour>
  </outline>
</glyph>
<glyph name="h" format="1">
  <advance width="718"/>
  <unicode hex="0068"/>
  <note>
    h
  </note>
  <outline>
    <contour>
      <point x="243" y="777" type="line"/>
      <point x="243" y="777"/>
      <point x="168" y="760"/>
      <point x="78" y="760" type="curve"/>
      <point x="78" y="0" type="line"/>
      <point x="242" y="0" type="line"/>
      <point x="242" y="339" type="line"/>
      <point x="250" y="368"/>
      <point x="292" y="444"/>
      <point x="381" y="444" type="curve" smooth="yes"/>
      <point x="444" y="444"/>
      <point x="483" y="402"/>
      <point x="483" y="336" type="curve" smooth="yes"/>
      <point x="483" y="0" type="line"/>
      <point x="645" y="0" type="line"/>
      <point x="645" y="338" type="line" smooth="yes"/>
      <point x="645" y="480"/>
      <point x="576" y="578"/>
      <point x="446" y="578" type="curve" smooth="yes"/>
      <point x="327" y="578"/>
      <point x="267" y="484"/>
      <point x="242" y="432" type="curve"/>
    </contour>
  </outline>
</glyph>
<glyph name="i" format="1">
  <advance width="313"/>
  <unicode hex="0069"/>
  <note>
    i
  </note>
  <outline>
    <contour>
      <point x="76" y="0" type="line"/>
      <point x="238" y="0" type="line"/>
      <point x="238" y="555" type="line"/>
      <point x="76" y="555" type="line"/>
    </contour>
    <contour>
      <point x="76" y="662" type="line"/>
      <point x="238" y="662" type="line"/>
      <point x="238" y="777" type="line"/>
      <point x="76" y="777" type="line"/>
    </contour>
  </outline>
</glyph>
<glyph name="j" format="1">
  <advance width="377"/>
  <unicode hex="006A"/>
  <note>
    j
  </note>
  <outline>
    <contour>
      <point x="152" y="9" type="line" smooth="yes"/>
      <point x="152" y="-64"/>
      <point x="152" y="-103"/>
      <point x="97" y="-103" type="curve" smooth="yes"/>
      <point x="57" y="-103"/>
      <point x="27" y="-79"/>
      <point x="27" y="-79" type="curve"/>
      <point x="27" y="-205" type="line"/>
      <point x="27" y="-205"/>
      <point x="65" y="-233"/>
      <point x="140" y="-233" type="curve" smooth="yes"/>
      <point x="224" y="-233"/>
      <point x="314" y="-188"/>
      <point x="314" y="3" type="curve" smooth="yes"/>
      <point x="314" y="555" type="line"/>
      <point x="152" y="555" type="line"/>
    </contour>
    <contour>
      <point x="152" y="662" type="line"/>
      <point x="314" y="662" type="line"/>
      <point x="314" y="777" type="line"/>
      <point x="152" y="777" type="line"/>
    </contour>
  </outline>
</glyph>
<glyph name="k" format="1">
  <advance width="692"/>
  <unicode hex="006B"/>
  <note>
    k
  </note>
  <outline>
    <contour>
      <point x="78" y="0" type="line"/>
      <point x="241" y="0" type="line"/>
      <point x="241" y="192" type="line"/>
      <point x="283" y="233" type="line"/>
      <point x="491" y="0" type="line"/>
      <point x="697" y="0" type="line"/>
      <point x="381" y="316" type="line"/>
      <point x="633" y="555" type="line"/>
      <point x="428" y="555" type="line"/>
      <point x="241" y="355" type="line"/>
      <point x="241" y="777" type="line"/>
      <point x="241" y="777"/>
      <point x="169" y="760"/>
      <point x="78" y="760" type="curve"/>
    </contour>
  </outline>
</glyph>
<glyph name="l" format="1">
  <advance width="317"/>
  <unicode hex="006C"/>
  <note>
    l
  </note>
  <outline>
    <contour>
      <point x="78" y="0" type="line"/>
      <point x="240" y="0" type="line"/>
      <point x="240" y="777" type="line"/>
      <point x="240" y="777"/>
      <point x="168" y="760"/>
      <point x="78" y="760" type="curve"/>
    </contour>
  </outline>
</glyph>
<glyph name="m" format="1">
  <advance width="1073"/>
  <unicode hex="006D"/>
  <note>
    m
  </note>
  <outline>
    <contour>
      <point x="834" y="0" type="line"/>
      <point x="996" y="0" type="line"/>
      <point x="996" y="337" type="line" smooth="yes"/>
      <point x="999" y="499"/>
      <point x="909" y="577"/>
      <point x="801" y="577" type="curve" smooth="yes"/>
      <point x="645" y="577"/>
      <point x="609" y="428"/>
      <point x="608" y="420" type="curve"/>
      <point x="606" y="428"/>
      <point x="579" y="578"/>
      <point x="427" y="578" type="curve" smooth="yes"/>
      <point x="258" y="578"/>
      <point x="228" y="406"/>
      <point x="228" y="406" type="curve"/>
      <point x="148" y="555" type="line"/>
      <point x="77" y="555" type="line"/>
      <point x="77" y="0" type="line"/>
      <point x="240" y="0" type="line"/>
      <point x="240" y="327" type="line"/>
      <point x="247" y="365"/>
      <point x="285" y="444"/>
      <point x="367" y="444" type="curve" smooth="yes"/>
      <point x="423" y="444"/>
      <point x="455" y="400"/>
      <point x="455" y="336" type="curve" smooth="yes"/>
      <point x="455" y="0" type="line"/>
      <point x="618" y="0" type="line"/>
      <point x="618" y="332" type="line" smooth="yes"/>
      <point x="618" y="341"/>
      <point x="644" y="444"/>
      <point x="743" y="444" type="curve" smooth="yes"/>
      <point x="798" y="444"/>
      <point x="834" y="407"/>
      <point x="834" y="347" type="curve" smooth="yes"/>
    </contour>
  </outline>
</glyph>
<glyph name="n" format="1">
  <advance width="716"/>
  <unicode hex="006E"/>
  <note>
    n
  </note>
  <outline>
    <contour>
      <point x="481" y="0" type="line"/>
      <point x="643" y="0" type="line"/>
      <point x="643" y="338" type="line" smooth="yes"/>
      <point x="643" y="480"/>
      <point x="574" y="578"/>
      <point x="434" y="578" type="curve" smooth="yes"/>
      <point x="258" y="578"/>
      <point x="227" y="407"/>
      <point x="227" y="407" type="curve"/>
      <point x="148" y="555" type="line"/>
      <point x="77" y="555" type="line"/>
      <point x="77" y="0" type="line"/>
      <point x="239" y="0" type="line"/>
      <point x="239" y="331" type="line" smooth="yes"/>
      <point x="239" y="348"/>
      <point x="277" y="444"/>
      <point x="377" y="444" type="curve" smooth="yes"/>
      <point x="440" y="444"/>
      <point x="481" y="402"/>
      <point x="481" y="336" type="curve" smooth="yes"/>
    </contour>
  </outline>
</glyph>
<glyph name="o" format="1">
  <advance width="737"/>
  <unicode hex="006F"/>
  <note>
    o
  </note>
  <outline>
    <contour>
      <point x="59" y="128"/>
      <point x="174" y="-14"/>
      <point x="369" y="-14" type="curve" smooth="yes"/>
      <point x="564" y="-14"/>
      <point x="678" y="128"/>
      <point x="678" y="282" type="curve" smooth="yes"/>
      <point x="678" y="434"/>
      <point x="564" y="578"/>
      <point x="369" y="578" type="curve" smooth="yes"/>
      <point x="164" y="578"/>
      <point x="59" y="434"/>
      <point x="59" y="282" type="curve" smooth="yes"/>
    </contour>
    <contour>
      <point x="229" y="374"/>
      <point x="274" y="444"/>
      <point x="369" y="444" type="curve" smooth="yes"/>
      <point x="463" y="444"/>
      <point x="509" y="374"/>
      <point x="509" y="282" type="curve" smooth="yes"/>
      <point x="509" y="190"/>
      <point x="463" y="117"/>
      <point x="369" y="117" type="curve" smooth="yes"/>
      <point x="274" y="117"/>
      <point x="229" y="190"/>
      <point x="229" y="282" type="curve" smooth="yes"/>
    </contour>
  </outline>
</glyph>
<glyph name="p" format="1">
  <advance width="709"/>
  <unicode hex="0070"/>
  <note>
    p
  </note>
  <outline>
    <contour>
      <point x="77" y="-222" type="line"/>
      <point x="240" y="-222" type="line"/>
      <point x="240" y="111" type="line"/>
      <point x="240" y="111"/>
      <point x="284" y="-14"/>
      <point x="432" y="-14" type="curve" smooth="yes"/>
      <point x="574" y="-14"/>
      <point x="670" y="108"/>
      <point x="670" y="282" type="curve" smooth="yes"/>
      <point x="670" y="457"/>
      <point x="581" y="578"/>
      <point x="434" y="578" type="curve" smooth="yes"/>
      <point x="272" y="578"/>
      <point x="228" y="407"/>
      <point x="228" y="407" type="curve"/>
      <point x="149" y="555" type="line"/>
      <point x="77" y="555" type="line"/>
    </contour>
    <contour>
      <point x="240" y="334" type="line"/>
      <point x="240" y="334"/>
      <point x="266" y="444"/>
      <point x="365" y="444" type="curve" smooth="yes"/>
      <point x="442" y="444"/>
      <point x="500" y="397"/>
      <point x="500" y="282" type="curve" smooth="yes"/>
      <point x="500" y="183"/>
      <point x="453" y="117"/>
      <point x="362" y="117" type="curve" smooth="yes"/>
      <point x="261" y="117"/>
      <point x="240" y="224"/>
      <point x="240" y="224" type="curve"/>
    </contour>
  </outline>
</glyph>
<glyph name="q" format="1">
  <advance width="709"/>
  <unicode hex="0071"/>
  <note>
    q
  </note>
  <outline>
    <contour>
      <point x="632" y="555" type="line"/>
      <point x="560" y="555" type="line"/>
      <point x="481" y="407" type="line"/>
      <point x="481" y="407"/>
      <point x="437" y="578"/>
      <point x="275" y="578" type="curve" smooth="yes"/>
      <point x="128" y="578"/>
      <point x="39" y="457"/>
      <point x="39" y="282" type="curve" smooth="yes"/>
      <point x="39" y="108"/>
      <point x="135" y="-14"/>
      <point x="277" y="-14" type="curve" smooth="yes"/>
      <point x="425" y="-14"/>
      <point x="469" y="111"/>
      <point x="469" y="111" type="curve"/>
      <point x="469" y="-223" type="line"/>
      <point x="632" y="-223" type="line"/>
    </contour>
    <contour>
      <point x="469" y="224" type="line"/>
      <point x="469" y="224"/>
      <point x="448" y="117"/>
      <point x="347" y="117" type="curve" smooth="yes"/>
      <point x="256" y="117"/>
      <point x="209" y="183"/>
      <point x="209" y="282" type="curve" smooth="yes"/>
      <point x="209" y="397"/>
      <point x="267" y="444"/>
      <point x="344" y="444" type="curve" smooth="yes"/>
      <point x="443" y="444"/>
      <point x="469" y="334"/>
      <point x="469" y="334" type="curve"/>
    </contour>
  </outline>
</glyph>
<glyph name="r" format="1">
  <advance width="502"/>
  <unicode hex="0072"/>
  <note>
    r
  </note>
  <outline>
    <contour>
      <point x="239" y="324" type="line" smooth="yes"/>
      <point x="239" y="347"/>
      <point x="262" y="444"/>
      <point x="321" y="444" type="curve" smooth="yes"/>
      <point x="347" y="444"/>
      <point x="354" y="410"/>
      <point x="354" y="383" type="curve" smooth="yes"/>
      <point x="354" y="333"/>
      <point x="332" y="292"/>
      <point x="332" y="292" type="curve"/>
      <point x="470" y="315" type="line"/>
      <point x="470" y="315"/>
      <point x="497" y="366"/>
      <point x="497" y="425" type="curve" smooth="yes"/>
      <point x="497" y="495"/>
      <point x="473" y="576"/>
      <point x="376" y="576" type="curve" smooth="yes"/>
      <point x="243" y="576"/>
      <point x="227" y="407"/>
      <point x="227" y="407" type="curve"/>
      <point x="147" y="555" type="line"/>
      <point x="77" y="555" type="line"/>
      <point x="77" y="0" type="line"/>
      <point x="239" y="0" type="line"/>
    </contour>
  </outline>
</glyph>
<glyph name="s" format="1">
  <advance width="686"/>
  <unicode hex="0073"/>
  <note>
    s
  </note>
  <outline>
    <contour>
      <point x="605" y="421" type="line"/>
      <point x="605" y="421"/>
      <point x="524" y="578"/>
      <point x="329" y="578" type="curve" smooth="yes"/>
      <point x="180" y="578"/>
      <point x="98" y="500"/>
      <point x="98" y="414" type="curve" smooth="yes"/>
      <point x="98" y="210"/>
      <point x="471" y="270"/>
      <point x="471" y="164" type="curve" smooth="yes"/>
      <point x="471" y="138"/>
      <point x="435" y="117"/>
      <point x="376" y="117" type="curve" smooth="yes"/>
      <point x="223" y="117"/>
      <point x="181" y="231"/>
      <point x="181" y="231" type="curve"/>
      <point x="50" y="170" type="line"/>
      <point x="50" y="170"/>
      <point x="118" y="-14"/>
      <point x="372" y="-14" type="curve" smooth="yes"/>
      <point x="505" y="-14"/>
      <point x="630" y="43"/>
      <point x="630" y="159" type="curve" smooth="yes"/>
      <point x="630" y="360"/>
      <point x="253" y="300"/>
      <point x="253" y="393" type="curve" smooth="yes"/>
      <point x="253" y="415"/>
      <point x="270" y="444"/>
      <point x="317" y="444" type="curve" smooth="yes"/>
      <point x="422" y="444"/>
      <point x="473" y="341"/>
      <point x="473" y="341" type="curve"/>
    </contour>
  </outline>
</glyph>
<glyph name="t" format="1">
  <advance width="557"/>
  <unicode hex="0074"/>
  <note>
    t
  </note>
  <outline>
    <contour>
      <point x="20" y="444" type="line"/>
      <point x="150" y="444" type="line"/>
      <point x="150" y="197" type="line" smooth="yes"/>
      <point x="150" y="32"/>
      <point x="225" y="-14"/>
      <point x="334" y="-14" type="curve" smooth="yes"/>
      <point x="451" y="-14"/>
      <point x="514" y="66"/>
      <point x="514" y="66" type="curve"/>
      <point x="479" y="178" type="line"/>
      <point x="479" y="178"/>
      <point x="440" y="117"/>
      <point x="380" y="117" type="curve" smooth="yes"/>
      <point x="333" y="117"/>
      <point x="311" y="150"/>
      <point x="311" y="208" type="curve" smooth="yes"/>
      <point x="311" y="444" type="line"/>
      <point x="481" y="444" type="line"/>
      <point x="481" y="555" type="line"/>
      <point x="310" y="555" type="line"/>
      <point x="310" y="693" type="line"/>
      <point x="239" y="693" type="line"/>
      <point x="162" y="555" type="line"/>
      <point x="20" y="555" type="line"/>
    </contour>
  </outline>
</glyph>
<glyph name="v" format="1">
  <advance width="755"/>
  <unicode hex="0076"/>
  <note>
    v
  </note>
  <outline>
    <contour>
      <point x="302" y="0" type="line"/>
      <point x="453" y="0" type="line"/>
      <point x="712" y="555" type="line"/>
      <point x="528" y="555" type="line"/>
      <point x="378" y="159" type="line"/>
      <point x="227" y="555" type="line"/>
      <point x="43" y="555" type="line"/>
    </contour>
  </outline>
</glyph>
<glyph name="w" format="1">
  <advance width="1041"/>
  <unicode hex="0077"/>
  <note>
    w
  </note>
  <outline>
    <contour>
      <point x="259" y="0" type="line"/>
      <point x="416" y="0" type="line"/>
      <point x="521" y="350" type="line"/>
      <point x="626" y="0" type="line"/>
      <point x="783" y="0" type="line"/>
      <point x="1036" y="555" type="line"/>
      <point x="860" y="555" type="line"/>
      <point x="711" y="163" type="line"/>
      <point x="591" y="555" type="line"/>
      <point x="451" y="555" type="line"/>
      <point x="335" y="162" type="line"/>
      <point x="182" y="555" type="line"/>
      <point x="5" y="555" type="line"/>
    </contour>
  </outline>
</glyph>
<glyph name="x" format="1">
  <advance width="652"/>
  <unicode hex="0078"/>
  <note>
    x
  </note>
  <outline>
    <contour>
      <point x="637" y="555" type="line"/>
      <point x="461" y="555" type="line"/>
      <point x="326" y="377" type="line"/>
      <point x="199" y="555" type="line"/>
      <point x="15" y="555" type="line"/>
      <point x="239" y="276" type="line"/>
      <point x="16" y="0" type="line"/>
      <point x="189" y="0" type="line"/>
      <point x="326" y="179" type="line"/>
      <point x="454" y="0" type="line"/>
      <point x="636" y="0" type="line"/>
      <point x="413" y="276" type="line"/>
    </contour>
  </outline>
</glyph>
<glyph name="y" format="1">
  <advance width="700"/>
  <unicode hex="0079"/>
  <note>
    y
  </note>
  <outline>
    <contour>
      <point x="208" y="-33" type="line"/>
      <point x="180" y="-79"/>
      <point x="148" y="-103"/>
      <point x="111" y="-103" type="curve" smooth="yes"/>
      <point x="67" y="-103"/>
      <point x="43" y="-78"/>
      <point x="43" y="-78" type="curve"/>
      <point x="43" y="-205" type="line"/>
      <point x="43" y="-205"/>
      <point x="80" y="-233"/>
      <point x="140" y="-233" type="curve" smooth="yes"/>
      <point x="232" y="-233"/>
      <point x="294" y="-157"/>
      <point x="372" y="-10" type="curve" smooth="yes"/>
      <point x="673" y="555" type="line"/>
      <point x="495" y="555" type="line"/>
      <point x="344" y="217" type="line"/>
      <point x="195" y="555" type="line"/>
      <point x="15" y="555" type="line"/>
      <point x="272" y="82" type="line"/>
    </contour>
  </outline>
</glyph>
<glyph name="z" format="1">
  <advance width="603"/>
  <unicode hex="007A"/>
  <note>
    z
  </note>
  <outline>
    <contour>
      <point x="35" y="0" type="line"/>
      <point x="568" y="0" type="line"/>
      <point x="568" y="133" type="line"/>
      <point x="243" y="133" type="line"/>
      <point x="568" y="479" type="line"/>
      <point x="568" y="555" type="line"/>
      <point x="62" y="555" type="line"/>
      <point x="62" y="420" type="line"/>
      <point x="335" y="420" type="line"/>
      <point x="35" y="103" type="line"/>
    </contour>
  </outline>
</glyph>
<glyph name="braceleft" format="1">
  <advance width="443"/>
  <unicode hex="007B"/>
  <note>
    braceleft
  </note>
  <outline>
    <contour>
      <point x="114" y="-50" type="line" smooth="yes"/>
      <point x="114" y="-126"/>
      <point x="154" y="-180"/>
      <point x="243" y="-180" type="curve" smooth="yes"/>
      <point x="314" y="-180"/>
      <point x="399" y="-116"/>
      <point x="399" y="-116" type="curve"/>
      <point x="381" y="-80" type="line"/>
      <point x="381" y="-80"/>
      <point x="314" y="-137"/>
      <point x="245" y="-137" type="curve" smooth="yes"/>
      <point x="178" y="-137"/>
      <point x="157" y="-99"/>
      <point x="157" y="-24" type="curve" smooth="yes"/>
      <point x="157" y="260" type="line" smooth="yes"/>
      <point x="157" y="346"/>
      <point x="75" y="379"/>
      <point x="70" y="381" type="curve"/>
      <point x="79" y="384"/>
      <point x="157" y="415"/>
      <point x="157" y="501" type="curve" smooth="yes"/>
      <point x="157" y="785" type="line" smooth="yes"/>
      <point x="157" y="860"/>
      <point x="178" y="898"/>
      <point x="245" y="898" type="curve" smooth="yes"/>
      <point x="314" y="898"/>
      <point x="381" y="841"/>
      <point x="381" y="841" type="curve"/>
      <point x="399" y="877" type="line"/>
      <point x="399" y="877"/>
      <point x="314" y="941"/>
      <point x="243" y="941" type="curve" smooth="yes"/>
      <point x="154" y="941"/>
      <point x="114" y="887"/>
      <point x="114" y="811" type="curve" smooth="yes"/>
      <point x="114" y="507" type="line" smooth="yes"/>
      <point x="114" y="456"/>
      <point x="33" y="403"/>
      <point x="33" y="403" type="curve"/>
      <point x="33" y="359" type="line"/>
      <point x="33" y="359"/>
      <point x="114" y="305"/>
      <point x="114" y="254" type="curve" smooth="yes"/>
    </contour>
  </outline>
</glyph>
<glyph name="bar" format="1">
  <advance width="161"/>
  <unicode hex="007C"/>
  <note>
    bar
  </note>
  <outline>
    <contour>
      <point x="104" y="-223" type="line"/>
      <point x="104" y="1012" type="line"/>
      <point x="61" y="1012" type="line"/>
      <point x="61" y="-223" type="line"/>
    </contour>
  </outline>
</glyph>
<glyph name="braceright" format="1">
  <advance width="443"/>
  <unicode hex="007D"/>
  <note>
    braceright
  </note>
  <outline>
    <contour>
      <point x="329" y="305"/>
      <point x="410" y="359"/>
      <point x="410" y="359" type="curve"/>
      <point x="410" y="403" type="line"/>
      <point x="410" y="403"/>
      <point x="329" y="456"/>
      <point x="329" y="507" type="curve" smooth="yes"/>
      <point x="329" y="811" type="line" smooth="yes"/>
      <point x="329" y="887"/>
      <point x="289" y="941"/>
      <point x="200" y="941" type="curve" smooth="yes"/>
      <point x="129" y="941"/>
      <point x="44" y="877"/>
      <point x="44" y="877" type="curve"/>
      <point x="62" y="841" type="line"/>
      <point x="62" y="841"/>
      <point x="129" y="898"/>
      <point x="198" y="898" type="curve" smooth="yes"/>
      <point x="265" y="898"/>
      <point x="286" y="860"/>
      <point x="286" y="785" type="curve" smooth="yes"/>
      <point x="286" y="501" type="line" smooth="yes"/>
      <point x="286" y="415"/>
      <point x="364" y="384"/>
      <point x="373" y="381" type="curve"/>
      <point x="368" y="379"/>
      <point x="286" y="346"/>
      <point x="286" y="260" type="curve" smooth="yes"/>
      <point x="286" y="-24" type="line" smooth="yes"/>
      <point x="286" y="-99"/>
      <point x="265" y="-137"/>
      <point x="198" y="-137" type="curve" smooth="yes"/>
      <point x="129" y="-137"/>
      <point x="62" y="-80"/>
      <point x="62" y="-80" type="curve"/>
      <point x="44" y="-116" type="line"/>
      <point x="44" y="-116"/>
      <point x="129" y="-180"/>
      <point x="200" y="-180" type="curve" smooth="yes"/>
      <point x="289" y="-180"/>
      <point x="329" y="-126"/>
      <point x="329" y="-50" type="curve" smooth="yes"/>
      <point x="329" y="254" type="line" smooth="yes"/>
    </contour>
  </outline>
</glyph>
<glyph name="exclamdown" format="1">
  <advance width="311"/>
  <unicode hex="00A1"/>
  <note>
    exclamdown
  </note>
  <outline>
    <contour>
      <point x="243" y="-323" type="line"/>
      <point x="232" y="231" type="line"/>
      <point x="82" y="231" type="line"/>
      <point x="68" y="-323" type="line"/>
    </contour>
    <contour>
      <point x="56" y="571" type="line"/>
      <point x="56" y="398" type="line"/>
      <point x="256" y="398" type="line"/>
      <point x="256" y="571" type="line"/>
    </contour>
  </outline>
</glyph>
<glyph name="cent" format="1">
  <advance width="633"/>
  <unicode hex="00A2"/>
  <note>
    cent
  </note>
  <outline>
    <contour>
      <point x="349" y="-223" type="line"/>
      <point x="349" y="-13" type="line"/>
      <point x="550" y="-3"/>
      <point x="609" y="149"/>
      <point x="609" y="218" type="curve"/>
      <point x="465" y="218" type="line" smooth="yes"/>
      <point x="465" y="218"/>
      <point x="449" y="128"/>
      <point x="349" y="118" type="curve"/>
      <point x="349" y="443" type="line"/>
      <point x="431" y="430"/>
      <point x="439" y="341"/>
      <point x="439" y="341" type="curve"/>
      <point x="571" y="421" type="line"/>
      <point x="571" y="421"/>
      <point x="534" y="569"/>
      <point x="349" y="577" type="curve"/>
      <point x="349" y="776" type="line"/>
      <point x="306" y="776" type="line"/>
      <point x="306" y="577" type="line"/>
      <point x="117" y="563"/>
      <point x="28" y="411"/>
      <point x="28" y="280" type="curve" smooth="yes"/>
      <point x="28" y="110"/>
      <point x="143" y="-4"/>
      <point x="306" y="-13" type="curve"/>
      <point x="306" y="-223" type="line"/>
    </contour>
    <contour>
      <point x="191" y="366"/>
      <point x="234" y="430"/>
      <point x="306" y="442" type="curve"/>
      <point x="306" y="119" type="line"/>
      <point x="235" y="130"/>
      <point x="191" y="192"/>
      <point x="191" y="282" type="curve" smooth="yes"/>
    </contour>
  </outline>
</glyph>
<glyph name="sterling" format="1">
  <advance width="889"/>
  <unicode hex="00A3"/>
  <note>
    sterling
  </note>
  <outline>
    <contour>
      <point x="103" y="318" type="line"/>
      <point x="277" y="318" type="line"/>
      <point x="300" y="289"/>
      <point x="315" y="254"/>
      <point x="316" y="207" type="curve"/>
      <point x="275" y="231"/>
      <point x="234" y="252"/>
      <point x="181" y="252" type="curve" smooth="yes"/>
      <point x="99" y="252"/>
      <point x="48" y="198"/>
      <point x="48" y="118" type="curve" smooth="yes"/>
      <point x="48" y="38"/>
      <point x="110" y="-14"/>
      <point x="202" y="-14" type="curve" smooth="yes"/>
      <point x="276" y="-14"/>
      <point x="336" y="14"/>
      <point x="379" y="54" type="curve"/>
      <point x="423" y="17"/>
      <point x="477" y="-14"/>
      <point x="559" y="-14" type="curve" smooth="yes"/>
      <point x="850" y="-14"/>
      <point x="848" y="328"/>
      <point x="848" y="328" type="curve" smooth="yes"/>
      <point x="679" y="328" type="line"/>
      <point x="679" y="235"/>
      <point x="653" y="131"/>
      <point x="516" y="131" type="curve" smooth="yes"/>
      <point x="488" y="131"/>
      <point x="464" y="135"/>
      <point x="441" y="142" type="curve"/>
      <point x="450" y="164"/>
      <point x="455" y="186"/>
      <point x="455" y="206" type="curve" smooth="yes"/>
      <point x="455" y="251"/>
      <point x="445" y="287"/>
      <point x="431" y="318" type="curve"/>
      <point x="592" y="318" type="line"/>
      <point x="592" y="361" type="line"/>
      <point x="406" y="361" type="line"/>
      <point x="355" y="431"/>
      <point x="283" y="469"/>
      <point x="283" y="546" type="curve" smooth="yes"/>
      <point x="283" y="594"/>
      <point x="330" y="633"/>
      <point x="404" y="633" type="curve" smooth="yes"/>
      <point x="562" y="633"/>
      <point x="609" y="488"/>
      <point x="609" y="488" type="curve"/>
      <point x="753" y="574" type="line"/>
      <point x="753" y="574"/>
      <point x="664" y="788"/>
      <point x="411" y="788" type="curve" smooth="yes"/>
      <point x="192" y="788"/>
      <point x="106" y="657"/>
      <point x="106" y="558" type="curve" smooth="yes"/>
      <point x="106" y="457"/>
      <point x="177" y="414"/>
      <point x="237" y="361" type="curve"/>
      <point x="103" y="361" type="line"/>
    </contour>
    <contour>
      <point x="157" y="114"/>
      <point x="145" y="128"/>
      <point x="145" y="144" type="curve" smooth="yes"/>
      <point x="145" y="160"/>
      <point x="157" y="174"/>
      <point x="199" y="174" type="curve" smooth="yes"/>
      <point x="232" y="174"/>
      <point x="259" y="160"/>
      <point x="284" y="141" type="curve"/>
      <point x="264" y="125"/>
      <point x="236" y="114"/>
      <point x="199" y="114" type="curve" smooth="yes"/>
    </contour>
  </outline>
</glyph>
<glyph name="brokenbar" format="1">
  <advance width="161"/>
  <unicode hex="00A6"/>
  <note>
    brokenbar
  </note>
  <outline>
    <contour>
      <point x="104" y="301" type="line"/>
      <point x="61" y="301" type="line"/>
      <point x="61" y="-223" type="line"/>
      <point x="104" y="-223" type="line"/>
    </contour>
    <contour>
      <point x="104" y="488" type="line"/>
      <point x="104" y="1012" type="line"/>
      <point x="61" y="1012" type="line"/>
      <point x="61" y="488" type="line"/>
    </contour>
  </outline>
</glyph>
<glyph name="section" format="1">
  <advance width="639"/>
  <unicode hex="00A7"/>
  <note>
    section
  </note>
  <outline>
    <contour>
      <point x="575" y="646" type="line"/>
      <point x="575" y="646"/>
      <point x="513" y="806"/>
      <point x="327" y="806" type="curve" smooth="yes"/>
      <point x="176" y="806"/>
      <point x="73" y="705"/>
      <point x="73" y="600" type="curve" smooth="yes"/>
      <point x="73" y="491"/>
      <point x="226" y="459"/>
      <point x="242" y="456" type="curve"/>
      <point x="230" y="455"/>
      <point x="49" y="438"/>
      <point x="49" y="281" type="curve" smooth="yes"/>
      <point x="49" y="195"/>
      <point x="112" y="122"/>
      <point x="289" y="103" type="curve" smooth="yes"/>
      <point x="374" y="95"/>
      <point x="405" y="48"/>
      <point x="405" y="6" type="curve" smooth="yes"/>
      <point x="405" y="-35"/>
      <point x="377" y="-71"/>
      <point x="320" y="-71" type="curve" smooth="yes"/>
      <point x="221" y="-71"/>
      <point x="164" y="41"/>
      <point x="164" y="41" type="curve"/>
      <point x="47" y="-55" type="line"/>
      <point x="47" y="-55"/>
      <point x="119" y="-216"/>
      <point x="316" y="-216" type="curve" smooth="yes"/>
      <point x="465" y="-216"/>
      <point x="564" y="-136"/>
      <point x="564" y="-21" type="curve" smooth="yes"/>
      <point x="564" y="81"/>
      <point x="412" y="116"/>
      <point x="397" y="119" type="curve"/>
      <point x="409" y="120"/>
      <point x="593" y="146"/>
      <point x="593" y="303" type="curve" smooth="yes"/>
      <point x="593" y="377"/>
      <point x="544" y="456"/>
      <point x="384" y="472" type="curve" smooth="yes"/>
      <point x="280" y="483"/>
      <point x="232" y="524"/>
      <point x="232" y="586" type="curve" smooth="yes"/>
      <point x="232" y="623"/>
      <point x="259" y="660"/>
      <point x="316" y="660" type="curve" smooth="yes"/>
      <point x="405" y="660"/>
      <point x="460" y="549"/>
      <point x="460" y="549" type="curve"/>
    </contour>
    <contour>
      <point x="429" y="267"/>
      <point x="405" y="233"/>
      <point x="316" y="233" type="curve" smooth="yes"/>
      <point x="226" y="233"/>
      <point x="205" y="268"/>
      <point x="205" y="295" type="curve" smooth="yes"/>
      <point x="205" y="322"/>
      <point x="233" y="356"/>
      <point x="315" y="356" type="curve" smooth="yes"/>
      <point x="399" y="356"/>
      <point x="429" y="323"/>
      <point x="429" y="295" type="curve" smooth="yes"/>
    </contour>
  </outline>
</glyph>
<glyph name="dieresis" format="1">
  <advance width="531"/>
  <unicode hex="00A8"/>
  <note>
    dieresis
  </note>
  <outline>
    <contour>
      <point x="61" y="777" type="line"/>
      <point x="61" y="661" type="line"/>
      <point x="217" y="661" type="line"/>
      <point x="217" y="777" type="line"/>
    </contour>
    <contour>
      <point x="314" y="777" type="line"/>
      <point x="314" y="661" type="line"/>
      <point x="470" y="661" type="line"/>
      <point x="470" y="777" type="line"/>
    </contour>
  </outline>
</glyph>
<glyph name="copyright" format="1">
  <advance width="820"/>
  <unicode hex="00A9"/>
  <note>
    copyright
  </note>
  <outline>
    <contour>
      <point x="46" y="74"/>
      <point x="209" y="-90"/>
      <point x="410" y="-90" type="curve" smooth="yes"/>
      <point x="611" y="-90"/>
      <point x="774" y="74"/>
      <point x="774" y="275" type="curve" smooth="yes"/>
      <point x="774" y="475"/>
      <point x="611" y="639"/>
      <point x="410" y="639" type="curve" smooth="yes"/>
      <point x="209" y="639"/>
      <point x="46" y="475"/>
      <point x="46" y="275" type="curve" smooth="yes"/>
    </contour>
    <contour>
      <point x="90" y="457"/>
      <point x="228" y="595"/>
      <point x="410" y="595" type="curve" smooth="yes"/>
      <point x="590" y="595"/>
      <point x="731" y="457"/>
      <point x="731" y="275" type="curve" smooth="yes"/>
      <point x="731" y="94"/>
      <point x="590" y="-46"/>
      <point x="410" y="-46" type="curve" smooth="yes"/>
      <point x="228" y="-46"/>
      <point x="90" y="94"/>
      <point x="90" y="275" type="curve" smooth="yes"/>
    </contour>
    <contour>
      <point x="516" y="261" type="line" smooth="yes"/>
      <point x="516" y="261"/>
      <point x="508" y="140"/>
      <point x="411" y="140" type="curve" smooth="yes"/>
      <point x="347" y="140"/>
      <point x="306" y="185"/>
      <point x="306" y="275" type="curve" smooth="yes"/>
      <point x="306" y="348"/>
      <point x="349" y="397"/>
      <point x="399" y="397" type="curve" smooth="yes"/>
      <point x="485" y="397"/>
      <point x="500" y="297"/>
      <point x="500" y="297" type="curve"/>
      <point x="632" y="377" type="line"/>
      <point x="632" y="377"/>
      <point x="593" y="511"/>
      <point x="400" y="511" type="curve" smooth="yes"/>
      <point x="237" y="511"/>
      <point x="149" y="400"/>
      <point x="149" y="273" type="curve" smooth="yes"/>
      <point x="149" y="126"/>
      <point x="254" y="29"/>
      <point x="408" y="29" type="curve" smooth="yes"/>
      <point x="607" y="29"/>
      <point x="660" y="190"/>
      <point x="660" y="261" type="curve"/>
    </contour>
  </outline>
</glyph>
<glyph name="guillemotleft" format="1">
  <advance width="646"/>
  <unicode hex="00AB"/>
  <note>
    guillemotleft
  </note>
  <outline>
    <contour>
      <point x="27" y="277" type="line"/>
      <point x="339" y="38" type="line"/>
      <point x="339" y="130" type="line"/>
      <point x="145" y="277" type="line"/>
      <point x="343" y="431" type="line"/>
      <point x="343" y="522" type="line"/>
    </contour>
    <contour>
      <point x="269" y="277" type="line"/>
      <point x="581" y="38" type="line"/>
      <point x="581" y="130" type="line"/>
      <point x="388" y="277" type="line"/>
      <point x="586" y="431" type="line"/>
      <point x="586" y="522" type="line"/>
    </contour>
  </outline>
</glyph>
<glyph name="registered" format="1">
  <advance width="820"/>
  <unicode hex="00AE"/>
  <note>
    registered
  </note>
  <outline>
    <contour>
      <point x="46" y="74"/>
      <point x="209" y="-90"/>
      <point x="410" y="-90" type="curve" smooth="yes"/>
      <point x="611" y="-90"/>
      <point x="774" y="74"/>
      <point x="774" y="275" type="curve" smooth="yes"/>
      <point x="774" y="475"/>
      <point x="611" y="639"/>
      <point x="410" y="639" type="curve" smooth="yes"/>
      <point x="209" y="639"/>
      <point x="46" y="475"/>
      <point x="46" y="275" type="curve" smooth="yes"/>
    </contour>
    <contour>
      <point x="90" y="457"/>
      <point x="228" y="595"/>
      <point x="410" y="595" type="curve" smooth="yes"/>
      <point x="590" y="595"/>
      <point x="731" y="457"/>
      <point x="731" y="275" type="curve" smooth="yes"/>
      <point x="731" y="94"/>
      <point x="590" y="-46"/>
      <point x="410" y="-46" type="curve" smooth="yes"/>
      <point x="228" y="-46"/>
      <point x="90" y="94"/>
      <point x="90" y="275" type="curve" smooth="yes"/>
    </contour>
    <contour>
      <point x="616" y="445"/>
      <point x="552" y="494"/>
      <point x="449" y="494" type="curve" smooth="yes"/>
      <point x="208" y="494" type="line"/>
      <point x="208" y="48" type="line"/>
      <point x="353" y="48" type="line"/>
      <point x="353" y="217" type="line"/>
      <point x="369" y="227" type="line"/>
      <point x="485" y="48" type="line"/>
      <point x="632" y="48" type="line"/>
      <point x="501" y="227" type="line"/>
      <point x="501" y="227"/>
      <point x="616" y="244"/>
      <point x="616" y="357" type="curve" smooth="yes"/>
    </contour>
    <contour>
      <point x="355" y="400" type="line"/>
      <point x="411" y="400" type="line" smooth="yes"/>
      <point x="440" y="400"/>
      <point x="466" y="395"/>
      <point x="466" y="361" type="curve" smooth="yes"/>
      <point x="466" y="324"/>
      <point x="440" y="319"/>
      <point x="410" y="319" type="curve" smooth="yes"/>
      <point x="355" y="319" type="line"/>
    </contour>
  </outline>
</glyph>
<glyph name="degree" format="1">
  <advance width="390"/>
  <unicode hex="00B0"/>
  <note>
    degree
  </note>
  <outline>
    <contour>
      <point x="47" y="632"/>
      <point x="108" y="571"/>
      <point x="194" y="571" type="curve" smooth="yes"/>
      <point x="281" y="571"/>
      <point x="343" y="632"/>
      <point x="343" y="718" type="curve" smooth="yes"/>
      <point x="343" y="805"/>
      <point x="281" y="867"/>
      <point x="194" y="867" type="curve" smooth="yes"/>
      <point x="108" y="867"/>
      <point x="47" y="805"/>
      <point x="47" y="718" type="curve" smooth="yes"/>
    </contour>
    <contour>
      <point x="86" y="782"/>
      <point x="129" y="827"/>
      <point x="194" y="827" type="curve" smooth="yes"/>
      <point x="259" y="827"/>
      <point x="303" y="782"/>
      <point x="303" y="718" type="curve" smooth="yes"/>
      <point x="303" y="655"/>
      <point x="259" y="610"/>
      <point x="194" y="610" type="curve" smooth="yes"/>
      <point x="129" y="610"/>
      <point x="86" y="653"/>
      <point x="86" y="718" type="curve" smooth="yes"/>
    </contour>
  </outline>
</glyph>
<glyph name="acute" format="1">
  <advance width="351"/>
  <unicode hex="00B4"/>
  <note>
    acute
  </note>
  <outline>
    <contour>
      <point x="240" y="874" type="line"/>
      <point x="26" y="635" type="line"/>
      <point x="57" y="603" type="line"/>
      <point x="328" y="779" type="line"/>
    </contour>
  </outline>
</glyph>
<glyph name="paragraph" format="1">
  <advance width="671"/>
  <unicode hex="00B6"/>
  <note>
    paragraph
  </note>
  <outline>
    <contour>
      <point x="290" y="-207" type="line"/>
      <point x="408" y="-207" type="line"/>
      <point x="408" y="633" type="line"/>
      <point x="503" y="633" type="line"/>
      <point x="503" y="-207" type="line"/>
      <point x="610" y="-207" type="line"/>
      <point x="610" y="777" type="line"/>
      <point x="318" y="777" type="line" smooth="yes"/>
      <point x="159" y="777"/>
      <point x="31" y="715"/>
      <point x="31" y="543" type="curve" smooth="yes"/>
      <point x="31" y="398"/>
      <point x="143" y="323"/>
      <point x="292" y="315" type="curve"/>
    </contour>
  </outline>
</glyph>
<glyph name="periodcentered" format="1">
  <advance width="724"/>
  <unicode hex="00B7"/>
  <note>
    periodcentered
  </note>
  <outline>
    <contour>
      <point x="47" y="222"/>
      <point x="188" y="81"/>
      <point x="361" y="81" type="curve" smooth="yes"/>
      <point x="535" y="81"/>
      <point x="677" y="222"/>
      <point x="677" y="393" type="curve" smooth="yes"/>
      <point x="677" y="569"/>
      <point x="535" y="709"/>
      <point x="361" y="709" type="curve" smooth="yes"/>
      <point x="188" y="709"/>
      <point x="47" y="569"/>
      <point x="47" y="393" type="curve" smooth="yes"/>
    </contour>
  </outline>
</glyph>
<glyph name="cedilla" format="1">
  <advance width="317"/>
  <unicode hex="00B8"/>
  <note>
    cedilla
  </note>
  <outline>
    <contour>
      <point x="101" y="-243" type="line"/>
      <point x="292" y="-78" type="line"/>
      <point x="266" y="-32" type="line"/>
      <point x="28" y="-124" type="line"/>
    </contour>
  </outline>
</glyph>
<glyph name="guillemotright" format="1">
  <advance width="646"/>
  <unicode hex="00BB"/>
  <note>
    guillemotright
  </note>
  <outline>
    <contour>
      <point x="60" y="522" type="line"/>
      <point x="60" y="431" type="line"/>
      <point x="258" y="277" type="line"/>
      <point x="64" y="130" type="line"/>
      <point x="64" y="38" type="line"/>
      <point x="376" y="277" type="line"/>
    </contour>
    <contour>
      <point x="302" y="522" type="line"/>
      <point x="302" y="431" type="line"/>
      <point x="500" y="277" type="line"/>
      <point x="306" y="130" type="line"/>
      <point x="306" y="38" type="line"/>
      <point x="619" y="277" type="line"/>
    </contour>
  </outline>
</glyph>
<glyph name="questiondown" format="1">
  <advance width="734"/>
  <unicode hex="00BF"/>
  <note>
    questiondown
  </note>
  <outline>
    <contour>
      <point x="701" y="140"/>
      <point x="402" y="112"/>
      <point x="402" y="190" type="curve" smooth="yes"/>
      <point x="402" y="232" type="line"/>
      <point x="283" y="232" type="line"/>
      <point x="283" y="172" type="line" smooth="yes"/>
      <point x="283" y="40"/>
      <point x="525" y="95"/>
      <point x="525" y="-37" type="curve" smooth="yes"/>
      <point x="525" y="-93"/>
      <point x="481" y="-140"/>
      <point x="385" y="-140" type="curve" smooth="yes"/>
      <point x="231" y="-140"/>
      <point x="180" y="4"/>
      <point x="180" y="4" type="curve"/>
      <point x="35" y="-81" type="line"/>
      <point x="35" y="-81"/>
      <point x="119" y="-295"/>
      <point x="399" y="-295" type="curve" smooth="yes"/>
      <point x="611" y="-295"/>
      <point x="701" y="-186"/>
      <point x="701" y="-86" type="curve" smooth="yes"/>
    </contour>
    <contour>
      <point x="241" y="571" type="line"/>
      <point x="241" y="398" type="line"/>
      <point x="442" y="398" type="line"/>
      <point x="442" y="571" type="line"/>
    </contour>
  </outline>
</glyph>
<glyph name="Aacute" format="1">
  <advance width="984"/>
  <unicode hex="00C1"/>
  <note>
    Aacute
  </note>
  <outline>
    <contour>
      <point x="665" y="1041" type="line"/>
      <point x="281" y="893" type="line"/>
      <point x="296" y="840" type="line"/>
      <point x="703" y="912" type="line"/>
    </contour>
    <contour>
      <point x="217" y="0" type="line"/>
      <point x="492" y="494" type="line"/>
      <point x="767" y="0" type="line"/>
      <point x="969" y="0" type="line"/>
      <point x="492" y="792" type="line"/>
      <point x="15" y="0" type="line"/>
    </contour>
    <contour>
      <point x="772" y="121" type="line"/>
      <point x="710" y="265" type="line"/>
      <point x="269" y="265" type="line"/>
      <point x="207" y="121" type="line"/>
    </contour>
  </outline>
</glyph>
<glyph name="Acircumflex" format="1">
  <advance width="984"/>
  <unicode hex="00C2"/>
  <note>
    Acircumflex
  </note>
  <outline>
    <contour>
      <point x="253" y="883" type="line"/>
      <point x="268" y="830" type="line"/>
      <point x="492" y="910" type="line"/>
      <point x="716" y="830" type="line"/>
      <point x="731" y="883" type="line"/>
      <point x="492" y="1029" type="line"/>
    </contour>
    <contour>
      <point x="217" y="0" type="line"/>
      <point x="492" y="494" type="line"/>
      <point x="767" y="0" type="line"/>
      <point x="969" y="0" type="line"/>
      <point x="492" y="792" type="line"/>
      <point x="15" y="0" type="line"/>
    </contour>
    <contour>
      <point x="772" y="121" type="line"/>
      <point x="710" y="265" type="line"/>
      <point x="269" y="265" type="line"/>
      <point x="207" y="121" type="line"/>
    </contour>
  </outline>
</glyph>
<glyph name="Atilde" format="1">
  <advance width="984"/>
  <unicode hex="00C3"/>
  <note>
    Atilde
  </note>
  <outline>
    <contour>
      <point x="509" y="1029"/>
      <point x="482" y="974"/>
      <point x="407" y="974" type="curve" smooth="yes"/>
      <point x="338" y="974"/>
      <point x="283" y="1026"/>
      <point x="283" y="1026" type="curve"/>
      <point x="283" y="929" type="line"/>
      <point x="283" y="929"/>
      <point x="329" y="885"/>
      <point x="407" y="885" type="curve" smooth="yes"/>
      <point x="497" y="885"/>
      <point x="514" y="939"/>
      <point x="592" y="939" type="curve" smooth="yes"/>
      <point x="653" y="939"/>
      <point x="701" y="900"/>
      <point x="701" y="900" type="curve"/>
      <point x="701" y="991" type="line"/>
      <point x="701" y="991"/>
      <point x="653" y="1029"/>
      <point x="588" y="1029" type="curve" smooth="yes"/>
    </contour>
    <contour>
      <point x="217" y="0" type="line"/>
      <point x="492" y="494" type="line"/>
      <point x="767" y="0" type="line"/>
      <point x="969" y="0" type="line"/>
      <point x="492" y="792" type="line"/>
      <point x="15" y="0" type="line"/>
    </contour>
    <contour>
      <point x="772" y="121" type="line"/>
      <point x="710" y="265" type="line"/>
      <point x="269" y="265" type="line"/>
      <point x="207" y="121" type="line"/>
    </contour>
  </outline>
</glyph>
<glyph name="Adieresis" format="1">
  <advance width="984"/>
  <unicode hex="00C4"/>
  <note>
    Adieresis
  </note>
  <outline>
    <contour>
      <point x="169" y="777" type="line"/>
      <point x="169" y="655" type="line"/>
      <point x="325" y="655" type="line"/>
      <point x="325" y="777" type="line"/>
    </contour>
    <contour>
      <point x="659" y="777" type="line"/>
      <point x="659" y="655" type="line"/>
      <point x="815" y="655" type="line"/>
      <point x="815" y="777" type="line"/>
    </contour>
    <contour>
      <point x="217" y="0" type="line"/>
      <point x="492" y="494" type="line"/>
      <point x="767" y="0" type="line"/>
      <point x="969" y="0" type="line"/>
      <point x="492" y="792" type="line"/>
      <point x="15" y="0" type="line"/>
    </contour>
    <contour>
      <point x="772" y="121" type="line"/>
      <point x="710" y="265" type="line"/>
      <point x="269" y="265" type="line"/>
      <point x="207" y="121" type="line"/>
    </contour>
  </outline>
</glyph>
<glyph name="Aring" format="1">
  <advance width="984"/>
  <unicode hex="00C5"/>
  <note>
    Aring
  </note>
  <outline>
    <contour>
      <point x="387" y="912"/>
      <point x="433" y="866"/>
      <point x="491" y="866" type="curve" smooth="yes"/>
      <point x="549" y="866"/>
      <point x="597" y="912"/>
      <point x="597" y="970" type="curve" smooth="yes"/>
      <point x="597" y="1028"/>
      <point x="549" y="1076"/>
      <point x="491" y="1076" type="curve" smooth="yes"/>
      <point x="433" y="1076"/>
      <point x="387" y="1028"/>
      <point x="387" y="970" type="curve" smooth="yes"/>
    </contour>
    <contour>
      <point x="426" y="1005"/>
      <point x="455" y="1035"/>
      <point x="491" y="1035" type="curve" smooth="yes"/>
      <point x="527" y="1035"/>
      <point x="556" y="1005"/>
      <point x="556" y="970" type="curve" smooth="yes"/>
      <point x="556" y="936"/>
      <point x="527" y="905"/>
      <point x="491" y="905" type="curve" smooth="yes"/>
      <point x="455" y="905"/>
      <point x="426" y="934"/>
      <point x="426" y="970" type="curve" smooth="yes"/>
    </contour>
    <contour>
      <point x="217" y="0" type="line"/>
      <point x="492" y="494" type="line"/>
      <point x="767" y="0" type="line"/>
      <point x="969" y="0" type="line"/>
      <point x="492" y="792" type="line"/>
      <point x="15" y="0" type="line"/>
    </contour>
    <contour>
      <point x="772" y="121" type="line"/>
      <point x="710" y="265" type="line"/>
      <point x="269" y="265" type="line"/>
      <point x="207" y="121" type="line"/>
    </contour>
  </outline>
</glyph>
<glyph name="AE" format="1">
  <advance width="1307"/>
  <unicode hex="00C6"/>
  <note>
    AE
  </note>
  <outline>
    <contour>
      <point x="468" y="328" type="line"/>
      <point x="610" y="328" type="line"/>
      <point x="610" y="0" type="line"/>
      <point x="1292" y="0" type="line"/>
      <point x="1292" y="144" type="line"/>
      <point x="783" y="144" type="line"/>
      <point x="783" y="328" type="line"/>
      <point x="1211" y="328" type="line"/>
      <point x="1211" y="471" type="line"/>
      <point x="783" y="471" type="line"/>
      <point x="783" y="633" type="line"/>
      <point x="1265" y="633" type="line"/>
      <point x="1265" y="777" type="line"/>
      <point x="375" y="777" type="line"/>
      <point x="15" y="0" type="line"/>
      <point x="195" y="0" type="line"/>
      <point x="468" y="633" type="line"/>
      <point x="610" y="633" type="line"/>
      <point x="610" y="471" type="line"/>
      <point x="468" y="471" type="line"/>
    </contour>
  </outline>
</glyph>
<glyph name="Ccedilla" format="1">
  <advance width="954"/>
  <unicode hex="00C7"/>
  <note>
    Ccedilla
  </note>
  <outline>
    <contour>
      <point x="733" y="328" type="line" smooth="yes"/>
      <point x="733" y="328"/>
      <point x="716" y="144"/>
      <point x="494" y="144" type="curve" smooth="yes"/>
      <point x="349" y="144"/>
      <point x="242" y="235"/>
      <point x="242" y="387" type="curve" smooth="yes"/>
      <point x="242" y="539"/>
      <point x="343" y="633"/>
      <point x="484" y="633" type="curve" smooth="yes"/>
      <point x="703" y="633"/>
      <point x="714" y="433"/>
      <point x="714" y="433" type="curve"/>
      <point x="859" y="521" type="line"/>
      <point x="859" y="521"/>
      <point x="821" y="788"/>
      <point x="487" y="788" type="curve" smooth="yes"/>
      <point x="235" y="788"/>
      <point x="59" y="621"/>
      <point x="59" y="387" type="curve" smooth="yes"/>
      <point x="59" y="153"/>
      <point x="231" y="-14"/>
      <point x="497" y="-14" type="curve" smooth="yes"/>
      <point x="888" y="-14"/>
      <point x="901" y="328"/>
      <point x="901" y="328" type="curve" smooth="yes"/>
    </contour>
    <contour>
      <point x="412" y="-223" type="line"/>
      <point x="603" y="-58" type="line"/>
      <point x="577" y="-12" type="line"/>
      <point x="339" y="-104" type="line"/>
    </contour>
  </outline>
</glyph>
<glyph name="Egrave" format="1">
  <advance width="834"/>
  <unicode hex="00C8"/>
  <note>
    Egrave
  </note>
  <outline>
    <contour>
      <point x="78" y="0" type="line"/>
      <point x="760" y="0" type="line"/>
      <point x="760" y="144" type="line"/>
      <point x="251" y="144" type="line"/>
      <point x="251" y="328" type="line"/>
      <point x="679" y="328" type="line"/>
      <point x="679" y="471" type="line"/>
      <point x="251" y="471" type="line"/>
      <point x="251" y="633" type="line"/>
      <point x="733" y="633" type="line"/>
      <point x="733" y="777" type="line"/>
      <point x="78" y="777" type="line"/>
    </contour>
    <contour>
      <point x="204" y="912" type="line"/>
      <point x="611" y="840" type="line"/>
      <point x="626" y="893" type="line"/>
      <point x="242" y="1041" type="line"/>
    </contour>
  </outline>
</glyph>
<glyph name="Eacute" format="1">
  <advance width="834"/>
  <unicode hex="00C9"/>
  <note>
    Eacute
  </note>
  <outline>
    <contour>
      <point x="78" y="0" type="line"/>
      <point x="760" y="0" type="line"/>
      <point x="760" y="144" type="line"/>
      <point x="251" y="144" type="line"/>
      <point x="251" y="328" type="line"/>
      <point x="679" y="328" type="line"/>
      <point x="679" y="471" type="line"/>
      <point x="251" y="471" type="line"/>
      <point x="251" y="633" type="line"/>
      <point x="733" y="633" type="line"/>
      <point x="733" y="777" type="line"/>
      <point x="78" y="777" type="line"/>
    </contour>
    <contour>
      <point x="519" y="962" type="line"/>
      <point x="315" y="846" type="line"/>
      <point x="330" y="793" type="line"/>
      <point x="557" y="833" type="line"/>
    </contour>
  </outline>
</glyph>
<glyph name="Ecircumflex" format="1">
  <advance width="834"/>
  <unicode hex="00CA"/>
  <note>
    Ecircumflex
  </note>
  <outline>
    <contour>
      <point x="78" y="0" type="line"/>
      <point x="760" y="0" type="line"/>
      <point x="760" y="144" type="line"/>
      <point x="251" y="144" type="line"/>
      <point x="251" y="328" type="line"/>
      <point x="679" y="328" type="line"/>
      <point x="679" y="471" type="line"/>
      <point x="251" y="471" type="line"/>
      <point x="251" y="633" type="line"/>
      <point x="733" y="633" type="line"/>
      <point x="733" y="777" type="line"/>
      <point x="78" y="777" type="line"/>
    </contour>
    <contour>
      <point x="178" y="883" type="line"/>
      <point x="193" y="830" type="line"/>
      <point x="417" y="910" type="line"/>
      <point x="641" y="830" type="line"/>
      <point x="656" y="883" type="line"/>
      <point x="417" y="1029" type="line"/>
    </contour>
  </outline>
</glyph>
<glyph name="Edieresis" format="1">
  <advance width="834"/>
  <unicode hex="00CB"/>
  <note>
    Edieresis
  </note>
  <outline>
    <contour>
      <point x="78" y="0" type="line"/>
      <point x="760" y="0" type="line"/>
      <point x="760" y="144" type="line"/>
      <point x="251" y="144" type="line"/>
      <point x="251" y="328" type="line"/>
      <point x="679" y="328" type="line"/>
      <point x="679" y="471" type="line"/>
      <point x="251" y="471" type="line"/>
      <point x="251" y="633" type="line"/>
      <point x="733" y="633" type="line"/>
      <point x="733" y="777" type="line"/>
      <point x="78" y="777" type="line"/>
    </contour>
    <contour>
      <point x="206" y="1029" type="line"/>
      <point x="206" y="907" type="line"/>
      <point x="362" y="907" type="line"/>
      <point x="362" y="1029" type="line"/>
    </contour>
    <contour>
      <point x="459" y="1029" type="line"/>
      <point x="459" y="907" type="line"/>
      <point x="615" y="907" type="line"/>
      <point x="615" y="1029" type="line"/>
    </contour>
  </outline>
</glyph>
<glyph name="Iacute" format="1">
  <advance width="328"/>
  <unicode hex="00CD"/>
  <note>
    Iacute
  </note>
  <outline>
    <contour>
      <point x="78" y="777" type="line"/>
      <point x="78" y="0" type="line"/>
      <point x="251" y="0" type="line"/>
      <point x="251" y="777" type="line"/>
    </contour>
    <contour>
      <point x="342" y="1041" type="line"/>
      <point x="-42" y="893" type="line"/>
      <point x="-27" y="840" type="line"/>
      <point x="380" y="912" type="line"/>
    </contour>
  </outline>
</glyph>
<glyph name="Icircumflex" format="1">
  <advance width="328"/>
  <unicode hex="00CE"/>
  <note>
    Icircumflex
  </note>
  <outline>
    <contour>
      <point x="78" y="777" type="line"/>
      <point x="78" y="0" type="line"/>
      <point x="251" y="0" type="line"/>
      <point x="251" y="777" type="line"/>
    </contour>
    <contour>
      <point x="-77" y="883" type="line"/>
      <point x="-62" y="830" type="line"/>
      <point x="162" y="910" type="line"/>
      <point x="386" y="830" type="line"/>
      <point x="401" y="883" type="line"/>
      <point x="162" y="1029" type="line"/>
    </contour>
  </outline>
</glyph>
<glyph name="Idieresis" format="1">
  <advance width="328"/>
  <unicode hex="00CF"/>
  <note>
    Idieresis
  </note>
  <outline>
    <contour>
      <point x="78" y="777" type="line"/>
      <point x="78" y="0" type="line"/>
      <point x="251" y="0" type="line"/>
      <point x="251" y="777" type="line"/>
    </contour>
    <contour>
      <point x="-40" y="1029" type="line"/>
      <point x="-40" y="907" type="line"/>
      <point x="116" y="907" type="line"/>
      <point x="116" y="1029" type="line"/>
    </contour>
    <contour>
      <point x="213" y="1029" type="line"/>
      <point x="213" y="907" type="line"/>
      <point x="369" y="907" type="line"/>
      <point x="369" y="1029" type="line"/>
    </contour>
  </outline>
</glyph>
<glyph name="Ntilde" format="1">
  <advance width="936"/>
  <unicode hex="00D1"/>
  <note>
    Ntilde
  </note>
  <outline>
    <contour>
      <point x="485" y="991"/>
      <point x="458" y="936"/>
      <point x="383" y="936" type="curve" smooth="yes"/>
      <point x="314" y="936"/>
      <point x="259" y="988"/>
      <point x="259" y="988" type="curve"/>
      <point x="259" y="891" type="line"/>
      <point x="259" y="891"/>
      <point x="305" y="847"/>
      <point x="383" y="847" type="curve" smooth="yes"/>
      <point x="473" y="847"/>
      <point x="490" y="901"/>
      <point x="568" y="901" type="curve" smooth="yes"/>
      <point x="629" y="901"/>
      <point x="677" y="862"/>
      <point x="677" y="862" type="curve"/>
      <point x="677" y="953" type="line"/>
      <point x="677" y="953"/>
      <point x="629" y="991"/>
      <point x="564" y="991" type="curve" smooth="yes"/>
    </contour>
    <contour>
      <point x="776" y="269" type="line"/>
      <point x="78" y="792" type="line"/>
      <point x="110" y="541" type="line"/>
      <point x="858" y="-8" type="line"/>
    </contour>
    <contour>
      <point x="251" y="0" type="line"/>
      <point x="251" y="506" type="line"/>
      <point x="78" y="792" type="line"/>
      <point x="78" y="0" type="line"/>
    </contour>
    <contour>
      <point x="858" y="777" type="line"/>
      <point x="684" y="777" type="line"/>
      <point x="684" y="183" type="line"/>
      <point x="858" y="-8" type="line"/>
    </contour>
  </outline>
</glyph>
<glyph name="Ograve" format="1">
  <advance width="996"/>
  <unicode hex="00D2"/>
  <note>
    Ograve
  </note>
  <outline>
    <contour>
      <point x="59" y="163"/>
      <point x="236" y="-14"/>
      <point x="499" y="-14" type="curve" smooth="yes"/>
      <point x="762" y="-14"/>
      <point x="937" y="163"/>
      <point x="937" y="387" type="curve" smooth="yes"/>
      <point x="937" y="611"/>
      <point x="762" y="788"/>
      <point x="499" y="788" type="curve" smooth="yes"/>
      <point x="236" y="788"/>
      <point x="59" y="611"/>
      <point x="59" y="387" type="curve" smooth="yes"/>
    </contour>
    <contour>
      <point x="242" y="549"/>
      <point x="363" y="643"/>
      <point x="499" y="643" type="curve" smooth="yes"/>
      <point x="633" y="643"/>
      <point x="754" y="549"/>
      <point x="754" y="387" type="curve" smooth="yes"/>
      <point x="754" y="225"/>
      <point x="631" y="134"/>
      <point x="499" y="134" type="curve" smooth="yes"/>
      <point x="363" y="134"/>
      <point x="242" y="225"/>
      <point x="242" y="387" type="curve" smooth="yes"/>
    </contour>
    <contour>
      <point x="286" y="912" type="line"/>
      <point x="693" y="840" type="line"/>
      <point x="708" y="893" type="line"/>
      <point x="324" y="1041" type="line"/>
    </contour>
  </outline>
</glyph>
<glyph name="Ocircumflex" format="1">
  <advance width="996"/>
  <unicode hex="00D4"/>
  <note>
    Ocircumflex
  </note>
  <outline>
    <contour>
      <point x="59" y="163"/>
      <point x="236" y="-14"/>
      <point x="499" y="-14" type="curve" smooth="yes"/>
      <point x="762" y="-14"/>
      <point x="937" y="163"/>
      <point x="937" y="387" type="curve" smooth="yes"/>
      <point x="937" y="611"/>
      <point x="762" y="788"/>
      <point x="499" y="788" type="curve" smooth="yes"/>
      <point x="236" y="788"/>
      <point x="59" y="611"/>
      <point x="59" y="387" type="curve" smooth="yes"/>
    </contour>
    <contour>
      <point x="242" y="549"/>
      <point x="363" y="643"/>
      <point x="499" y="643" type="curve" smooth="yes"/>
      <point x="633" y="643"/>
      <point x="754" y="549"/>
      <point x="754" y="387" type="curve" smooth="yes"/>
      <point x="754" y="225"/>
      <point x="631" y="134"/>
      <point x="499" y="134" type="curve" smooth="yes"/>
      <point x="363" y="134"/>
      <point x="242" y="225"/>
      <point x="242" y="387" type="curve" smooth="yes"/>
    </contour>
    <contour>
      <point x="260" y="883" type="line"/>
      <point x="275" y="830" type="line"/>
      <point x="499" y="910" type="line"/>
      <point x="723" y="830" type="line"/>
      <point x="738" y="883" type="line"/>
      <point x="499" y="1029" type="line"/>
    </contour>
  </outline>
</glyph>
<glyph name="multiply" format="1">
  <advance width="535"/>
  <unicode hex="00D7"/>
  <note>
    multiply
  </note>
  <outline>
    <contour>
      <point x="479" y="97" type="line"/>
      <point x="299" y="277" type="line"/>
      <point x="484" y="462" type="line"/>
      <point x="453" y="493" type="line"/>
      <point x="268" y="308" type="line"/>
      <point x="88" y="488" type="line"/>
      <point x="58" y="458" type="line"/>
      <point x="238" y="277" type="line"/>
      <point x="53" y="92" type="line"/>
      <point x="84" y="62" type="line"/>
      <point x="268" y="247" type="line"/>
      <point x="449" y="66" type="line"/>
    </contour>
  </outline>
</glyph>
<glyph name="Oslash" format="1">
  <advance width="1053"/>
  <unicode hex="00D8"/>
  <note>
    Oslash
  </note>
  <outline>
    <contour>
      <point x="433" y="-216" type="line"/>
      <point x="488" y="-8" type="line"/>
      <point x="515" y="-12"/>
      <point x="542" y="-14"/>
      <point x="571" y="-14" type="curve" smooth="yes"/>
      <point x="834" y="-14"/>
      <point x="1009" y="163"/>
      <point x="1009" y="387" type="curve" smooth="yes"/>
      <point x="1009" y="572"/>
      <point x="888" y="726"/>
      <point x="697" y="773" type="curve"/>
      <point x="752" y="977" type="line"/>
      <point x="710" y="987" type="line"/>
      <point x="655" y="781" type="line"/>
      <point x="628" y="785"/>
      <point x="600" y="788"/>
      <point x="571" y="788" type="curve" smooth="yes"/>
      <point x="308" y="788"/>
      <point x="131" y="611"/>
      <point x="131" y="387" type="curve" smooth="yes"/>
      <point x="131" y="201"/>
      <point x="253" y="47"/>
      <point x="446" y="0" type="curve"/>
      <point x="391" y="-206" type="line"/>
    </contour>
    <contour>
      <point x="314" y="549"/>
      <point x="435" y="643"/>
      <point x="571" y="643" type="curve" smooth="yes"/>
      <point x="586" y="643"/>
      <point x="602" y="641"/>
      <point x="617" y="639" type="curve"/>
      <point x="485" y="147" type="line"/>
      <point x="388" y="177"/>
      <point x="314" y="260"/>
      <point x="314" y="387" type="curve" smooth="yes"/>
    </contour>
    <contour>
      <point x="826" y="225"/>
      <point x="703" y="134"/>
      <point x="571" y="134" type="curve" smooth="yes"/>
      <point x="556" y="134"/>
      <point x="542" y="135"/>
      <point x="527" y="137" type="curve"/>
      <point x="659" y="629" type="line"/>
      <point x="753" y="597"/>
      <point x="826" y="512"/>
      <point x="826" y="387" type="curve" smooth="yes"/>
    </contour>
  </outline>
</glyph>
<glyph name="Ugrave" format="1">
  <advance width="911"/>
  <unicode hex="00D9"/>
  <note>
    Ugrave
  </note>
  <outline>
    <contour>
      <point x="265" y="912" type="line"/>
      <point x="672" y="840" type="line"/>
      <point x="687" y="893" type="line"/>
      <point x="303" y="1041" type="line"/>
    </contour>
    <contour>
      <point x="73" y="777" type="line"/>
      <point x="73" y="400" type="line" smooth="yes"/>
      <point x="73" y="163"/>
      <point x="161" y="-14"/>
      <point x="456" y="-14" type="curve" smooth="yes"/>
      <point x="751" y="-14"/>
      <point x="839" y="163"/>
      <point x="839" y="400" type="curve" smooth="yes"/>
      <point x="839" y="777" type="line"/>
      <point x="665" y="777" type="line"/>
      <point x="665" y="400" type="line" smooth="yes"/>
      <point x="665" y="272"/>
      <point x="617" y="144"/>
      <point x="456" y="144" type="curve" smooth="yes"/>
      <point x="295" y="144"/>
      <point x="247" y="272"/>
      <point x="247" y="400" type="curve" smooth="yes"/>
      <point x="247" y="777" type="line"/>
    </contour>
  </outline>
</glyph>
<glyph name="Ucircumflex" format="1">
  <advance width="911"/>
  <unicode hex="00DB"/>
  <note>
    Ucircumflex
  </note>
  <outline>
    <contour>
      <point x="217" y="883" type="line"/>
      <point x="232" y="830" type="line"/>
      <point x="456" y="910" type="line"/>
      <point x="680" y="830" type="line"/>
      <point x="695" y="883" type="line"/>
      <point x="456" y="1029" type="line"/>
    </contour>
    <contour>
      <point x="73" y="777" type="line"/>
      <point x="73" y="400" type="line" smooth="yes"/>
      <point x="73" y="163"/>
      <point x="161" y="-14"/>
      <point x="456" y="-14" type="curve" smooth="yes"/>
      <point x="751" y="-14"/>
      <point x="839" y="163"/>
      <point x="839" y="400" type="curve" smooth="yes"/>
      <point x="839" y="777" type="line"/>
      <point x="665" y="777" type="line"/>
      <point x="665" y="400" type="line" smooth="yes"/>
      <point x="665" y="272"/>
      <point x="617" y="144"/>
      <point x="456" y="144" type="curve" smooth="yes"/>
      <point x="295" y="144"/>
      <point x="247" y="272"/>
      <point x="247" y="400" type="curve" smooth="yes"/>
      <point x="247" y="777" type="line"/>
    </contour>
  </outline>
</glyph>
<glyph name="Udieresis" format="1">
  <advance width="911"/>
  <unicode hex="00DC"/>
  <note>
    Udieresis
  </note>
  <outline>
    <contour>
      <point x="378" y="777" type="line"/>
      <point x="378" y="655" type="line"/>
      <point x="534" y="655" type="line"/>
      <point x="534" y="777" type="line"/>
    </contour>
    <contour>
      <point x="73" y="777" type="line"/>
      <point x="73" y="400" type="line" smooth="yes"/>
      <point x="73" y="163"/>
      <point x="161" y="-14"/>
      <point x="456" y="-14" type="curve" smooth="yes"/>
      <point x="751" y="-14"/>
      <point x="839" y="163"/>
      <point x="839" y="400" type="curve" smooth="yes"/>
      <point x="839" y="777" type="line"/>
      <point x="665" y="777" type="line"/>
      <point x="665" y="400" type="line" smooth="yes"/>
      <point x="665" y="272"/>
      <point x="617" y="144"/>
      <point x="456" y="144" type="curve" smooth="yes"/>
      <point x="295" y="144"/>
      <point x="247" y="272"/>
      <point x="247" y="400" type="curve" smooth="yes"/>
      <point x="247" y="777" type="line"/>
    </contour>
  </outline>
</glyph>
<glyph name="Yacute" format="1">
  <advance width="873"/>
  <unicode hex="00DD"/>
  <note>
    Yacute
  </note>
  <outline>
    <contour>
      <point x="848" y="777" type="line"/>
      <point x="622" y="777" type="line"/>
      <point x="437" y="470" type="line"/>
      <point x="250" y="777" type="line"/>
      <point x="25" y="777" type="line"/>
      <point x="350" y="329" type="line"/>
      <point x="350" y="0" type="line"/>
      <point x="524" y="0" type="line"/>
      <point x="524" y="329" type="line"/>
    </contour>
    <contour>
      <point x="624" y="1041" type="line"/>
      <point x="240" y="893" type="line"/>
      <point x="255" y="840" type="line"/>
      <point x="662" y="912" type="line"/>
    </contour>
  </outline>
</glyph>
<glyph name="germandbls" format="1">
  <advance width="743"/>
  <unicode hex="00DF"/>
  <note>
    germandbls
  </note>
  <outline>
    <contour>
      <point x="453" y="443"/>
      <point x="588" y="492"/>
      <point x="588" y="602" type="curve" smooth="yes"/>
      <point x="588" y="702"/>
      <point x="494" y="765"/>
      <point x="376" y="765" type="curve" smooth="yes"/>
      <point x="232" y="765"/>
      <point x="139" y="684"/>
      <point x="139" y="555" type="curve"/>
      <point x="48" y="555" type="line"/>
      <point x="48" y="444" type="line"/>
      <point x="140" y="444" type="line"/>
      <point x="140" y="0" type="line"/>
      <point x="303" y="0" type="line"/>
      <point x="303" y="545" type="line" smooth="yes"/>
      <point x="303" y="605"/>
      <point x="324" y="631"/>
      <point x="363" y="631" type="curve" smooth="yes"/>
      <point x="400" y="631"/>
      <point x="419" y="603"/>
      <point x="419" y="545" type="curve" smooth="yes"/>
      <point x="419" y="474"/>
      <point x="353" y="450"/>
      <point x="353" y="450" type="curve"/>
      <point x="353" y="365" type="line"/>
      <point x="446" y="385"/>
      <point x="519" y="333"/>
      <point x="519" y="253" type="curve" smooth="yes"/>
      <point x="519" y="177"/>
      <point x="446" y="124"/>
      <point x="353" y="144" type="curve"/>
      <point x="353" y="0" type="line"/>
      <point x="353" y="0"/>
      <point x="383" y="-14"/>
      <point x="449" y="-14" type="curve" smooth="yes"/>
      <point x="573" y="-14"/>
      <point x="688" y="66"/>
      <point x="688" y="224" type="curve" smooth="yes"/>
      <point x="688" y="344"/>
      <point x="577" y="433"/>
      <point x="453" y="443" type="curve"/>
    </contour>
  </outline>
</glyph>
<glyph name="acircumflex" format="1">
  <advance width="728"/>
  <unicode hex="00E2"/>
  <note>
    acircumflex
  </note>
  <outline>
    <contour>
      <point x="579" y="165" type="line" smooth="yes"/>
      <point x="579" y="141"/>
      <point x="584" y="117"/>
      <point x="611" y="117" type="curve" smooth="yes"/>
      <point x="648" y="117"/>
      <point x="675" y="177"/>
      <point x="675" y="177" type="curve"/>
      <point x="712" y="68" type="line"/>
      <point x="712" y="68"/>
      <point x="669" y="-14"/>
      <point x="568" y="-14" type="curve" smooth="yes"/>
      <point x="498" y="-14"/>
      <point x="440" y="23"/>
      <point x="442" y="111" type="curve" smooth="yes"/>
      <point x="444" y="198" type="line"/>
      <point x="440" y="188"/>
      <point x="366" y="-14"/>
      <point x="205" y="-14" type="curve" smooth="yes"/>
      <point x="124" y="-14"/>
      <point x="75" y="37"/>
      <point x="75" y="115" type="curve" smooth="yes"/>
      <point x="75" y="205"/>
      <point x="158" y="337"/>
      <point x="427" y="345" type="curve"/>
      <point x="425" y="370" type="line" smooth="yes"/>
      <point x="423" y="399"/>
      <point x="409" y="444"/>
      <point x="339" y="444" type="curve" smooth="yes"/>
      <point x="239" y="444"/>
      <point x="206" y="342"/>
      <point x="206" y="342" type="curve"/>
      <point x="91" y="421" type="line"/>
      <point x="91" y="421"/>
      <point x="163" y="578"/>
      <point x="354" y="578" type="curve" smooth="yes"/>
      <point x="514" y="578"/>
      <point x="579" y="464"/>
      <point x="579" y="355" type="curve" smooth="yes"/>
    </contour>
    <contour>
      <point x="358" y="890" type="line"/>
      <point x="102" y="660" type="line"/>
      <point x="132" y="628" type="line"/>
      <point x="358" y="748" type="line"/>
      <point x="583" y="628" type="line"/>
      <point x="614" y="660" type="line"/>
    </contour>
    <contour>
      <point x="234" y="138"/>
      <point x="247" y="117"/>
      <point x="282" y="117" type="curve" smooth="yes"/>
      <point x="376" y="117"/>
      <point x="432" y="277"/>
      <point x="432" y="277" type="curve"/>
      <point x="432" y="295" type="line"/>
      <point x="254" y="265"/>
      <point x="234" y="198"/>
      <point x="234" y="163" type="curve" smooth="yes"/>
    </contour>
  </outline>
</glyph>
<glyph name="aring" format="1">
  <advance width="728"/>
  <unicode hex="00E5"/>
  <note>
    aring
  </note>
  <outline>
    <contour>
      <point x="579" y="165" type="line" smooth="yes"/>
      <point x="579" y="141"/>
      <point x="584" y="117"/>
      <point x="611" y="117" type="curve" smooth="yes"/>
      <point x="648" y="117"/>
      <point x="675" y="177"/>
      <point x="675" y="177" type="curve"/>
      <point x="712" y="68" type="line"/>
      <point x="712" y="68"/>
      <point x="669" y="-14"/>
      <point x="568" y="-14" type="curve" smooth="yes"/>
      <point x="498" y="-14"/>
      <point x="440" y="23"/>
      <point x="442" y="111" type="curve" smooth="yes"/>
      <point x="444" y="198" type="line"/>
      <point x="440" y="188"/>
      <point x="366" y="-14"/>
      <point x="205" y="-14" type="curve" smooth="yes"/>
      <point x="124" y="-14"/>
      <point x="75" y="37"/>
      <point x="75" y="115" type="curve" smooth="yes"/>
      <point x="75" y="205"/>
      <point x="158" y="337"/>
      <point x="427" y="345" type="curve"/>
      <point x="425" y="370" type="line" smooth="yes"/>
      <point x="423" y="399"/>
      <point x="409" y="444"/>
      <point x="339" y="444" type="curve" smooth="yes"/>
      <point x="239" y="444"/>
      <point x="206" y="342"/>
      <point x="206" y="342" type="curve"/>
      <point x="91" y="421" type="line"/>
      <point x="91" y="421"/>
      <point x="163" y="578"/>
      <point x="354" y="578" type="curve" smooth="yes"/>
      <point x="514" y="578"/>
      <point x="579" y="464"/>
      <point x="579" y="355" type="curve" smooth="yes"/>
    </contour>
    <contour>
      <point x="258" y="690"/>
      <point x="304" y="644"/>
      <point x="362" y="644" type="curve" smooth="yes"/>
      <point x="420" y="644"/>
      <point x="468" y="690"/>
      <point x="468" y="748" type="curve" smooth="yes"/>
      <point x="468" y="806"/>
      <point x="420" y="854"/>
      <point x="362" y="854" type="curve" smooth="yes"/>
      <point x="304" y="854"/>
      <point x="258" y="806"/>
      <point x="258" y="748" type="curve" smooth="yes"/>
    </contour>
    <contour>
      <point x="234" y="138"/>
      <point x="247" y="117"/>
      <point x="282" y="117" type="curve" smooth="yes"/>
      <point x="376" y="117"/>
      <point x="432" y="277"/>
      <point x="432" y="277" type="curve"/>
      <point x="432" y="295" type="line"/>
      <point x="254" y="265"/>
      <point x="234" y="198"/>
      <point x="234" y="163" type="curve" smooth="yes"/>
    </contour>
    <contour>
      <point x="297" y="783"/>
      <point x="326" y="813"/>
      <point x="362" y="813" type="curve" smooth="yes"/>
      <point x="398" y="813"/>
      <point x="427" y="783"/>
      <point x="427" y="748" type="curve" smooth="yes"/>
      <point x="427" y="714"/>
      <point x="398" y="683"/>
      <point x="362" y="683" type="curve" smooth="yes"/>
      <point x="326" y="683"/>
      <point x="297" y="712"/>
      <point x="297" y="748" type="curve" smooth="yes"/>
    </contour>
  </outline>
</glyph>
<glyph name="ae" format="1">
  <advance width="1097"/>
  <unicode hex="00E6"/>
  <note>
    ae
  </note>
  <outline>
    <contour>
      <point x="163" y="578"/>
      <point x="91" y="421"/>
      <point x="91" y="421" type="curve"/>
      <point x="206" y="342" type="line"/>
      <point x="206" y="342"/>
      <point x="239" y="444"/>
      <point x="339" y="444" type="curve" smooth="yes"/>
      <point x="409" y="444"/>
      <point x="442" y="409"/>
      <point x="447" y="345" type="curve"/>
      <point x="171" y="341"/>
      <point x="75" y="218"/>
      <point x="75" y="115" type="curve" smooth="yes"/>
      <point x="75" y="37"/>
      <point x="124" y="-14"/>
      <point x="205" y="-14" type="curve" smooth="yes"/>
      <point x="389" y="-14"/>
      <point x="469" y="235"/>
      <point x="469" y="235" type="curve"/>
      <point x="497" y="69"/>
      <point x="611" y="-14"/>
      <point x="758" y="-14" type="curve" smooth="yes"/>
      <point x="984" y="-14"/>
      <point x="1040" y="156"/>
      <point x="1040" y="218" type="curve"/>
      <point x="896" y="218" type="line" smooth="yes"/>
      <point x="896" y="218"/>
      <point x="878" y="117"/>
      <point x="766" y="117" type="curve" smooth="yes"/>
      <point x="677" y="117"/>
      <point x="622" y="181"/>
      <point x="622" y="280" type="curve"/>
      <point x="1031" y="280" type="line"/>
      <point x="1031" y="439"/>
      <point x="942" y="578"/>
      <point x="756" y="578" type="curve" smooth="yes"/>
      <point x="610" y="578"/>
      <point x="540" y="466"/>
      <point x="540" y="466" type="curve" smooth="yes"/>
      <point x="540" y="466"/>
      <point x="503" y="578"/>
      <point x="344" y="578" type="curve" smooth="yes"/>
    </contour>
    <contour>
      <point x="868" y="444"/>
      <point x="885" y="342"/>
      <point x="885" y="342" type="curve"/>
      <point x="627" y="332" type="line"/>
      <point x="643" y="399"/>
      <point x="691" y="444"/>
      <point x="760" y="444" type="curve" smooth="yes"/>
    </contour>
    <contour>
      <point x="234" y="198"/>
      <point x="264" y="264"/>
      <point x="442" y="286" type="curve"/>
      <point x="442" y="281" type="line"/>
      <point x="442" y="281"/>
      <point x="376" y="117"/>
      <point x="282" y="117" type="curve" smooth="yes"/>
      <point x="247" y="117"/>
      <point x="234" y="138"/>
      <point x="234" y="163" type="curve" smooth="yes"/>
    </contour>
  </outline>
</glyph>
<glyph name="ccedilla" format="1">
  <advance width="691"/>
  <unicode hex="00E7"/>
  <note>
    ccedilla
  </note>
  <outline>
    <contour>
      <point x="496" y="218" type="line" smooth="yes"/>
      <point x="496" y="218"/>
      <point x="478" y="117"/>
      <point x="361" y="117" type="curve" smooth="yes"/>
      <point x="277" y="117"/>
      <point x="222" y="182"/>
      <point x="222" y="282" type="curve" smooth="yes"/>
      <point x="222" y="375"/>
      <point x="275" y="444"/>
      <point x="361" y="444" type="curve" smooth="yes"/>
      <point x="461" y="444"/>
      <point x="470" y="341"/>
      <point x="470" y="341" type="curve"/>
      <point x="602" y="421" type="line"/>
      <point x="602" y="421"/>
      <point x="563" y="578"/>
      <point x="364" y="578" type="curve" smooth="yes"/>
      <point x="157" y="578"/>
      <point x="59" y="417"/>
      <point x="59" y="280" type="curve" smooth="yes"/>
      <point x="59" y="103"/>
      <point x="184" y="-14"/>
      <point x="358" y="-14" type="curve" smooth="yes"/>
      <point x="577" y="-14"/>
      <point x="640" y="147"/>
      <point x="640" y="218" type="curve"/>
    </contour>
    <contour>
      <point x="286" y="-243" type="line"/>
      <point x="477" y="-78" type="line"/>
      <point x="451" y="-32" type="line"/>
      <point x="213" y="-124" type="line"/>
    </contour>
  </outline>
</glyph>
<glyph name="egrave" format="1">
  <advance width="697"/>
  <unicode hex="00E8"/>
  <note>
    egrave
  </note>
  <outline>
    <contour>
      <point x="631" y="280" type="line"/>
      <point x="631" y="439"/>
      <point x="542" y="578"/>
      <point x="356" y="578" type="curve" smooth="yes"/>
      <point x="167" y="578"/>
      <point x="59" y="427"/>
      <point x="59" y="280" type="curve" smooth="yes"/>
      <point x="59" y="103"/>
      <point x="184" y="-14"/>
      <point x="358" y="-14" type="curve" smooth="yes"/>
      <point x="584" y="-14"/>
      <point x="640" y="156"/>
      <point x="640" y="218" type="curve"/>
      <point x="496" y="218" type="line" smooth="yes"/>
      <point x="496" y="218"/>
      <point x="478" y="117"/>
      <point x="366" y="117" type="curve" smooth="yes"/>
      <point x="277" y="117"/>
      <point x="222" y="181"/>
      <point x="222" y="280" type="curve"/>
    </contour>
    <contour>
      <point x="200" y="809" type="line"/>
      <point x="471" y="633" type="line"/>
      <point x="502" y="665" type="line"/>
      <point x="288" y="904" type="line"/>
    </contour>
    <contour>
      <point x="468" y="444"/>
      <point x="485" y="342"/>
      <point x="485" y="342" type="curve"/>
      <point x="227" y="332" type="line"/>
      <point x="243" y="399"/>
      <point x="291" y="444"/>
      <point x="360" y="444" type="curve" smooth="yes"/>
    </contour>
  </outline>
</glyph>
<glyph name="eacute" format="1">
  <advance width="697"/>
  <unicode hex="00E9"/>
  <note>
    eacute
  </note>
  <outline>
    <contour>
      <point x="631" y="280" type="line"/>
      <point x="631" y="439"/>
      <point x="542" y="578"/>
      <point x="356" y="578" type="curve" smooth="yes"/>
      <point x="167" y="578"/>
      <point x="59" y="427"/>
      <point x="59" y="280" type="curve" smooth="yes"/>
      <point x="59" y="103"/>
      <point x="184" y="-14"/>
      <point x="358" y="-14" type="curve" smooth="yes"/>
      <point x="584" y="-14"/>
      <point x="640" y="156"/>
      <point x="640" y="218" type="curve"/>
      <point x="496" y="218" type="line" smooth="yes"/>
      <point x="496" y="218"/>
      <point x="478" y="117"/>
      <point x="366" y="117" type="curve" smooth="yes"/>
      <point x="277" y="117"/>
      <point x="222" y="181"/>
      <point x="222" y="280" type="curve"/>
    </contour>
    <contour>
      <point x="444" y="904" type="line"/>
      <point x="230" y="665" type="line"/>
      <point x="261" y="633" type="line"/>
      <point x="532" y="809" type="line"/>
    </contour>
    <contour>
      <point x="468" y="444"/>
      <point x="485" y="342"/>
      <point x="485" y="342" type="curve"/>
      <point x="227" y="332" type="line"/>
      <point x="243" y="399"/>
      <point x="291" y="444"/>
      <point x="360" y="444" type="curve" smooth="yes"/>
    </contour>
  </outline>
</glyph>
<glyph name="ecircumflex" format="1">
  <advance width="697"/>
  <unicode hex="00EA"/>
  <note>
    ecircumflex
  </note>
  <outline>
    <contour>
      <point x="631" y="280" type="line"/>
      <point x="631" y="439"/>
      <point x="542" y="578"/>
      <point x="356" y="578" type="curve" smooth="yes"/>
      <point x="167" y="578"/>
      <point x="59" y="427"/>
      <point x="59" y="280" type="curve" smooth="yes"/>
      <point x="59" y="103"/>
      <point x="184" y="-14"/>
      <point x="358" y="-14" type="curve" smooth="yes"/>
      <point x="584" y="-14"/>
      <point x="640" y="156"/>
      <point x="640" y="218" type="curve"/>
      <point x="496" y="218" type="line" smooth="yes"/>
      <point x="496" y="218"/>
      <point x="478" y="117"/>
      <point x="366" y="117" type="curve" smooth="yes"/>
      <point x="277" y="117"/>
      <point x="222" y="181"/>
      <point x="222" y="280" type="curve"/>
    </contour>
    <contour>
      <point x="344" y="890" type="line"/>
      <point x="88" y="660" type="line"/>
      <point x="118" y="628" type="line"/>
      <point x="344" y="748" type="line"/>
      <point x="569" y="628" type="line"/>
      <point x="600" y="660" type="line"/>
    </contour>
    <contour>
      <point x="468" y="444"/>
      <point x="485" y="342"/>
      <point x="485" y="342" type="curve"/>
      <point x="227" y="332" type="line"/>
      <point x="243" y="399"/>
      <point x="291" y="444"/>
      <point x="360" y="444" type="curve" smooth="yes"/>
    </contour>
  </outline>
</glyph>
<glyph name="igrave" format="1">
  <advance width="313"/>
  <unicode hex="00EC"/>
  <note>
    igrave
  </note>
  <outline>
    <contour>
      <point x="77" y="0" type="line"/>
      <point x="239" y="0" type="line"/>
      <point x="239" y="555" type="line"/>
      <point x="77" y="555" type="line"/>
    </contour>
    <contour>
      <point x="6" y="779" type="line"/>
      <point x="277" y="603" type="line"/>
      <point x="308" y="635" type="line"/>
      <point x="94" y="874" type="line"/>
    </contour>
  </outline>
</glyph>
<glyph name="iacute" format="1">
  <advance width="313"/>
  <unicode hex="00ED"/>
  <note>
    iacute
  </note>
  <outline>
    <contour>
      <point x="77" y="0" type="line"/>
      <point x="239" y="0" type="line"/>
      <point x="239" y="555" type="line"/>
      <point x="77" y="555" type="line"/>
    </contour>
    <contour>
      <point x="220" y="874" type="line"/>
      <point x="6" y="635" type="line"/>
      <point x="37" y="603" type="line"/>
      <point x="308" y="779" type="line"/>
    </contour>
  </outline>
</glyph>
<glyph name="icircumflex" format="1">
  <advance width="313"/>
  <unicode hex="00EE"/>
  <note>
    icircumflex
  </note>
  <outline>
    <contour>
      <point x="77" y="0" type="line"/>
      <point x="239" y="0" type="line"/>
      <point x="239" y="555" type="line"/>
      <point x="77" y="555" type="line"/>
    </contour>
    <contour>
      <point x="157" y="860" type="line"/>
      <point x="-99" y="630" type="line"/>
      <point x="-69" y="598" type="line"/>
      <point x="157" y="718" type="line"/>
      <point x="382" y="598" type="line"/>
      <point x="413" y="630" type="line"/>
    </contour>
  </outline>
</glyph>
<glyph name="idieresis" format="1">
  <advance width="313"/>
  <unicode hex="00EF"/>
  <note>
    idieresis
  </note>
  <outline>
    <contour>
      <point x="77" y="0" type="line"/>
      <point x="239" y="0" type="line"/>
      <point x="239" y="555" type="line"/>
      <point x="77" y="555" type="line"/>
    </contour>
    <contour>
      <point x="-48" y="777" type="line"/>
      <point x="-48" y="661" type="line"/>
      <point x="108" y="661" type="line"/>
      <point x="108" y="777" type="line"/>
    </contour>
    <contour>
      <point x="205" y="777" type="line"/>
      <point x="205" y="661" type="line"/>
      <point x="361" y="661" type="line"/>
      <point x="361" y="777" type="line"/>
    </contour>
  </outline>
</glyph>
<glyph name="ntilde" format="1">
  <advance width="716"/>
  <unicode hex="00F1"/>
  <note>
    ntilde
  </note>
  <outline>
    <contour>
      <point x="481" y="0" type="line"/>
      <point x="643" y="0" type="line"/>
      <point x="643" y="338" type="line" smooth="yes"/>
      <point x="643" y="480"/>
      <point x="574" y="578"/>
      <point x="434" y="578" type="curve" smooth="yes"/>
      <point x="258" y="578"/>
      <point x="227" y="407"/>
      <point x="227" y="407" type="curve"/>
      <point x="148" y="555" type="line"/>
      <point x="77" y="555" type="line"/>
      <point x="77" y="0" type="line"/>
      <point x="239" y="0" type="line"/>
      <point x="239" y="331" type="line" smooth="yes"/>
      <point x="239" y="348"/>
      <point x="277" y="444"/>
      <point x="377" y="444" type="curve" smooth="yes"/>
      <point x="440" y="444"/>
      <point x="481" y="402"/>
      <point x="481" y="336" type="curve" smooth="yes"/>
    </contour>
    <contour>
      <point x="390" y="822"/>
      <point x="359" y="767"/>
      <point x="284" y="767" type="curve" smooth="yes"/>
      <point x="215" y="767"/>
      <point x="160" y="819"/>
      <point x="160" y="819" type="curve"/>
      <point x="160" y="720" type="line"/>
      <point x="160" y="720"/>
      <point x="208" y="676"/>
      <point x="284" y="676" type="curve" smooth="yes"/>
      <point x="374" y="676"/>
      <point x="395" y="730"/>
      <point x="467" y="730" type="curve" smooth="yes"/>
      <point x="530" y="730"/>
      <point x="578" y="691"/>
      <point x="578" y="691" type="curve"/>
      <point x="578" y="784" type="line"/>
      <point x="578" y="784"/>
      <point x="531" y="822"/>
      <point x="461" y="822" type="curve" smooth="yes"/>
    </contour>
  </outline>
</glyph>
<glyph name="ograve" format="1">
  <advance width="737"/>
  <unicode hex="00F2"/>
  <note>
    ograve
  </note>
  <outline>
    <contour>
      <point x="59" y="128"/>
      <point x="174" y="-14"/>
      <point x="369" y="-14" type="curve" smooth="yes"/>
      <point x="564" y="-14"/>
      <point x="678" y="128"/>
      <point x="678" y="282" type="curve" smooth="yes"/>
      <point x="678" y="434"/>
      <point x="564" y="578"/>
      <point x="369" y="578" type="curve" smooth="yes"/>
      <point x="164" y="578"/>
      <point x="59" y="434"/>
      <point x="59" y="282" type="curve" smooth="yes"/>
    </contour>
    <contour>
      <point x="229" y="374"/>
      <point x="274" y="444"/>
      <point x="369" y="444" type="curve" smooth="yes"/>
      <point x="463" y="444"/>
      <point x="509" y="374"/>
      <point x="509" y="282" type="curve" smooth="yes"/>
      <point x="509" y="190"/>
      <point x="463" y="117"/>
      <point x="369" y="117" type="curve" smooth="yes"/>
      <point x="274" y="117"/>
      <point x="229" y="190"/>
      <point x="229" y="282" type="curve" smooth="yes"/>
    </contour>
    <contour>
      <point x="237" y="809" type="line"/>
      <point x="508" y="633" type="line"/>
      <point x="539" y="665" type="line"/>
      <point x="325" y="904" type="line"/>
    </contour>
  </outline>
</glyph>
<glyph name="ocircumflex" format="1">
  <advance width="737"/>
  <unicode hex="00F4"/>
  <note>
    ocircumflex
  </note>
  <outline>
    <contour>
      <point x="59" y="128"/>
      <point x="174" y="-14"/>
      <point x="369" y="-14" type="curve" smooth="yes"/>
      <point x="564" y="-14"/>
      <point x="678" y="128"/>
      <point x="678" y="282" type="curve" smooth="yes"/>
      <point x="678" y="434"/>
      <point x="564" y="578"/>
      <point x="369" y="578" type="curve" smooth="yes"/>
      <point x="164" y="578"/>
      <point x="59" y="434"/>
      <point x="59" y="282" type="curve" smooth="yes"/>
    </contour>
    <contour>
      <point x="229" y="374"/>
      <point x="274" y="444"/>
      <point x="369" y="444" type="curve" smooth="yes"/>
      <point x="463" y="444"/>
      <point x="509" y="374"/>
      <point x="509" y="282" type="curve" smooth="yes"/>
      <point x="509" y="190"/>
      <point x="463" y="117"/>
      <point x="369" y="117" type="curve" smooth="yes"/>
      <point x="274" y="117"/>
      <point x="229" y="190"/>
      <point x="229" y="282" type="curve" smooth="yes"/>
    </contour>
    <contour>
      <point x="370" y="890" type="line"/>
      <point x="114" y="660" type="line"/>
      <point x="144" y="628" type="line"/>
      <point x="370" y="748" type="line"/>
      <point x="595" y="628" type="line"/>
      <point x="626" y="660" type="line"/>
    </contour>
  </outline>
</glyph>
<glyph name="odieresis" format="1">
  <advance width="737"/>
  <unicode hex="00F6"/>
  <note>
    odieresis
  </note>
  <outline>
    <contour>
      <point x="59" y="128"/>
      <point x="174" y="-14"/>
      <point x="369" y="-14" type="curve" smooth="yes"/>
      <point x="564" y="-14"/>
      <point x="678" y="128"/>
      <point x="678" y="282" type="curve" smooth="yes"/>
      <point x="678" y="434"/>
      <point x="564" y="578"/>
      <point x="369" y="578" type="curve" smooth="yes"/>
      <point x="164" y="578"/>
      <point x="59" y="434"/>
      <point x="59" y="282" type="curve" smooth="yes"/>
    </contour>
    <contour>
      <point x="229" y="374"/>
      <point x="274" y="444"/>
      <point x="369" y="444" type="curve" smooth="yes"/>
      <point x="463" y="444"/>
      <point x="509" y="374"/>
      <point x="509" y="282" type="curve" smooth="yes"/>
      <point x="509" y="190"/>
      <point x="463" y="117"/>
      <point x="369" y="117" type="curve" smooth="yes"/>
      <point x="274" y="117"/>
      <point x="229" y="190"/>
      <point x="229" y="282" type="curve" smooth="yes"/>
    </contour>
    <contour>
      <point x="167" y="807" type="line"/>
      <point x="167" y="691" type="line"/>
      <point x="323" y="691" type="line"/>
      <point x="323" y="807" type="line"/>
    </contour>
    <contour>
      <point x="420" y="807" type="line"/>
      <point x="420" y="691" type="line"/>
      <point x="576" y="691" type="line"/>
      <point x="576" y="807" type="line"/>
    </contour>
  </outline>
</glyph>
<glyph name="divide" format="1">
  <advance width="601"/>
  <unicode hex="00F7"/>
  <note>
    divide
  </note>
  <outline>
    <contour>
      <point x="291" y="97" type="line"/>
      <point x="291" y="29" type="line"/>
      <point x="360" y="29" type="line"/>
      <point x="360" y="97" type="line"/>
    </contour>
    <contour>
      <point x="291" y="526" type="line"/>
      <point x="291" y="458" type="line"/>
      <point x="360" y="458" type="line"/>
      <point x="360" y="526" type="line"/>
    </contour>
    <contour>
      <point x="16" y="299" type="line"/>
      <point x="16" y="256" type="line"/>
      <point x="583" y="256" type="line"/>
      <point x="583" y="299" type="line"/>
    </contour>
  </outline>
</glyph>
<glyph name="oslash" format="1">
  <advance width="677"/>
  <unicode hex="00F8"/>
  <note>
    oslash
  </note>
  <outline>
    <contour>
      <point x="27" y="151"/>
      <point x="110" y="29"/>
      <point x="254" y="-5" type="curve"/>
      <point x="203" y="-197" type="line"/>
      <point x="245" y="-207" type="line"/>
      <point x="297" y="-12" type="line"/>
      <point x="310" y="-13"/>
      <point x="323" y="-14"/>
      <point x="337" y="-14" type="curve" smooth="yes"/>
      <point x="532" y="-14"/>
      <point x="646" y="128"/>
      <point x="646" y="282" type="curve" smooth="yes"/>
      <point x="646" y="401"/>
      <point x="575" y="516"/>
      <point x="450" y="559" type="curve"/>
      <point x="514" y="796" type="line"/>
      <point x="472" y="806" type="line"/>
      <point x="408" y="571" type="line"/>
      <point x="386" y="575"/>
      <point x="362" y="578"/>
      <point x="337" y="578" type="curve" smooth="yes"/>
      <point x="132" y="578"/>
      <point x="27" y="434"/>
      <point x="27" y="282" type="curve" smooth="yes"/>
    </contour>
    <contour>
      <point x="197" y="374"/>
      <point x="242" y="444"/>
      <point x="337" y="444" type="curve" smooth="yes"/>
      <point x="350" y="444"/>
      <point x="362" y="442"/>
      <point x="373" y="440" type="curve"/>
      <point x="289" y="124" type="line"/>
      <point x="226" y="145"/>
      <point x="197" y="207"/>
      <point x="197" y="282" type="curve" smooth="yes"/>
    </contour>
    <contour>
      <point x="477" y="190"/>
      <point x="431" y="117"/>
      <point x="337" y="117" type="curve" smooth="yes"/>
      <point x="332" y="117" type="line"/>
      <point x="414" y="423" type="line"/>
      <point x="456" y="395"/>
      <point x="477" y="344"/>
      <point x="477" y="282" type="curve" smooth="yes"/>
    </contour>
  </outline>
</glyph>
<glyph name="uacute" format="1">
  <advance width="716"/>
  <unicode hex="00FA"/>
  <note>
    uacute
  </note>
  <outline>
    <contour>
      <point x="237" y="555" type="line"/>
      <point x="75" y="555" type="line"/>
      <point x="75" y="217" type="line" smooth="yes"/>
      <point x="75" y="75"/>
      <point x="144" y="-14"/>
      <point x="284" y="-14" type="curve" smooth="yes"/>
      <point x="460" y="-14"/>
      <point x="491" y="148"/>
      <point x="491" y="148" type="curve"/>
      <point x="570" y="0" type="line"/>
      <point x="641" y="0" type="line"/>
      <point x="641" y="555" type="line"/>
      <point x="479" y="555" type="line"/>
      <point x="479" y="224" type="line" smooth="yes"/>
      <point x="479" y="207"/>
      <point x="441" y="117"/>
      <point x="341" y="117" type="curve" smooth="yes"/>
      <point x="278" y="117"/>
      <point x="237" y="153"/>
      <point x="237" y="219" type="curve" smooth="yes"/>
    </contour>
    <contour>
      <point x="468" y="904" type="line"/>
      <point x="254" y="665" type="line"/>
      <point x="285" y="633" type="line"/>
      <point x="556" y="809" type="line"/>
    </contour>
  </outline>
</glyph>
<glyph name="udieresis" format="1">
  <advance width="716"/>
  <unicode hex="00FC"/>
  <note>
    udieresis
  </note>
  <outline>
    <contour>
      <point x="237" y="555" type="line"/>
      <point x="75" y="555" type="line"/>
      <point x="75" y="217" type="line" smooth="yes"/>
      <point x="75" y="75"/>
      <point x="144" y="-14"/>
      <point x="284" y="-14" type="curve" smooth="yes"/>
      <point x="460" y="-14"/>
      <point x="491" y="148"/>
      <point x="491" y="148" type="curve"/>
      <point x="570" y="0" type="line"/>
      <point x="641" y="0" type="line"/>
      <point x="641" y="555" type="line"/>
      <point x="479" y="555" type="line"/>
      <point x="479" y="224" type="line" smooth="yes"/>
      <point x="479" y="207"/>
      <point x="441" y="117"/>
      <point x="341" y="117" type="curve" smooth="yes"/>
      <point x="278" y="117"/>
      <point x="237" y="153"/>
      <point x="237" y="219" type="curve" smooth="yes"/>
    </contour>
    <contour>
      <point x="154" y="807" type="line"/>
      <point x="154" y="691" type="line"/>
      <point x="310" y="691" type="line"/>
      <point x="310" y="807" type="line"/>
    </contour>
    <contour>
      <point x="407" y="807" type="line"/>
      <point x="407" y="691" type="line"/>
      <point x="563" y="691" type="line"/>
      <point x="563" y="807" type="line"/>
    </contour>
  </outline>
</glyph>
<glyph name="yacute" format="1">
  <advance width="751"/>
  <unicode hex="00FD"/>
  <note>
    yacute
  </note>
  <outline>
    <contour>
      <point x="259" y="-33" type="line"/>
      <point x="231" y="-79"/>
      <point x="199" y="-103"/>
      <point x="162" y="-103" type="curve" smooth="yes"/>
      <point x="118" y="-103"/>
      <point x="94" y="-78"/>
      <point x="94" y="-78" type="curve"/>
      <point x="94" y="-205" type="line"/>
      <point x="94" y="-205"/>
      <point x="131" y="-233"/>
      <point x="191" y="-233" type="curve" smooth="yes"/>
      <point x="283" y="-233"/>
      <point x="345" y="-157"/>
      <point x="423" y="-10" type="curve" smooth="yes"/>
      <point x="724" y="555" type="line"/>
      <point x="546" y="555" type="line"/>
      <point x="395" y="217" type="line"/>
      <point x="246" y="555" type="line"/>
      <point x="66" y="555" type="line"/>
      <point x="323" y="82" type="line"/>
    </contour>
    <contour>
      <point x="502" y="904" type="line"/>
      <point x="288" y="665" type="line"/>
      <point x="319" y="633" type="line"/>
      <point x="590" y="809" type="line"/>
    </contour>
  </outline>
</glyph>
<glyph name="ydieresis" format="1">
  <advance width="751"/>
  <unicode hex="00FF"/>
  <note>
    ydieresis
  </note>
  <outline>
    <contour>
      <point x="259" y="-33" type="line"/>
      <point x="231" y="-79"/>
      <point x="199" y="-103"/>
      <point x="162" y="-103" type="curve" smooth="yes"/>
      <point x="118" y="-103"/>
      <point x="94" y="-78"/>
      <point x="94" y="-78" type="curve"/>
      <point x="94" y="-205" type="line"/>
      <point x="94" y="-205"/>
      <point x="131" y="-233"/>
      <point x="191" y="-233" type="curve" smooth="yes"/>
      <point x="283" y="-233"/>
      <point x="345" y="-157"/>
      <point x="423" y="-10" type="curve" smooth="yes"/>
      <point x="724" y="555" type="line"/>
      <point x="546" y="555" type="line"/>
      <point x="395" y="217" type="line"/>
      <point x="246" y="555" type="line"/>
      <point x="66" y="555" type="line"/>
      <point x="323" y="82" type="line"/>
    </contour>
    <contour>
      <point x="192" y="807" type="line"/>
      <point x="192" y="691" type="line"/>
      <point x="348" y="691" type="line"/>
      <point x="348" y="807" type="line"/>
    </contour>
    <contour>
      <point x="445" y="807" type="line"/>
      <point x="445" y="691" type="line"/>
      <point x="601" y="691" type="line"/>
      <point x="601" y="807" type="line"/>
    </contour>
  </outline>
</glyph>
<glyph name="dotlessi" format="1">
  <advance width="313"/>
  <unicode hex="0131"/>
  <note>
    dotlessi
  </note>
  <outline>
    <contour>
      <point x="77" y="0" type="line"/>
      <point x="239" y="0" type="line"/>
      <point x="239" y="555" type="line"/>
      <point x="77" y="555" type="line"/>
    </contour>
  </outline>
</glyph>
<glyph name="OE" format="1">
  <advance width="1293"/>
  <unicode hex="0152"/>
  <note>
    OE
  </note>
  <outline>
    <contour>
      <point x="51" y="163"/>
      <point x="228" y="-14"/>
      <point x="491" y="-14" type="curve" smooth="yes"/>
      <point x="534" y="-14"/>
      <point x="575" y="-9"/>
      <point x="614" y="0" type="curve"/>
      <point x="1239" y="0" type="line"/>
      <point x="1239" y="144" type="line"/>
      <point x="846" y="144" type="line"/>
      <point x="888" y="196"/>
      <point x="915" y="259"/>
      <point x="925" y="328" type="curve"/>
      <point x="1158" y="328" type="line"/>
      <point x="1158" y="471" type="line"/>
      <point x="920" y="471" type="line"/>
      <point x="908" y="531"/>
      <point x="881" y="586"/>
      <point x="844" y="633" type="curve"/>
      <point x="1212" y="633" type="line"/>
      <point x="1212" y="777" type="line"/>
      <point x="600" y="777" type="line"/>
      <point x="566" y="784"/>
      <point x="529" y="788"/>
      <point x="491" y="788" type="curve" smooth="yes"/>
      <point x="228" y="788"/>
      <point x="51" y="611"/>
      <point x="51" y="387" type="curve" smooth="yes"/>
    </contour>
    <contour>
      <point x="410" y="328" type="line"/>
      <point x="740" y="328" type="line"/>
      <point x="714" y="203"/>
      <point x="606" y="134"/>
      <point x="491" y="134" type="curve" smooth="yes"/>
      <point x="355" y="134"/>
      <point x="234" y="225"/>
      <point x="234" y="387" type="curve" smooth="yes"/>
      <point x="234" y="549"/>
      <point x="355" y="643"/>
      <point x="491" y="643" type="curve" smooth="yes"/>
      <point x="600" y="643"/>
      <point x="700" y="581"/>
      <point x="734" y="471" type="curve"/>
      <point x="410" y="471" type="line"/>
    </contour>
  </outline>
</glyph>
<glyph name="oe" format="1">
  <advance width="1077"/>
  <unicode hex="0153"/>
  <note>
    oe
  </note>
  <outline>
    <contour>
      <point x="964" y="-14"/>
      <point x="1020" y="156"/>
      <point x="1020" y="218" type="curve"/>
      <point x="876" y="218" type="line" smooth="yes"/>
      <point x="876" y="218"/>
      <point x="858" y="117"/>
      <point x="731" y="117" type="curve" smooth="yes"/>
      <point x="602" y="117"/>
      <point x="548" y="211"/>
      <point x="548" y="211" type="curve" smooth="yes"/>
      <point x="548" y="211"/>
      <point x="492" y="117"/>
      <point x="385" y="117" type="curve" smooth="yes"/>
      <point x="293" y="117"/>
      <point x="229" y="180"/>
      <point x="229" y="282" type="curve" smooth="yes"/>
      <point x="229" y="384"/>
      <point x="294" y="444"/>
      <point x="385" y="444" type="curve" smooth="yes"/>
      <point x="493" y="444"/>
      <point x="549" y="344"/>
      <point x="549" y="344" type="curve" smooth="yes"/>
      <point x="549" y="344"/>
      <point x="603" y="444"/>
      <point x="732" y="444" type="curve" smooth="yes"/>
      <point x="848" y="444"/>
      <point x="865" y="342"/>
      <point x="865" y="342" type="curve"/>
      <point x="549" y="329" type="line"/>
      <point x="549" y="280" type="line"/>
      <point x="1011" y="280" type="line"/>
      <point x="1011" y="439"/>
      <point x="922" y="578"/>
      <point x="761" y="578" type="curve" smooth="yes"/>
      <point x="619" y="578"/>
      <point x="552" y="449"/>
      <point x="549" y="442" type="curve"/>
      <point x="546" y="449"/>
      <point x="496" y="578"/>
      <point x="334" y="578" type="curve" smooth="yes"/>
      <point x="164" y="578"/>
      <point x="59" y="434"/>
      <point x="59" y="282" type="curve" smooth="yes"/>
      <point x="59" y="128"/>
      <point x="174" y="-14"/>
      <point x="334" y="-14" type="curve" smooth="yes"/>
      <point x="490" y="-14"/>
      <point x="549" y="120"/>
      <point x="549" y="120" type="curve" smooth="yes"/>
      <point x="549" y="120"/>
      <point x="603" y="-14"/>
      <point x="760" y="-14" type="curve" smooth="yes"/>
    </contour>
  </outline>
</glyph>
<glyph name="Ydieresis" format="1">
  <advance width="873"/>
  <unicode hex="0178"/>
  <note>
    Ydieresis
  </note>
  <outline>
    <contour>
      <point x="848" y="777" type="line"/>
      <point x="622" y="777" type="line"/>
      <point x="437" y="470" type="line"/>
      <point x="250" y="777" type="line"/>
      <point x="25" y="777" type="line"/>
      <point x="350" y="329" type="line"/>
      <point x="350" y="0" type="line"/>
      <point x="524" y="0" type="line"/>
      <point x="524" y="329" type="line"/>
    </contour>
    <contour>
      <point x="232" y="1029" type="line"/>
      <point x="232" y="907" type="line"/>
      <point x="388" y="907" type="line"/>
      <point x="388" y="1029" type="line"/>
    </contour>
    <contour>
      <point x="485" y="1029" type="line"/>
      <point x="485" y="907" type="line"/>
      <point x="641" y="907" type="line"/>
      <point x="641" y="1029" type="line"/>
    </contour>
  </outline>
</glyph>
<glyph name="Aringacute" format="1">
  <advance width="894"/>
  <unicode hex="01FA"/>
  <outline>
    <contour>
      <point x="309" y="777" type="line"/>
      <point x="309" y="734" type="line"/>
      <point x="755" y="734" type="line"/>
      <point x="51" y="30" type="line"/>
      <point x="81" y="0" type="line"/>
      <point x="785" y="704" type="line"/>
      <point x="785" y="258" type="line"/>
      <point x="828" y="258" type="line"/>
      <point x="828" y="777" type="line"/>
    </contour>
  </outline>
</glyph>
<glyph name="circumflex" format="1">
  <advance width="581"/>
  <unicode hex="02C6"/>
  <note>
    circumflex
  </note>
  <outline>
    <contour>
      <point x="291" y="860" type="line"/>
      <point x="35" y="630" type="line"/>
      <point x="65" y="598" type="line"/>
      <point x="291" y="718" type="line"/>
      <point x="516" y="598" type="line"/>
      <point x="547" y="630" type="line"/>
    </contour>
  </outline>
</glyph>
<glyph name="ring" format="1">
  <advance width="303"/>
  <unicode hex="02DA"/>
  <note>
    ring
  </note>
  <outline>
    <contour>
      <point x="47" y="660"/>
      <point x="93" y="614"/>
      <point x="151" y="614" type="curve" smooth="yes"/>
      <point x="209" y="614"/>
      <point x="257" y="660"/>
      <point x="257" y="718" type="curve" smooth="yes"/>
      <point x="257" y="776"/>
      <point x="209" y="824"/>
      <point x="151" y="824" type="curve" smooth="yes"/>
      <point x="93" y="824"/>
      <point x="47" y="776"/>
      <point x="47" y="718" type="curve" smooth="yes"/>
    </contour>
    <contour>
      <point x="86" y="753"/>
      <point x="115" y="783"/>
      <point x="151" y="783" type="curve" smooth="yes"/>
      <point x="187" y="783"/>
      <point x="216" y="753"/>
      <point x="216" y="718" type="curve" smooth="yes"/>
      <point x="216" y="684"/>
      <point x="187" y="653"/>
      <point x="151" y="653" type="curve" smooth="yes"/>
      <point x="115" y="653"/>
      <point x="86" y="682"/>
      <point x="86" y="718" type="curve" smooth="yes"/>
    </contour>
  </outline>
</glyph>
<glyph name="tilde" format="1">
  <advance width="529"/>
  <unicode hex="02DC"/>
  <note>
    tilde
  </note>
  <outline>
    <contour>
      <point x="288" y="792"/>
      <point x="257" y="737"/>
      <point x="182" y="737" type="curve" smooth="yes"/>
      <point x="113" y="737"/>
      <point x="58" y="789"/>
      <point x="58" y="789" type="curve"/>
      <point x="58" y="690" type="line"/>
      <point x="58" y="690"/>
      <point x="106" y="646"/>
      <point x="182" y="646" type="curve" smooth="yes"/>
      <point x="272" y="646"/>
      <point x="293" y="700"/>
      <point x="365" y="700" type="curve" smooth="yes"/>
      <point x="428" y="700"/>
      <point x="476" y="661"/>
      <point x="476" y="661" type="curve"/>
      <point x="476" y="754" type="line"/>
      <point x="476" y="754"/>
      <point x="429" y="792"/>
      <point x="359" y="792" type="curve" smooth="yes"/>
    </contour>
  </outline>
</glyph>
<glyph name="endash" format="1">
  <advance width="1138"/>
  <unicode hex="2013"/>
  <note>
    endash
  </note>
  <outline>
    <contour>
      <point x="61" y="256" type="line"/>
      <point x="1077" y="256" type="line"/>
      <point x="1077" y="299" type="line"/>
      <point x="61" y="299" type="line"/>
    </contour>
  </outline>
</glyph>
<glyph name="emdash" format="1">
  <advance width="1312"/>
  <unicode hex="2014"/>
  <note>
    emdash
  </note>
  <outline>
    <contour>
      <point x="61" y="256" type="line"/>
      <point x="1251" y="256" type="line"/>
      <point x="1251" y="299" type="line"/>
      <point x="61" y="299" type="line"/>
    </contour>
  </outline>
</glyph>
<glyph name="quoteleft" format="1">
  <advance width="311"/>
  <unicode hex="2018"/>
  <note>
    quoteleft
  </note>
  <outline>
    <contour>
      <point x="252" y="449" type="line"/>
      <point x="252" y="622" type="line"/>
      <point x="132" y="622" type="line"/>
      <point x="132" y="704"/>
      <point x="190" y="716"/>
      <point x="249" y="716" type="curve"/>
      <point x="249" y="776" type="line"/>
      <point x="143" y="776"/>
      <point x="51" y="753"/>
      <point x="51" y="594" type="curve" smooth="yes"/>
      <point x="51" y="449" type="line"/>
    </contour>
  </outline>
</glyph>
<glyph name="quoteright" format="1">
  <advance width="310"/>
  <unicode hex="2019"/>
  <note>
    quoteright
  </note>
  <outline>
    <contour>
      <point x="60" y="776" type="line"/>
      <point x="60" y="603" type="line"/>
      <point x="180" y="603" type="line"/>
      <point x="180" y="521"/>
      <point x="122" y="509"/>
      <point x="63" y="509" type="curve"/>
      <point x="63" y="449" type="line"/>
      <point x="169" y="449"/>
      <point x="261" y="472"/>
      <point x="261" y="631" type="curve" smooth="yes"/>
      <point x="261" y="776" type="line"/>
    </contour>
  </outline>
</glyph>
<glyph name="quotedblleft" format="1">
  <advance width="568"/>
  <unicode hex="201C"/>
  <note>
    quotedblleft
  </note>
  <outline>
    <contour>
      <point x="257" y="449" type="line"/>
      <point x="257" y="622" type="line"/>
      <point x="137" y="622" type="line"/>
      <point x="137" y="704"/>
      <point x="195" y="716"/>
      <point x="254" y="716" type="curve"/>
      <point x="254" y="776" type="line"/>
      <point x="148" y="776"/>
      <point x="56" y="753"/>
      <point x="56" y="594" type="curve" smooth="yes"/>
      <point x="56" y="449" type="line"/>
    </contour>
    <contour>
      <point x="507" y="449" type="line"/>
      <point x="507" y="622" type="line"/>
      <point x="387" y="622" type="line"/>
      <point x="387" y="704"/>
      <point x="445" y="716"/>
      <point x="504" y="716" type="curve"/>
      <point x="504" y="776" type="line"/>
      <point x="398" y="776"/>
      <point x="306" y="753"/>
      <point x="306" y="594" type="curve" smooth="yes"/>
      <point x="306" y="449" type="line"/>
    </contour>
  </outline>
</glyph>
<glyph name="quotedblright" format="1">
  <advance width="567"/>
  <unicode hex="201D"/>
  <note>
    quotedblright
  </note>
  <outline>
    <contour>
      <point x="310" y="776" type="line"/>
      <point x="310" y="603" type="line"/>
      <point x="430" y="603" type="line"/>
      <point x="430" y="521"/>
      <point x="372" y="509"/>
      <point x="313" y="509" type="curve"/>
      <point x="313" y="449" type="line"/>
      <point x="419" y="449"/>
      <point x="511" y="472"/>
      <point x="511" y="631" type="curve" smooth="yes"/>
      <point x="511" y="776" type="line"/>
    </contour>
    <contour>
      <point x="60" y="776" type="line"/>
      <point x="60" y="603" type="line"/>
      <point x="180" y="603" type="line"/>
      <point x="180" y="521"/>
      <point x="122" y="509"/>
      <point x="63" y="509" type="curve"/>
      <point x="63" y="449" type="line"/>
      <point x="169" y="449"/>
      <point x="261" y="472"/>
      <point x="261" y="631" type="curve" smooth="yes"/>
      <point x="261" y="776" type="line"/>
    </contour>
  </outline>
</glyph>
<glyph name="quotedblbase" format="1">
  <advance width="567"/>
  <unicode hex="201E"/>
  <note>
    quotedblbase
  </note>
  <outline>
    <contour>
      <point x="310" y="173" type="line"/>
      <point x="310" y="0" type="line"/>
      <point x="430" y="0" type="line"/>
      <point x="430" y="-82"/>
      <point x="372" y="-94"/>
      <point x="313" y="-94" type="curve"/>
      <point x="313" y="-154" type="line"/>
      <point x="419" y="-154"/>
      <point x="511" y="-131"/>
      <point x="511" y="28" type="curve" smooth="yes"/>
      <point x="511" y="173" type="line"/>
    </contour>
    <contour>
      <point x="60" y="173" type="line"/>
      <point x="60" y="0" type="line"/>
      <point x="180" y="0" type="line"/>
      <point x="180" y="-82"/>
      <point x="122" y="-94"/>
      <point x="63" y="-94" type="curve"/>
      <point x="63" y="-154" type="line"/>
      <point x="169" y="-154"/>
      <point x="261" y="-131"/>
      <point x="261" y="28" type="curve" smooth="yes"/>
      <point x="261" y="173" type="line"/>
    </contour>
  </outline>
</glyph>
<glyph name="dagger" format="1">
  <advance width="515"/>
  <unicode hex="2020"/>
  <note>
    dagger
  </note>
  <outline>
    <contour>
      <point x="490" y="444" type="line"/>
      <point x="490" y="556" type="line"/>
      <point x="340" y="556" type="line"/>
      <point x="317" y="788" type="line"/>
      <point x="199" y="788" type="line"/>
      <point x="175" y="556" type="line"/>
      <point x="25" y="556" type="line"/>
      <point x="25" y="444" type="line"/>
      <point x="174" y="444" type="line"/>
      <point x="174" y="-207" type="line"/>
      <point x="341" y="-207" type="line"/>
      <point x="341" y="444" type="line"/>
    </contour>
  </outline>
</glyph>
<glyph name="bullet" format="1">
  <advance width="674"/>
  <unicode hex="2022"/>
  <note>
    bullet
  </note>
  <outline>
    <contour>
      <point x="249" y="626" type="line"/>
      <point x="232" y="623"/>
      <point x="222" y="616"/>
      <point x="208" y="610" type="curve"/>
      <point x="599" y="218" type="line"/>
      <point x="606" y="231"/>
      <point x="609" y="246"/>
      <point x="615" y="260" type="curve"/>
    </contour>
    <contour>
      <point x="187" y="601" type="line"/>
      <point x="158" y="579" type="line"/>
      <point x="567" y="169" type="line"/>
      <point x="577" y="179"/>
      <point x="585" y="188"/>
      <point x="589" y="199" type="curve"/>
    </contour>
    <contour>
      <point x="323" y="636" type="line"/>
      <point x="306" y="637"/>
      <point x="287" y="636"/>
      <point x="268" y="632" type="curve"/>
      <point x="621" y="277" type="line"/>
      <point x="627" y="298"/>
      <point x="627" y="316"/>
      <point x="627" y="332" type="curve"/>
    </contour>
    <contour>
      <point x="543" y="137" type="line"/>
      <point x="554" y="147" type="line"/>
      <point x="138" y="564" type="line"/>
      <point x="128" y="552" type="line"/>
      <point x="116" y="542" type="line"/>
      <point x="533" y="126" type="line"/>
    </contour>
    <contour>
      <point x="424" y="623" type="line"/>
      <point x="397" y="633"/>
      <point x="366" y="639"/>
      <point x="338" y="639" type="curve"/>
      <point x="628" y="348" type="line"/>
      <point x="627" y="379"/>
      <point x="624" y="406"/>
      <point x="615" y="434" type="curve"/>
    </contour>
    <contour>
      <point x="96" y="517" type="line"/>
      <point x="83" y="499" type="line"/>
      <point x="488" y="95" type="line"/>
      <point x="495" y="98"/>
      <point x="501" y="103"/>
      <point x="505" y="107" type="curve"/>
    </contour>
    <contour>
      <point x="432" y="68" type="line"/>
      <point x="450" y="77" type="line"/>
      <point x="66" y="462" type="line"/>
      <point x="62" y="457"/>
      <point x="59" y="448"/>
      <point x="56" y="442" type="curve"/>
    </contour>
    <contour>
      <point x="384" y="55" type="line"/>
      <point x="44" y="396" type="line"/>
      <point x="43" y="379" type="line"/>
      <point x="369" y="51" type="line"/>
    </contour>
    <contour>
      <point x="510" y="584"/>
      <point x="476" y="607"/>
      <point x="436" y="621" type="curve"/>
      <point x="612" y="445" type="line"/>
      <point x="599" y="484"/>
      <point x="573" y="520"/>
      <point x="541" y="552" type="curve" smooth="yes"/>
    </contour>
    <contour>
      <point x="44" y="298" type="line"/>
      <point x="288" y="53" type="line"/>
      <point x="300" y="51" type="line"/>
      <point x="41" y="309" type="line"/>
    </contour>
    <contour>
      <point x="144" y="120" type="line"/>
      <point x="104" y="159" type="line"/>
      <point x="111" y="149"/>
      <point x="116" y="143"/>
      <point x="125" y="136" type="curve"/>
    </contour>
  </outline>
</glyph>
<glyph name="ellipsis" format="1">
  <advance width="811"/>
  <unicode hex="2026"/>
  <note>
    ellipsis
  </note>
  <outline>
    <contour>
      <point x="61" y="173" type="line"/>
      <point x="61" y="0" type="line"/>
      <point x="242" y="0" type="line"/>
      <point x="242" y="173" type="line"/>
    </contour>
    <contour>
      <point x="317" y="165" type="line"/>
      <point x="317" y="0" type="line"/>
      <point x="497" y="0" type="line"/>
      <point x="497" y="165" type="line"/>
    </contour>
    <contour>
      <point x="572" y="159" type="line"/>
      <point x="572" y="0" type="line"/>
      <point x="753" y="0" type="line"/>
      <point x="753" y="159" type="line"/>
    </contour>
  </outline>
</glyph>
<glyph name="guilsinglleft" format="1">
  <advance width="392"/>
  <unicode hex="2039"/>
  <note>
    guilsinglleft
  </note>
  <outline>
    <contour>
      <point x="16" y="277" type="line"/>
      <point x="328" y="38" type="line"/>
      <point x="328" y="130" type="line"/>
      <point x="134" y="277" type="line"/>
      <point x="332" y="431" type="line"/>
      <point x="332" y="522" type="line"/>
    </contour>
  </outline>
</glyph>
<glyph name="guilsinglright" format="1">
  <advance width="392"/>
  <unicode hex="203A"/>
  <note>
    guilsinglright
  </note>
  <outline>
    <contour>
      <point x="60" y="522" type="line"/>
      <point x="60" y="431" type="line"/>
      <point x="258" y="277" type="line"/>
      <point x="64" y="130" type="line"/>
      <point x="64" y="38" type="line"/>
      <point x="376" y="277" type="line"/>
    </contour>
  </outline>
</glyph>
<glyph name="Euro" format="1">
  <advance width="970"/>
  <unicode hex="20AC"/>
  <note>
    Euro
  </note>
  <outline>
    <contour>
      <point x="63" y="470" type="line"/>
      <point x="63" y="427" type="line"/>
      <point x="87" y="427" type="line"/>
      <point x="86" y="414"/>
      <point x="85" y="400"/>
      <point x="85" y="387" type="curve" smooth="yes"/>
      <point x="85" y="372"/>
      <point x="86" y="357"/>
      <point x="87" y="343" type="curve"/>
      <point x="63" y="343" type="line"/>
      <point x="63" y="300" type="line"/>
      <point x="93" y="300" type="line"/>
      <point x="131" y="112"/>
      <point x="291" y="-14"/>
      <point x="523" y="-14" type="curve" smooth="yes"/>
      <point x="914" y="-14"/>
      <point x="927" y="328"/>
      <point x="927" y="328" type="curve" smooth="yes"/>
      <point x="759" y="328" type="line" smooth="yes"/>
      <point x="759" y="328"/>
      <point x="742" y="144"/>
      <point x="520" y="144" type="curve" smooth="yes"/>
      <point x="405" y="144"/>
      <point x="314" y="201"/>
      <point x="281" y="300" type="curve"/>
      <point x="630" y="300" type="line"/>
      <point x="630" y="343" type="line"/>
      <point x="271" y="343" type="line"/>
      <point x="269" y="357"/>
      <point x="268" y="371"/>
      <point x="268" y="387" type="curve" smooth="yes"/>
      <point x="268" y="401"/>
      <point x="269" y="414"/>
      <point x="270" y="427" type="curve"/>
      <point x="630" y="427" type="line"/>
      <point x="630" y="470" type="line"/>
      <point x="279" y="470" type="line"/>
      <point x="309" y="572"/>
      <point x="397" y="633"/>
      <point x="510" y="633" type="curve" smooth="yes"/>
      <point x="729" y="633"/>
      <point x="740" y="433"/>
      <point x="740" y="433" type="curve"/>
      <point x="885" y="521" type="line"/>
      <point x="885" y="521"/>
      <point x="847" y="788"/>
      <point x="513" y="788" type="curve" smooth="yes"/>
      <point x="292" y="788"/>
      <point x="129" y="659"/>
      <point x="92" y="470" type="curve"/>
    </contour>
  </outline>
</glyph>
<glyph name="northEastArrow" format="1">
  <advance width="894"/>
  <unicode hex="2197"/>
  <outline>
    <contour>
      <point x="309" y="777" type="line"/>
      <point x="309" y="734" type="line"/>
      <point x="755" y="734" type="line"/>
      <point x="51" y="30" type="line"/>
      <point x="81" y="0" type="line"/>
      <point x="785" y="704" type="line"/>
      <point x="785" y="258" type="line"/>
      <point x="828" y="258" type="line"/>
      <point x="828" y="777" type="line"/>
    </contour>
  </outline>
</glyph>
<glyph name="uni21E8" format="1">
  <advance width="1084"/>
  <unicode hex="21E8"/>
  <note>
    uni21E8
  </note>
  <outline>
    <contour>
      <point x="629" y="126" type="line"/>
      <point x="629" y="7" type="line"/>
      <point x="673" y="7" type="line"/>
      <point x="1047" y="321" type="line"/>
      <point x="1047" y="353" type="line"/>
      <point x="673" y="666" type="line"/>
      <point x="629" y="666" type="line"/>
      <point x="629" y="548" type="line"/>
      <point x="33" y="548" type="line"/>
      <point x="33" y="126" type="line"/>
    </contour>
    <contour>
      <point x="673" y="500" type="line"/>
      <point x="673" y="603" type="line"/>
      <point x="996" y="337" type="line"/>
      <point x="673" y="71" type="line"/>
      <point x="673" y="173" type="line"/>
      <point x="76" y="173" type="line"/>
      <point x="76" y="500" type="line"/>
    </contour>
  </outline>
</glyph>
<glyph name="uni21E9" format="1">
  <advance width="729"/>
  <unicode hex="21E9"/>
  <note>
    uni21E9
  </note>
  <outline>
    <contour>
      <point x="153" y="303" type="line"/>
      <point x="35" y="303" type="line"/>
      <point x="35" y="260" type="line"/>
      <point x="348" y="-114" type="line"/>
      <point x="380" y="-114" type="line"/>
      <point x="694" y="260" type="line"/>
      <point x="694" y="303" type="line"/>
      <point x="575" y="303" type="line"/>
      <point x="575" y="900" type="line"/>
      <point x="153" y="900" type="line"/>
    </contour>
    <contour>
      <point x="528" y="260" type="line"/>
      <point x="630" y="260" type="line"/>
      <point x="364" y="-64" type="line"/>
      <point x="98" y="260" type="line"/>
      <point x="201" y="260" type="line"/>
      <point x="201" y="857" type="line"/>
      <point x="528" y="857" type="line"/>
    </contour>
  </outline>
</glyph>
<glyph name="minus" format="1">
  <advance width="689"/>
  <unicode hex="2212"/>
  <note>
    minus
  </note>
  <outline>
    <contour>
      <point x="61" y="299" type="line"/>
      <point x="61" y="256" type="line"/>
      <point x="628" y="256" type="line"/>
      <point x="628" y="299" type="line"/>
    </contour>
  </outline>
</glyph>
<glyph name="uni2460" format="1">
  <advance width="1002"/>
  <unicode hex="2460"/>
  <note>
    uni2460
  </note>
  <outline>
    <contour>
      <point x="46" y="137"/>
      <point x="250" y="-66"/>
      <point x="501" y="-66" type="curve" smooth="yes"/>
      <point x="753" y="-66"/>
      <point x="956" y="137"/>
      <point x="956" y="389" type="curve" smooth="yes"/>
      <point x="956" y="640"/>
      <point x="753" y="844"/>
      <point x="501" y="844" type="curve" smooth="yes"/>
      <point x="250" y="844"/>
      <point x="46" y="640"/>
      <point x="46" y="389" type="curve" smooth="yes"/>
    </contour>
    <contour>
      <point x="91" y="616"/>
      <point x="274" y="799"/>
      <point x="501" y="799" type="curve" smooth="yes"/>
      <point x="728" y="799"/>
      <point x="912" y="616"/>
      <point x="912" y="389" type="curve" smooth="yes"/>
      <point x="912" y="162"/>
      <point x="728" y="-22"/>
      <point x="501" y="-22" type="curve" smooth="yes"/>
      <point x="274" y="-22"/>
      <point x="91" y="162"/>
      <point x="91" y="389" type="curve" smooth="yes"/>
    </contour>
    <contour>
      <point x="630" y="82" type="line"/>
      <point x="630" y="679" type="line"/>
      <point x="488" y="679" type="line"/>
      <point x="428" y="530"/>
      <point x="331" y="494"/>
      <point x="182" y="494" type="curve"/>
      <point x="182" y="346" type="line"/>
      <point x="404" y="346"/>
      <point x="460" y="477"/>
      <point x="460" y="477" type="curve"/>
      <point x="460" y="82" type="line"/>
    </contour>
  </outline>
</glyph>
<glyph name="uni2461" format="1">
  <advance width="1002"/>
  <unicode hex="2461"/>
  <note>
    uni2461
  </note>
  <outline>
    <contour>
      <point x="46" y="137"/>
      <point x="250" y="-66"/>
      <point x="501" y="-66" type="curve" smooth="yes"/>
      <point x="753" y="-66"/>
      <point x="956" y="137"/>
      <point x="956" y="389" type="curve" smooth="yes"/>
      <point x="956" y="640"/>
      <point x="753" y="844"/>
      <point x="501" y="844" type="curve" smooth="yes"/>
      <point x="250" y="844"/>
      <point x="46" y="640"/>
      <point x="46" y="389" type="curve" smooth="yes"/>
    </contour>
    <contour>
      <point x="91" y="616"/>
      <point x="274" y="799"/>
      <point x="501" y="799" type="curve" smooth="yes"/>
      <point x="728" y="799"/>
      <point x="912" y="616"/>
      <point x="912" y="389" type="curve" smooth="yes"/>
      <point x="912" y="162"/>
      <point x="728" y="-22"/>
      <point x="501" y="-22" type="curve" smooth="yes"/>
      <point x="274" y="-22"/>
      <point x="91" y="162"/>
      <point x="91" y="389" type="curve" smooth="yes"/>
    </contour>
    <contour>
      <point x="738" y="615"/>
      <point x="670" y="702"/>
      <point x="527" y="702" type="curve" smooth="yes"/>
      <point x="279" y="702"/>
      <point x="256" y="493"/>
      <point x="256" y="493" type="curve"/>
      <point x="401" y="405" type="line"/>
      <point x="401" y="405"/>
      <point x="401" y="568"/>
      <point x="495" y="568" type="curve" smooth="yes"/>
      <point x="532" y="568"/>
      <point x="554" y="539"/>
      <point x="554" y="490" type="curve" smooth="yes"/>
      <point x="554" y="331"/>
      <point x="257" y="207"/>
      <point x="257" y="207" type="curve"/>
      <point x="257" y="112" type="line"/>
      <point x="730" y="112" type="line"/>
      <point x="730" y="256" type="line"/>
      <point x="490" y="256" type="line"/>
      <point x="502" y="260"/>
      <point x="738" y="354"/>
      <point x="738" y="524" type="curve" smooth="yes"/>
    </contour>
  </outline>
</glyph>
<glyph name="uni2462" format="1">
  <advance width="1002"/>
  <unicode hex="2462"/>
  <note>
    uni2462
  </note>
  <outline>
    <contour>
      <point x="46" y="137"/>
      <point x="250" y="-66"/>
      <point x="501" y="-66" type="curve" smooth="yes"/>
      <point x="753" y="-66"/>
      <point x="956" y="137"/>
      <point x="956" y="389" type="curve" smooth="yes"/>
      <point x="956" y="640"/>
      <point x="753" y="844"/>
      <point x="501" y="844" type="curve" smooth="yes"/>
      <point x="250" y="844"/>
      <point x="46" y="640"/>
      <point x="46" y="389" type="curve" smooth="yes"/>
    </contour>
    <contour>
      <point x="91" y="616"/>
      <point x="274" y="799"/>
      <point x="501" y="799" type="curve" smooth="yes"/>
      <point x="728" y="799"/>
      <point x="912" y="616"/>
      <point x="912" y="389" type="curve" smooth="yes"/>
      <point x="912" y="162"/>
      <point x="728" y="-22"/>
      <point x="501" y="-22" type="curve" smooth="yes"/>
      <point x="274" y="-22"/>
      <point x="91" y="162"/>
      <point x="91" y="389" type="curve" smooth="yes"/>
    </contour>
    <contour>
      <point x="408" y="340" type="line"/>
      <point x="575" y="349"/>
      <point x="622" y="333"/>
      <point x="622" y="272" type="curve" smooth="yes"/>
      <point x="622" y="227"/>
      <point x="569" y="210"/>
      <point x="491" y="210" type="curve" smooth="yes"/>
      <point x="393" y="210"/>
      <point x="349" y="262"/>
      <point x="349" y="328" type="curve"/>
      <point x="181" y="328" type="line"/>
      <point x="181" y="206"/>
      <point x="271" y="62"/>
      <point x="500" y="62" type="curve" smooth="yes"/>
      <point x="701" y="62"/>
      <point x="805" y="166"/>
      <point x="805" y="280" type="curve" smooth="yes"/>
      <point x="805" y="373"/>
      <point x="741" y="431"/>
      <point x="622" y="432" type="curve"/>
      <point x="633" y="434"/>
      <point x="751" y="455"/>
      <point x="751" y="556" type="curve" smooth="yes"/>
      <point x="751" y="645"/>
      <point x="650" y="702"/>
      <point x="505" y="702" type="curve" smooth="yes"/>
      <point x="277" y="702"/>
      <point x="226" y="533"/>
      <point x="226" y="533" type="curve"/>
      <point x="371" y="445" type="line"/>
      <point x="371" y="445"/>
      <point x="378" y="557"/>
      <point x="490" y="557" type="curve" smooth="yes"/>
      <point x="542" y="557"/>
      <point x="567" y="531"/>
      <point x="567" y="496" type="curve" smooth="yes"/>
      <point x="567" y="455"/>
      <point x="542" y="444"/>
      <point x="465" y="444" type="curve" smooth="yes"/>
      <point x="408" y="444" type="line"/>
    </contour>
  </outline>
</glyph>
<glyph name="uni2463" format="1">
  <advance width="1002"/>
  <unicode hex="2463"/>
  <note>
    uni2463
  </note>
  <outline>
    <contour>
      <point x="46" y="137"/>
      <point x="250" y="-66"/>
      <point x="501" y="-66" type="curve" smooth="yes"/>
      <point x="753" y="-66"/>
      <point x="956" y="137"/>
      <point x="956" y="389" type="curve" smooth="yes"/>
      <point x="956" y="640"/>
      <point x="753" y="844"/>
      <point x="501" y="844" type="curve" smooth="yes"/>
      <point x="250" y="844"/>
      <point x="46" y="640"/>
      <point x="46" y="389" type="curve" smooth="yes"/>
    </contour>
    <contour>
      <point x="91" y="616"/>
      <point x="274" y="799"/>
      <point x="501" y="799" type="curve" smooth="yes"/>
      <point x="728" y="799"/>
      <point x="912" y="616"/>
      <point x="912" y="389" type="curve" smooth="yes"/>
      <point x="912" y="162"/>
      <point x="728" y="-22"/>
      <point x="501" y="-22" type="curve" smooth="yes"/>
      <point x="274" y="-22"/>
      <point x="91" y="162"/>
      <point x="91" y="389" type="curve" smooth="yes"/>
    </contour>
    <contour>
      <point x="162" y="221" type="line"/>
      <point x="478" y="221" type="line"/>
      <point x="478" y="83" type="line"/>
      <point x="651" y="83" type="line"/>
      <point x="651" y="221" type="line"/>
      <point x="780" y="221" type="line"/>
      <point x="780" y="364" type="line"/>
      <point x="651" y="364" type="line"/>
      <point x="651" y="678" type="line"/>
      <point x="456" y="678" type="line"/>
      <point x="162" y="311" type="line"/>
    </contour>
    <contour>
      <point x="478" y="534" type="line"/>
      <point x="478" y="364" type="line"/>
      <point x="348" y="364" type="line"/>
    </contour>
  </outline>
</glyph>
<glyph name="uni2464" format="1">
  <advance width="1002"/>
  <unicode hex="2464"/>
  <note>
    uni2464
  </note>
  <outline>
    <contour>
      <point x="46" y="137"/>
      <point x="250" y="-66"/>
      <point x="501" y="-66" type="curve" smooth="yes"/>
      <point x="753" y="-66"/>
      <point x="956" y="137"/>
      <point x="956" y="389" type="curve" smooth="yes"/>
      <point x="956" y="640"/>
      <point x="753" y="844"/>
      <point x="501" y="844" type="curve" smooth="yes"/>
      <point x="250" y="844"/>
      <point x="46" y="640"/>
      <point x="46" y="389" type="curve" smooth="yes"/>
    </contour>
    <contour>
      <point x="91" y="616"/>
      <point x="274" y="799"/>
      <point x="501" y="799" type="curve" smooth="yes"/>
      <point x="728" y="799"/>
      <point x="912" y="616"/>
      <point x="912" y="389" type="curve" smooth="yes"/>
      <point x="912" y="162"/>
      <point x="728" y="-22"/>
      <point x="501" y="-22" type="curve" smooth="yes"/>
      <point x="274" y="-22"/>
      <point x="91" y="162"/>
      <point x="91" y="389" type="curve" smooth="yes"/>
    </contour>
    <contour>
      <point x="805" y="405"/>
      <point x="716" y="471"/>
      <point x="592" y="471" type="curve" smooth="yes"/>
      <point x="441" y="471"/>
      <point x="388" y="405"/>
      <point x="388" y="405" type="curve"/>
      <point x="388" y="534" type="line"/>
      <point x="738" y="534" type="line"/>
      <point x="738" y="678" type="line"/>
      <point x="255" y="678" type="line"/>
      <point x="255" y="340" type="line"/>
      <point x="408" y="340" type="line"/>
      <point x="408" y="340"/>
      <point x="455" y="350"/>
      <point x="508" y="350" type="curve" smooth="yes"/>
      <point x="603" y="350"/>
      <point x="622" y="316"/>
      <point x="622" y="276" type="curve" smooth="yes"/>
      <point x="622" y="218"/>
      <point x="550" y="210"/>
      <point x="491" y="210" type="curve" smooth="yes"/>
      <point x="417" y="210"/>
      <point x="349" y="224"/>
      <point x="349" y="290" type="curve"/>
      <point x="181" y="290" type="line"/>
      <point x="181" y="169"/>
      <point x="292" y="61"/>
      <point x="501" y="61" type="curve" smooth="yes"/>
      <point x="691" y="61"/>
      <point x="805" y="155"/>
      <point x="805" y="283" type="curve" smooth="yes"/>
    </contour>
  </outline>
</glyph>
